SplineFontDB: 1.0
FontName: NimbusRomanNo9L-Regu
FullName: Nimbus Roman No9 L Regular
FamilyName: Nimbus Roman No9 L
Weight: Regular
Copyright: Copyright (URW)++,Copyright 1999 by (URW)++ Design & Development; Cyrillic glyphs added by Valek Filippov (C) 2001; Numero, infinity and Omega made by Dmitry 40in (C) 2001
Version: 1.06
ItalicAngle: 0
UnderlinePosition: -100
UnderlineWidth: 50
Ascent: 800
Descent: 200
NeedsXUIDChange: 1
UniqueID: 4162059
FSType: 0
OS2WinAscent: 0
OS2WinAOffset: 1
OS2WinDescent: 0
OS2WinDOffset: 1
HheadAscent: 0
HheadAOffset: 1
HheadDescent: 0
HheadDOffset: 1
ScriptLang: 2
 1 latn 1 dflt 
 1 DFLT 1 dflt 
Encoding: adobestandard
UnicodeInterp: none
DisplaySize: -36
AntiAlias: 1
FitToEm: 1
WinInfo: 330 30 14
BeginPrivate: 7
BlueValues 23 [-20 0 450 470 662 682]
BlueScale 8 0.039625
StdHW 4 [30]
StdVW 4 [85]
StemSnapH 200 [30 38 43 53 60 73] 
systemdict /internaldict known
{1183615869 systemdict /internaldict get exec
/StemSnapLength 2 copy known { get 6 lt } { pop pop true } ifelse }
{ true } ifelse { pop [30 38] } if
StemSnapV 204 [78 85 91 103 109 115] 
systemdict /internaldict known
{1183615869 systemdict /internaldict get exec
/StemSnapLength 2 copy known { get 6 lt } { pop pop true } ifelse }
{ true } ifelse { pop [85 103] } if
ForceBold 5 false
EndPrivate
BeginChars: 768 661
StartChar: exclam
Encoding: 33 33 2
Width: 333
Flags: W
HStem: -9 107<174 191> 656 20G<166.5 200>
Fore
189 176 m 1
 176 176 l 1
 167 284 l 2
 165 309 159 362 150 422 c 0
 139 494 130 576 130 599 c 0
 130 646 150 676 183 676 c 0
 217 676 236 648 236 596 c 0
 236 582 235 571 234 559 c 1
 189 176 l 1
183 98 m 0
 213 98 237 73 237 43 c 0
 237 13 214 -9 182 -9 c 0
 152 -9 130 13 130 43 c 0
 130 74 153 98 183 98 c 0
EndSplineSet
EndChar
StartChar: quotedbl
Encoding: 34 34 3
Width: 408
Flags: W
HStem: 656 20G<108 131.5 277 300.5>
VStem: 77 85<622 640> 246 85<622 640>
Fore
299 431 m 1
 278 431 l 1
 261 521 246 619 246 635 c 0
 246 658 265 676 289 676 c 0
 312 676 331 658 331 636 c 0
 331 607 322 547 306 471 c 1
 299 431 l 1
130 431 m 1
 109 431 l 1
 92 521 77 619 77 635 c 0
 77 658 96 676 120 676 c 0
 143 676 162 658 162 636 c 0
 162 607 153 547 137 471 c 1
 130 431 l 1
EndSplineSet
EndChar
StartChar: numbersign
Encoding: 35 35 4
Width: 500
Flags: W
HStem: 0 21G<79 137 273 331> 216 55<5 112 179 304 371 471> 405 55<32 142 208 333 399 496> 405 257<181 333 371 496>
DStem: 112 216 170 216 79 0 137 0 142 405 200 405 121 271 179 271 181 662 239 662 150 460 208 460 304 216 362 216 273 0 331 0 333 405 391 405 313 271 371 271 371 662 429 662 341 460 399 460
Fore
471 271 m 1xd0
 471 216 l 1
 362 216 l 1
 331 0 l 1
 273 0 l 1
 304 216 l 1
 170 216 l 1
 137 0 l 1
 79 0 l 1
 112 216 l 1
 5 216 l 1
 5 271 l 1
 121 271 l 1
 142 405 l 1
 32 405 l 1
 32 460 l 1
 150 460 l 1xe0
 181 662 l 1
 239 662 l 1xd0
 208 460 l 1
 341 460 l 1xe0
 371 662 l 1
 429 662 l 1xd0
 399 460 l 1
 496 460 l 1
 496 405 l 1xe0
 391 405 l 1
 371 271 l 1
 471 271 l 1xd0
333 405 m 1
 200 405 l 1xd0
 179 271 l 1
 313 271 l 1
 333 405 l 1
EndSplineSet
EndChar
StartChar: dollar
Encoding: 36 36 5
Width: 500
Flags: W
VStem: 52 74<512 534> 230 34<-87 0 28 293 407 637 663 727> 378 79<146 170>
Fore
425 500 m 1
 410 500 l 1
 393 585 348 627 264 637 c 1
 264 391 l 1
 385 321 412 301 437 260 c 0
 449 240 457 204 457 170 c 0
 457 122 438 81 405 53 c 0
 369 24 338 12 264 0 c 1
 264 -87 l 1
 230 -87 l 1
 230 0 l 1
 146 3 104 14 44 51 c 1
 44 181 l 1
 59 181 l 1
 83 76 136 29 230 28 c 1
 230 310 l 1
 159 350 137 365 108 393 c 0
 68 430 52 465 52 512 c 0
 52 555 72 595 106 622 c 0
 139 648 167 657 230 664 c 1
 230 727 l 1
 264 727 l 1
 264 664 l 1
 348 654 391 639 425 611 c 1
 425 500 l 1
229 407 m 1
 229 637 l 1
 160 623 126 589 126 534 c 0
 126 488 146 463 229 407 c 1
264 293 m 1
 264 28 l 1
 342 43 378 80 378 146 c 0
 378 208 357 235 264 293 c 1
EndSplineSet
EndChar
StartChar: percent
Encoding: 37 37 6
Width: 833
Flags: W
HStem: 0 30<569 588> 289 34<179 196> 339 32<667 687> 583 25<428 462> 632 30<272.497 285>
VStem: 61 76<384 416> 359 25<530 564> 449 76<94 129> 746 26<242 266>
DStem: 552 613 634 676 201 -13 249 -13
Fore
669 371 m 0
 734 371 772 332 772 264 c 0
 772 186 739 105 686 51 c 0
 651 16 614 0 569 0 c 0
 497 0 449 51 449 129 c 0
 449 254 556 371 669 371 c 0
676 339 m 0
 645 339 617 321 590 281 c 0
 553 229 525 147 525 94 c 0
 525 56 550 30 586 30 c 0
 622 30 651 47 683 87 c 0
 721 134 746 202 746 259 c 0
 746 303 714 339 676 339 c 0
634 676 m 1
 249 -13 l 1
 201 -13 l 1
 552 613 l 1
 512 590 486 583 442 583 c 0
 413 583 395 586 377 593 c 1
 382 575 384 563 384 549 c 0
 384 476 352 397 300 344 c 0
 267 309 222 289 179 289 c 0
 114 289 61 346 61 416 c 0
 61 543 168 662 282 662 c 0
 313 662 326 657 352 635 c 0
 376 615 399 608 439 608 c 0
 501 608 541 625 595 676 c 1
 634 676 l 1
350 600 m 1
 321 608 309 613 295 626 c 0
 289 631 287 632 282 632 c 0
 251 632 213 598 184 544 c 0
 157 494 137 426 137 384 c 0
 137 348 161 323 196 323 c 0
 277 323 359 438 359 551 c 0
 359 565 356 580 350 600 c 1
EndSplineSet
EndChar
StartChar: ampersand
Encoding: 38 38 7
Width: 778
Flags: W
HStem: -13 52<213 263> 405 21<495 505 702.667 711> 644 32<345 363>
VStem: 42 92<139 180> 202 79<522 562> 438 53<546 565>
Fore
711 426 m 1
 711 405 l 1
 661 399 641 387 617 346 c 2
 591 300 l 2
 560 246 535 209 491 150 c 1
 537 89 589 58 645 58 c 0
 681 58 703 71 735 111 c 1
 750 100 l 1
 720 29 663 -13 599 -13 c 0
 541 -13 492 13 429 78 c 1
 354 12 294 -13 213 -13 c 0
 107 -13 42 44 42 139 c 0
 42 223 93 294 199 355 c 2
 237 377 l 1
 210 452 202 484 202 522 c 0
 202 608 270 676 356 676 c 0
 435 676 491 626 491 555 c 0
 491 522 478 487 457 464 c 0
 429 433 404 416 336 384 c 1
 380 298 412 247 468 178 c 1
 532 263 559 317 559 360 c 0
 559 390 545 400 495 405 c 1
 495 426 l 1
 711 426 l 1
321 416 m 1
 403 460 438 503 438 559 c 0
 438 608 404 644 358 644 c 0
 312 644 281 610 281 562 c 0
 281 517 291 479 321 416 c 1
252 343 m 1
 165 287 134 244 134 180 c 0
 134 103 193 39 263 39 c 0
 305 39 345 57 404 104 c 1
 347 174 312 229 252 343 c 1
EndSplineSet
EndChar
StartChar: quoteright
Encoding: 39 8217 8
Width: 333
Flags: W
HStem: 656 20G<120.5 160.5>
VStem: 179 39<558 587>
Fore
106 433 m 1
 97 452 l 1
 151 489 179 525 179 558 c 0
 179 566 173 572 165 572 c 0
 164 572 164 572 157 570 c 0
 151 569 144 568 138 568 c 0
 102 568 79 587 79 619 c 0
 79 653 103 676 138 676 c 0
 183 676 218 637 218 587 c 0
 218 527 173 466 106 433 c 1
EndSplineSet
KernsSLIF: 121 -45 1 0 119 -47 1 0 118 -47 1 0 116 -43 1 0 115 -47 1 0 114 -44 1 0 46 -78 1 0 111 -54 1 0 100 -56 1 0 44 -71 1 0 262 -130 1 0 256 -130 1 0 257 -130 1 0 225 -135 1 0 65 -130 1 0
EndChar
StartChar: parenleft
Encoding: 40 40 9
Width: 333
Flags: W
VStem: 48 86<222 272>
Fore
295 676 m 1
 304 660 l 1
 232 602 202 566 174 504 c 0
 147 442 134 360 134 255 c 0
 134 155 145 79 169 12 c 0
 196 -63 224 -98 304 -161 c 1
 292 -177 l 1
 240 -145 214 -123 173 -75 c 0
 85 27 48 125 48 252 c 0
 48 369 83 469 154 556 c 0
 191 602 221 628 295 676 c 1
EndSplineSet
EndChar
StartChar: parenright
Encoding: 41 41 10
Width: 333
Flags: W
VStem: 199 86<222 272>
Fore
38 -177 m 1
 29 -161 l 1
 101 -103 131 -67 159 -4 c 0
 186 57 199 140 199 244 c 0
 199 344 188 420 164 487 c 0
 136 562 109 597 29 660 c 1
 41 676 l 1
 93 644 119 622 160 574 c 0
 248 472 285 375 285 247 c 0
 285 130 250 30 179 -57 c 0
 142 -103 112 -129 38 -177 c 1
EndSplineSet
EndChar
StartChar: asterisk
Encoding: 42 42 11
Width: 500
Flags: W
HStem: 656 20G<241 261>
VStem: 241 19<448 456 486 514>
Fore
241 449 m 1
 241 456 l 1
 206 434 199 429 189 420 c 0
 181 413 176 408 147 375 c 0
 130 356 121 351 105 351 c 0
 83 351 69 364 69 386 c 0
 69 411 86 423 131 431 c 0
 177 440 193 446 234 471 c 1
 223 478 l 2
 204 491 174 501 137 508 c 0
 89 517 69 531 69 555 c 0
 69 575 84 591 103 591 c 0
 119 591 131 583 151 559 c 1
 184 523 203 507 241 486 c 1
 241 499 l 2
 241 526 236 557 226 590 c 0
 220 611 216 629 216 641 c 0
 216 661 231 676 251 676 c 0
 271 676 287 660 287 639 c 0
 287 628 283 612 277 593 c 0
 266 562 260 534 260 510 c 2
 260 484 l 1
 267 488 l 2
 289 500 314 522 339 552 c 0
 363 580 380 593 395 593 c 0
 416 593 431 577 431 554 c 0
 431 529 418 518 380 512 c 0
 336 505 317 498 268 470 c 1
 276 465 l 2
 302 449 334 437 373 431 c 0
 417 424 432 413 432 387 c 0
 432 365 418 350 397 350 c 0
 379 350 362 362 337 393 c 0
 310 426 289 444 267 453 c 2
 260 456 l 1
 260 449 l 2
 260 410 267 372 280 337 c 0
 285 324 288 311 288 305 c 0
 288 284 270 265 249 265 c 0
 230 265 214 282 214 302 c 0
 214 313 218 330 225 348 c 0
 238 382 244 411 242 432 c 1
 241 449 l 1
EndSplineSet
EndChar
StartChar: plus
Encoding: 43 43 12
Width: 564
Flags: W
HStem: 0 21G<249 315> 220 66<30 249 315 534>
VStem: 249 66<0 220 286 506>
Fore
249 286 m 1
 249 506 l 1
 315 506 l 1
 315 286 l 1
 534 286 l 1
 534 220 l 1
 315 220 l 1
 315 0 l 1
 249 0 l 1
 249 220 l 1
 30 220 l 1
 30 286 l 1
 249 286 l 1
EndSplineSet
EndChar
StartChar: comma
Encoding: 44 44 13
Width: 250
Flags: W
HStem: -22 20G<141.5 146>
VStem: 156 39<-16 13>
Fore
83 -141 m 1
 74 -122 l 1
 128 -85 156 -48 156 -16 c 0
 156 -8 150 -2 142 -2 c 0
 141 -2 141 -2 134 -4 c 0
 128 -5 121 -6 115 -6 c 0
 79 -6 56 13 56 45 c 0
 56 79 80 102 115 102 c 0
 160 102 195 63 195 13 c 0
 195 -47 150 -108 83 -141 c 1
EndSplineSet
KernsSLIF: 39 -53 1 0 186 -29 1 0 49 -52 1 0
EndChar
StartChar: hyphen
Encoding: 45 45 14
Width: 333
Flags: W
HStem: 194 63<39 285>
Fore
39 257 m 1
 285 257 l 1
 285 194 l 1
 39 194 l 1
 39 257 l 1
EndSplineSet
KernsSLIF: 89 -108 1 0 87 -59 1 0 86 -82 1 0 84 -77 1 0 262 -26 1 0 256 -26 1 0 257 -26 1 0 225 -25 1 0 65 -26 1 0
EndChar
StartChar: period
Encoding: 46 46 15
Width: 250
Flags: W
HStem: -11 21G<109.5 139.5>
Fore
125 100 m 0
 155 100 181 74 181 43 c 0
 181 14 155 -11 124 -11 c 0
 95 -11 70 14 70 43 c 0
 70 74 95 100 125 100 c 0
EndSplineSet
KernsSLIF: 39 -58 1 0 186 -33 1 0 49 -61 1 0
EndChar
StartChar: slash
Encoding: 47 47 16
Width: 278
Flags: W
HStem: -14 21G<-9 59> 656 20G<220 287>
DStem: 220 676 287 676 -9 -14 59 -14
Fore
287 676 m 1
 59 -14 l 1
 -9 -14 l 1
 220 676 l 1
 287 676 l 1
EndSplineSet
EndChar
StartChar: zero
Encoding: 48 48 17
Width: 500
Flags: W
HStem: -14 26<235.891 265> 650 26<247 265>
VStem: 24 96<305 355> 380 96<305 355>
Fore
254 676 m 0
 385 676 476 535 476 330 c 0
 476 209 438 93 380 38 c 0
 344 3 301 -14 250 -14 c 0
 192 -14 141 10 104 54 c 0
 57 110 24 227 24 336 c 0
 24 453 62 568 120 624 c 0
 157 659 199 676 254 676 c 0
251 650 m 0
 165 650 120 539 120 327 c 0
 120 119 164 12 250 12 c 0
 336 12 380 119 380 328 c 0
 380 537 335 650 251 650 c 0
EndSplineSet
KernsSLIF: 55 -5 1 0 49 -55 1 0 52 12 1 0
EndChar
StartChar: one
Encoding: 49 49 18
Width: 500
Flags: W
HStem: 0 15<118 142.426 118 160 315 394 394 394>
VStem: 213 86<74 674>
DStem: 291 676 291 676 111 585 299 674
Fore
291 676 m 1
 299 674 l 1
 299 74 l 2
 299 26 315 16 394 15 c 1
 394 0 l 1
 118 0 l 1
 118 15 l 1
 160 16 174 19 189 28 c 0
 205 37 213 60 213 93 c 2
 213 546 l 2
 213 578 204 593 183 593 c 0
 173 593 156 589 138 582 c 0
 134 580 123 576 111 571 c 1
 111 585 l 1
 291 676 l 1
EndSplineSet
KernsSLIF: 48 -54 1 0 50 -34 1 0 51 -41 1 0 54 -66 1 0 55 -78 1 0 46 -55 1 0 49 -78 1 0 57 -61 1 0 52 -72 1 0 53 -37 1 0 56 -68 1 0 44 -48 1 0
EndChar
StartChar: two
Encoding: 50 50 19
Width: 500
Flags: W
HStem: 0 76<128 420> 602 74<197 239>
VStem: 338 86<461 499>
DStem: 208 201 296 252 30 12 128 76
Fore
475 137 m 1
 420 0 l 1
 30 0 l 1
 30 12 l 1
 208 201 l 2
 292 290 338 383 338 461 c 0
 338 545 281 602 197 602 c 0
 128 602 92 570 52 472 c 1
 31 477 l 1
 48 548 63 580 95 614 c 0
 132 654 184 676 239 676 c 0
 343 676 424 599 424 499 c 0
 424 421 385 345 296 252 c 2
 128 76 l 1
 367 76 l 2
 412 76 425 85 462 142 c 1
 475 137 l 1
EndSplineSet
KernsSLIF: 55 -16 1 0 49 -60 1 0
EndChar
StartChar: three
Encoding: 51 51 20
Width: 500
Flags: W
HStem: -14 36<156 229> 616 60<209 242>
VStem: 319 79<509 539> 360 72<171 219>
Fore
153 330 m 1xd0
 153 343 l 1
 221 367 249 382 279 412 c 0
 304 437 319 473 319 509 c 0
 319 572 274 616 209 616 c 0
 146 616 101 583 60 510 c 1
 45 514 l 1
 67 574 82 600 112 627 c 0
 148 659 192 676 242 676 c 0
 334 676 398 620 398 539 c 0xe0
 398 485 373 448 304 401 c 1
 348 382 367 370 387 348 c 0
 416 317 432 270 432 219 c 0
 432 152 406 94 359 53 c 0
 312 12 233 -14 156 -14 c 0
 86 -14 43 8 43 43 c 0
 43 64 58 78 81 78 c 0
 98 78 115 71 145 53 c 0
 182 29 202 22 229 22 c 0
 303 22 360 87 360 171 c 0
 360 240 321 297 259 319 c 0
 235 328 212 330 153 330 c 1xd0
EndSplineSet
KernsSLIF: 55 -28 1 0 49 -75 1 0 52 -6 1 0
EndChar
StartChar: four
Encoding: 52 52 21
Width: 500
Flags: W
HStem: 0 21G<293 370> 167 64<52 293 370 472> 656 20G<326 370>
VStem: 293 77<0 167 231 676>
DStem: 326 676 292 574 12 231 52 231
Fore
472 231 m 1
 472 167 l 1
 370 167 l 1
 370 0 l 1
 293 0 l 1
 293 167 l 1
 12 167 l 1
 12 231 l 1
 326 676 l 1
 370 676 l 1
 370 231 l 1
 472 231 l 1
292 231 m 1
 292 574 l 1
 52 231 l 1
 292 231 l 1
EndSplineSet
KernsSLIF: 55 -42 1 0 49 -75 1 0 52 14 1 0
EndChar
StartChar: five
Encoding: 53 53 22
Width: 500
Flags: W
HStem: -14 37<154 218> 583 79<174 385>
VStem: 357 70<194 242>
DStem: 174 662 181 583 65 425 139 498
Fore
181 583 m 1
 139 498 l 1
 257 477 314 454 358 410 c 0
 408 360 427 314 427 242 c 0
 427 166 406 109 360 64 c 1
 310 13 238 -14 154 -14 c 0
 79 -14 32 10 32 48 c 0
 32 73 46 85 75 85 c 0
 96 85 119 75 151 52 c 0
 181 30 198 23 218 23 c 0
 296 23 357 98 357 194 c 0
 357 293 304 355 189 392 c 0
 148 405 108 412 76 412 c 0
 68 412 64 415 64 420 c 0
 64 422 64 423 65 425 c 2
 174 662 l 1
 383 662 l 2
 404 662 414 667 429 688 c 1
 438 681 l 1
 400 592 l 2
 397 585 393 583 377 583 c 2
 181 583 l 1
EndSplineSet
KernsSLIF: 55 -36 1 0 49 -70 1 0 52 -8 1 0
EndChar
StartChar: six
Encoding: 54 54 23
Width: 500
Flags: W
HStem: -14 28<256 280> 382 46<242 280>
VStem: 34 93<257 291> 378 90<185 219>
Fore
446 684 m 1
 448 668 l 1
 291 642 179 534 152 383 c 1
 215 421 236 428 280 428 c 0
 395 428 468 347 468 219 c 0
 468 81 382 -14 258 -14 c 0
 196 -14 142 10 104 54 c 0
 61 104 34 192 34 279 c 0
 34 413 93 527 201 604 c 0
 274 655 332 674 446 684 c 1
242 382 m 0
 207 382 176 373 155 357 c 0
 135 342 127 314 127 263 c 0
 127 108 181 14 269 14 c 0
 339 14 378 75 378 185 c 0
 378 310 328 382 242 382 c 0
EndSplineSet
KernsSLIF: 55 -29 1 0 49 -74 1 0 52 12 1 0
EndChar
StartChar: seven
Encoding: 55 55 24
Width: 500
Flags: W
HStem: -8 21G<172 237> 588 74<79 370>
DStem: 370 588 449 646 172 -8 237 -8
Fore
449 662 m 1
 449 646 l 1
 237 -8 l 1
 172 -8 l 1
 370 588 l 1
 153 588 l 2
 98 588 80 575 37 507 c 1
 20 515 l 1
 79 662 l 1
 449 662 l 1
EndSplineSet
KernsSLIF: 50 -31 1 0 51 -35 1 0 54 -46 1 0 55 -20 1 0 46 -79 1 0 49 -56 1 0 52 -63 1 0 53 -59 1 0 56 -40 1 0 44 -72 1 0 58 -68 1 0
EndChar
StartChar: eight
Encoding: 56 56 25
Width: 500
Flags: W
HStem: -14 28<242 274> 648 28<231 261>
VStem: 56 76<145 163> 355 69<516 551> 369 76<124 155>
Fore
290 371 m 1xf0
 411 281 445 232 445 155 c 0xe8
 445 52 368 -14 248 -14 c 0
 135 -14 56 54 56 151 c 0
 56 219 78 250 186 332 c 1
 81 424 62 453 62 518 c 0
 62 609 143 676 252 676 c 0
 352 676 424 616 424 534 c 0
 424 466 389 424 290 371 c 1xf0
272 268 m 2
 212 312 l 1
 154 265 132 223 132 159 c 0
 132 72 183 14 259 14 c 0
 324 14 369 59 369 124 c 0
 369 180 345 216 272 268 c 2
261 389 m 1
 265 392 265 392 270 395 c 0
 327 433 355 478 355 535 c 0xf0
 355 604 312 648 244 648 c 0
 181 648 136 607 136 549 c 0
 136 493 172 447 261 389 c 1
EndSplineSet
KernsSLIF: 55 -15 1 0 49 -64 1 0
EndChar
StartChar: nine
Encoding: 57 57 26
Width: 500
Flags: W
HStem: 237 43<210 246> 648 28<221 246>
VStem: 30 92<440 474> 362 97<355 411>
Fore
59 -22 m 1
 56 -2 l 1
 208 24 319 131 360 294 c 1
 307 253 265 237 210 237 c 0
 102 237 30 318 30 440 c 0
 30 575 119 676 238 676 c 0
 367 676 459 559 459 394 c 0
 459 259 398 135 294 59 c 0
 226 10 171 -9 59 -22 c 1
362 355 m 2
 362 394 l 2
 362 562 317 648 230 648 c 0
 201 648 176 637 159 617 c 0
 138 591 122 531 122 474 c 0
 122 355 170 280 246 280 c 0
 282 280 319 293 347 317 c 0
 358 326 362 335 362 355 c 2
EndSplineSet
KernsSLIF: 55 -6 1 0 49 -63 1 0 52 -7 1 0
EndChar
StartChar: colon
Encoding: 58 58 27
Width: 278
Flags: W
HStem: -11 111<128 146> 348 111<128 146>
Fore
136 459 m 0
 166 459 192 433 192 402 c 0
 192 373 166 348 135 348 c 0
 106 348 81 373 81 402 c 0
 81 433 106 459 136 459 c 0
136 100 m 0
 166 100 192 74 192 43 c 0
 192 14 166 -11 135 -11 c 0
 106 -11 81 14 81 43 c 0
 81 74 106 100 136 100 c 0
EndSplineSet
EndChar
StartChar: semicolon
Encoding: 59 59 28
Width: 278
Flags: W
HStem: -6 108<139 145> 348 111<127 145>
VStem: 180 39<-16 13>
Fore
107 -141 m 1
 98 -122 l 1
 152 -85 180 -48 180 -16 c 0
 180 -8 174 -2 166 -2 c 0
 165 -2 165 -2 158 -4 c 0
 152 -5 145 -6 139 -6 c 0
 102 -6 80 13 80 46 c 0
 80 80 104 102 139 102 c 0
 184 102 219 63 219 13 c 0
 219 -47 176 -107 107 -141 c 1
136 459 m 0
 166 459 192 433 192 402 c 0
 192 373 166 348 135 348 c 0
 106 348 81 373 81 402 c 0
 81 433 106 459 136 459 c 0
EndSplineSet
EndChar
StartChar: less
Encoding: 60 60 29
Width: 564
Flags: W
DStem: 28 220 116 253 536 -10 536 62 536 516 536 444 28 286 116 253
Fore
536 -10 m 1
 28 220 l 1
 28 286 l 1
 536 516 l 1
 536 444 l 1
 116 253 l 1
 536 62 l 1
 536 -10 l 1
EndSplineSet
EndChar
StartChar: equal
Encoding: 61 61 30
Width: 564
Flags: W
HStem: 120 66<30 534> 320 66<30 534>
Fore
534 386 m 1
 534 320 l 1
 30 320 l 1
 30 386 l 1
 534 386 l 1
534 186 m 1
 534 120 l 1
 30 120 l 1
 30 186 l 1
 534 186 l 1
EndSplineSet
EndChar
StartChar: greater
Encoding: 62 62 31
Width: 564
Flags: W
DStem: 28 444 28 516 448 253 536 286 448 253 536 220 28 62 28 -10
Fore
28 -10 m 1
 28 62 l 1
 448 253 l 1
 28 444 l 1
 28 516 l 1
 536 286 l 1
 536 220 l 1
 28 -10 l 1
EndSplineSet
EndChar
StartChar: question
Encoding: 63 63 32
Width: 444
Flags: W
HStem: -8 107<226 246> 469 21G<100.5 128> 646 30<211 230>
VStem: 68 89<510 531> 184 107<39 46> 322 92<503 537>
Fore
244 164 m 1
 227 164 l 1
 228 208 238 257 257 306 c 1
 285 370 l 2
 309 425 322 480 322 526 c 0
 322 593 274 646 214 646 c 0
 165 646 119 616 119 584 c 0
 119 576 124 567 136 553 c 0
 151 536 157 524 157 510 c 0
 157 486 140 469 116 469 c 0
 85 469 68 491 68 531 c 0
 68 614 138 676 230 676 c 0
 284 676 343 653 378 618 c 0
 401 595 414 559 414 521 c 0
 414 480 401 444 369 395 c 0
 355 374 355 374 309 318 c 0
 272 271 255 231 244 164 c 1
237 99 m 0
 266 99 291 74 291 44 c 0
 291 14 268 -8 236 -8 c 0
 206 -8 184 14 184 43 c 0
 184 75 207 99 237 99 c 0
EndSplineSet
EndChar
StartChar: at
Encoding: 64 64 33
Width: 921
Flags: W
HStem: -14 39<467 501> 144 43<409 452> 645 31<467 501>
VStem: 116 84<305 339> 321 71<254 274> 769 40<369 387>
Fore
688 73 m 1
 700 43 l 1
 603 -1 553 -14 483 -14 c 0
 276 -14 116 134 116 326 c 0
 116 521 278 676 481 676 c 0
 666 676 809 548 809 383 c 0
 809 254 724 143 625 143 c 0
 577 143 540 172 534 216 c 1
 500 171 453 144 409 144 c 0
 360 144 321 193 321 256 c 0
 321 329 352 405 405 458 c 0
 439 492 474 508 517 508 c 0
 552 508 567 497 589 456 c 1
 599 494 l 1
 668 494 l 1
 603 240 l 1
 602 234 601 229 601 222 c 0
 601 191 614 176 640 176 c 0
 706 176 769 273 769 373 c 0
 769 522 639 645 482 645 c 0
 409 645 342 618 293 569 c 0
 236 510 200 416 200 323 c 0
 200 149 322 25 492 25 c 0
 559 25 610 38 688 73 c 1
531 464 m 0
 507 466 472 446 444 414 c 0
 410 376 392 326 392 272 c 0
 392 220 415 187 452 187 c 0
 479 187 508 209 527 245 c 0
 553 292 570 351 572 399 c 0
 574 438 559 462 531 464 c 0
EndSplineSet
EndChar
StartChar: A
Encoding: 65 65 34
Width: 722
Flags: W
HStem: 0 19<15 39 213 213 451 473.279 451 504 691 706> 216 41<216 461> 654 20G<347 367>
DStem: 331 532 367 674 447 257 616 106 347 674 331 532 139 183 216 257 347 674 199 216 139 183 153 99 461 216 367 674 502 120 616 106
Fore
706 19 m 1
 706 0 l 1
 451 0 l 1
 451 19 l 1
 504 20 521 28 521 53 c 0
 521 67 514 93 502 120 c 2
 461 216 l 1
 199 216 l 1
 153 99 l 2
 148 86 145 72 145 60 c 0
 145 32 165 19 213 19 c 1
 213 0 l 1
 15 0 l 1
 15 19 l 1
 63 21 75 37 139 183 c 1
 347 674 l 1
 367 674 l 1
 616 106 l 1
 651 32 661 22 706 19 c 1
216 257 m 1
 447 257 l 1
 331 532 l 1
 216 257 l 1
EndSplineSet
KernsSLIF: 121 -83 0 0 119 -73 0 0 118 -81 0 0 117 -28 0 0 116 -20 0 0 39 -116 0 0 186 -91 0 0 113 -21 0 0 46 -10 0 0 111 -40 0 0 45 -23 0 0 172 -74 0 0 171 -64 0 0 103 -20 0 0 101 -27 0 0 100 -28 0 0 44 -3 0 0 332 -29 0 0 99 -29 0 0 98 -20 0 0 97 -6 0 0 89 -81 0 0 87 -113 0 0 86 -131 0 0 300 -62 0 0 298 -62 0 0 301 -62 0 0 299 -62 0 0 85 -62 0 0 84 -54 0 0 81 -60 0 0 286 -60 0 0 79 -60 0 0 71 -57 0 0 264 -57 0 0 67 -51 0 0
EndChar
StartChar: B
Encoding: 66 66 35
Width: 662
Flags: W
HStem: 0 19<12 39.6667> 0 37<251 346> 326 40<210 273.32> 625 37<12 301> 643 19<12 28.8>
VStem: 108 102<95 326 109 595> 452 102<479 497> 473 115<161.135 193>
Fore
12 662 m 1x35
 292 662 l 2
 465 662 554 604 554 492 c 0x36
 554 451 539 414 514 392 c 0
 490 371 469 361 417 348 c 1
 482 332 509 320 539 293 c 0
 570 264 588 224 588 180 c 0
 588 132 568 87 532 55 c 0
 495 21 424 0 346 0 c 2x75
 12 0 l 1
 12 19 l 1
 95 22 108 35 108 109 c 2
 108 553 l 2
 108 627 96 638 12 643 c 1xad
 12 662 l 1x35
210 326 m 1
 210 78 l 2
 210 46 224 37 273 37 c 0
 339 37 380 45 412 63 c 0
 452 86 473 125 473 179 c 0x65
 473 242 446 282 389 306 c 0
 353 321 307 326 210 326 c 1
210 366 m 1
 305 366 l 2
 399 366 452 410 452 488 c 0
 452 577 391 625 276 625 c 2
 232 625 l 2x36
 217 625 210 616 210 595 c 2
 210 366 l 1
EndSplineSet
KernsSLIF: 89 -68 0 0 87 -59 0 0 86 -65 0 0 233 -23 0 0 288 -24 0 0 286 -24 0 0 289 -24 0 0 287 -24 0 0 234 -18 0 0 79 -24 0 0 261 -51 0 0 262 -51 0 0 256 -51 0 0 259 -51 0 0 257 -51 0 0 225 -44 0 0 65 -51 0 0
EndChar
StartChar: C
Encoding: 67 67 36
Width: 667
Flags: W
HStem: -14 44<360 392> 450 21G<597 620> 636 40<359 392>
VStem: 28 116<305 355>
Fore
620 450 m 1
 597 450 l 1
 578 515 563 543 531 575 c 0
 491 615 439 636 382 636 c 0
 237 636 144 519 144 338 c 0
 144 227 175 137 230 88 c 0
 273 50 329 30 392 30 c 0
 475 30 541 60 615 131 c 1
 633 113 l 1
 572 32 473 -14 360 -14 c 0
 261 -14 169 24 109 89 c 0
 58 146 28 232 28 325 c 0
 28 435 66 528 136 590 c 0
 198 645 281 676 363 676 c 0
 410 676 460 668 509 652 c 0
 524 646 539 643 548 643 c 0
 568 643 584 655 590 676 c 1
 611 676 l 1
 620 450 l 1
EndSplineSet
KernsSLIF: 286 -12 0 0 287 -12 0 0 79 -12 0 0 75 -10 0 0 72 -2 0 0 262 -23 0 0 256 -23 0 0 257 -23 0 0 225 -15 0 0 65 -23 0 0
EndChar
StartChar: D
Encoding: 68 68 37
Width: 718
Flags: W
HStem: 0 19<12 27.2> 0 37<235 296> 625 37<12 284> 643 19<12 23.2857>
VStem: 100 102<87 586> 572 109<319 353>
Fore
100 109 m 2x8c
 100 553 l 2
 100 627 91 636 12 643 c 1x9c
 12 662 l 1
 282 662 l 2
 419 662 528 626 596 557 c 0
 651 502 681 424 681 334 c 0
 681 237 644 148 579 89 c 0
 517 33 412 0 296 0 c 2x6c
 12 0 l 1
 12 19 l 1
 88 24 100 37 100 109 c 2x8c
202 586 m 2
 202 78 l 2
 202 46 214 37 254 37 c 0
 341 37 399 49 450 78 c 0
 531 125 572 209 572 327 c 0
 572 435 531 521 453 575 c 0
 405 609 340 625 254 625 c 0x6c
 213 625 202 617 202 586 c 2
EndSplineSet
KernsSLIF: 89 -74 0 0 88 -64 0 0 87 -57 0 0 86 -71 0 0 84 -10 0 0 74 -41 0 0 261 -67 0 0 262 -67 0 0 258 -67 0 0 256 -67 0 0 259 -67 0 0 257 -67 0 0 65 -67 0 0
EndChar
StartChar: E
Encoding: 69 69 38
Width: 611
Flags: W
HStem: 0 19<12 26.6> 0 37<283 552> 327 41<201 381> 443 20G<465 488> 519 143<12 546> 624 38<12 397> 643 19<12 24.3333>
VStem: 99 102<95 327 109 590>
Fore
597 169 m 1x75
 552 0 l 1x75
 12 0 l 1
 12 19 l 1
 85 24 99 39 99 109 c 2
 99 553 l 2
 99 623 86 637 12 643 c 1xb3
 12 662 l 1
 543 662 l 1
 546 519 l 1
 521 519 l 1x39
 504 609 482 624 369 624 c 2
 234 624 l 2
 207 624 201 618 201 590 c 2
 201 368 l 1
 355 368 l 2
 402 368 430 376 443 393 c 0
 454 407 458 422 465 463 c 1
 488 463 l 1
 488 231 l 1
 465 231 l 1
 452 314 437 327 355 327 c 2
 201 327 l 1
 201 80 l 2
 201 63 203 52 208 49 c 1
 215 42 257 37 306 37 c 2
 333 37 l 2
 476 37 519 61 569 169 c 1
 597 169 l 1x75
EndSplineSet
EndChar
StartChar: F
Encoding: 70 70 39
Width: 556
Flags: W
HStem: 0 19<12 27.2 272.75 292> 327 41<201 371> 443 20G<456 479> 519 143<12 546> 624 38<12 397> 643 19<12 24.3333>
VStem: 99 102<95 327 120 590>
Fore
479 231 m 1xea
 456 231 l 1
 444 312 427 327 346 327 c 2
 201 327 l 1
 201 109 l 2
 201 37 215 23 292 19 c 1
 292 0 l 1
 12 0 l 1
 12 19 l 1
 88 24 99 37 99 120 c 2
 99 553 l 2
 99 623 86 637 12 643 c 1xe6
 12 662 l 1
 543 662 l 1
 546 519 l 1
 521 519 l 1xf2
 504 609 482 624 369 624 c 2
 233 624 l 2
 206 624 201 618 201 590 c 2
 201 368 l 1
 346 368 l 2
 426 368 444 383 456 463 c 1
 479 463 l 1
 479 231 l 1xea
EndSplineSet
KernsSLIF: 117 -11 0 0 114 -10 0 0 46 -58 0 0 249 -21 0 0 250 -21 0 0 351 -21 0 0 352 -21 0 0 111 -21 0 0 106 -20 0 0 105 -13 0 0 45 3 0 0 335 -19 0 0 101 -19 0 0 44 -51 0 0 328 -34 0 0 241 -36 0 0 322 -10 0 0 323 -34 0 0 97 -34 0 0 286 -10 0 0 79 -10 0 0 74 -13 0 0 261 -71 0 0 262 -71 0 0 258 -71 0 0 256 -71 0 0 259 -71 0 0 257 -71 0 0 65 -71 0 0
EndChar
StartChar: G
Encoding: 71 71 40
Width: 722
Flags: W
HStem: -14 40<383 411> 336 18<454 468.333 697.4 709> 465 21G<607 630> 636 40<373 401>
VStem: 32 114<305 354> 542 97<81 261>
Fore
709 354 m 1
 709 336 l 1
 651 331 639 318 639 259 c 2
 639 56 l 1
 599 21 474 -14 388 -14 c 0
 278 -14 182 24 115 93 c 0
 59 152 32 227 32 325 c 0
 32 529 175 676 375 676 c 0
 420 676 466 668 511 653 c 0
 529 646 545 643 555 643 c 0
 576 643 594 657 600 676 c 1
 622 676 l 1
 630 465 l 1
 607 465 l 1
 582 526 566 553 536 581 c 0
 497 617 448 636 392 636 c 0
 324 636 262 609 218 560 c 0
 174 511 146 420 146 326 c 0
 146 140 246 26 409 26 c 0
 481 26 542 53 542 85 c 2
 542 247 l 2
 542 290 536 313 521 322 c 0
 509 330 497 333 454 336 c 1
 454 354 l 1
 709 354 l 1
EndSplineSet
KernsSLIF: 89 -26 0 0 87 -18 0 0 86 -23 0 0 84 -21 0 0 261 -26 0 0 262 -26 0 0 258 -26 0 0 256 -26 0 0 259 -26 0 0 257 -26 0 0 225 -19 0 0 65 -26 0 0
EndChar
StartChar: H
Encoding: 72 72 41
Width: 715
Flags: W
HStem: 0 19<12 27.6 277.5 290 417 432.6 682.5 695> 315 44<202 505> 643 19<12 23 279 290 417 428 684 695>
VStem: 100 102<95 315 120 577> 505 102<95 315 359 577>
Fore
202 359 m 1
 505 359 l 1
 505 553 l 2
 505 625 494 636 417 643 c 1
 417 662 l 1
 695 662 l 1
 695 643 l 1
 618 636 607 625 607 553 c 2
 607 109 l 2
 607 38 620 25 695 19 c 1
 695 0 l 1
 417 0 l 1
 417 19 l 1
 495 24 505 36 505 120 c 2
 505 315 l 1
 202 315 l 1
 202 109 l 2
 202 38 215 25 290 19 c 1
 290 0 l 1
 12 0 l 1
 12 19 l 1
 90 24 100 36 100 120 c 2
 100 553 l 2
 100 625 89 636 12 643 c 1
 12 662 l 1
 290 662 l 1
 290 643 l 1
 213 636 202 625 202 553 c 2
 202 359 l 1
EndSplineSet
EndChar
StartChar: I
Encoding: 73 73 42
Width: 329
Flags: W
HStem: 0 19<12 40 281.667 309> 643 19<12 29 288 309>
VStem: 109 102<109 577>
Fore
109 109 m 2
 109 553 l 2
 109 627 97 638 12 643 c 1
 12 662 l 1
 309 662 l 1
 309 643 l 1
 225 639 211 626 211 553 c 2
 211 109 l 2
 211 36 227 22 309 19 c 1
 309 0 l 1
 12 0 l 1
 12 19 l 1
 96 22 109 34 109 109 c 2
EndSplineSet
EndChar
StartChar: J
Encoding: 74 74 43
Width: 389
Flags: W
HStem: -14 38<109 138> 643 19<83 96.6667 356.5 370>
VStem: 176 102<90 579>
Fore
278 553 m 2
 278 183 l 2
 278 58 217 -14 109 -14 c 0
 51 -14 10 16 10 58 c 0
 10 85 32 108 59 108 c 0
 85 108 101 92 111 57 c 0
 118 32 124 24 138 24 c 0
 164 24 176 45 176 90 c 2
 176 553 l 2
 176 626 165 637 83 643 c 1
 83 662 l 1
 370 662 l 1
 370 643 l 1
 289 637 278 626 278 553 c 2
EndSplineSet
KernsSLIF: 262 -53 0 0 256 -53 0 0 225 -46 0 0 65 -53 0 0
EndChar
StartChar: K
Encoding: 75 75 44
Width: 700
Flags: W
HStem: 0 19<12 27.8 278.4 294 396 408 649 701> 642 20<391 417>
VStem: 102 102<95 296 120 577>
Fore
391 643 m 1
 391 662 l 1
 653 662 l 1
 653 643 l 1
 585 638 569 630 501 565 c 1
 311 377 l 1
 544 127 l 2
 635 30 649 20 701 19 c 1
 701 0 l 1
 396 0 l 1
 396 19 l 1
 408 20 419 20 424 20 c 0
 452 21 466 28 466 42 c 0
 466 66 412 137 336 212 c 2
 230 317 l 1
 204 296 l 1
 204 109 l 2
 204 36 216 24 294 19 c 1
 294 0 l 1
 12 0 l 1
 12 19 l 1
 91 24 102 37 102 120 c 2
 102 553 l 2
 102 624 90 637 12 643 c 1
 12 662 l 1
 296 662 l 1
 296 643 l 1
 215 637 204 626 204 553 c 2
 204 348 l 1
 381 509 l 2
 436 560 459 590 459 612 c 0
 459 632 447 640 417 642 c 0
 413 642 403 642 391 643 c 1
EndSplineSet
KernsSLIF: 121 -86 0 0 362 -19 0 0 117 -19 0 0 351 -31 0 0 352 -31 0 0 111 -31 0 0 45 -63 0 0 101 -19 0 0 328 2 0 0 322 2 0 0 97 2 0 0 83 1 0 0 286 -51 0 0 287 -51 0 0 234 -44 0 0 79 -51 0 0 71 -49 0 0 67 -43 0 0
EndChar
StartChar: L
Encoding: 76 76 45
Width: 611
Flags: W
HStem: 0 19<12 26.6> 0 39<251 550> 643 19<12 24.3333 278.2 294>
VStem: 99 102<94 577>
Fore
573 174 m 1x70
 598 174 l 1
 550 0 l 1x70
 12 0 l 1
 12 19 l 1xb0
 85 24 99 39 99 109 c 2
 99 553 l 2
 99 623 86 637 12 643 c 1
 12 662 l 1
 294 662 l 1
 294 643 l 1
 215 638 201 624 201 553 c 2
 201 80 l 2
 201 45 214 39 287 39 c 2
 354 39 l 2
 437 39 492 57 527 96 c 0
 542 113 556 136 573 174 c 1x70
EndSplineSet
KernsSLIF: 121 -56 0 0 362 -10 0 0 117 -10 0 0 39 -125 0 0 186 -100 0 0 45 25 0 0 89 -100 0 0 87 -89 0 0 86 -115 0 0 298 -26 0 0 85 -26 0 0 84 -73 0 0 83 5 0 0 290 -3 0 0 288 -3 0 0 286 -3 0 0 289 -3 0 0 287 -3 0 0 79 -3 0 0 67 2 0 0 225 6 0 0
EndChar
StartChar: M
Encoding: 77 77 46
Width: 883
Flags: W
HStem: 0 19<12 25.8333 227.75 247 583 598.8 848.4 863> 643 19<14 30.4 850.667 863>
VStem: 109 44<147 550> 674 102<95 573>
DStem: 153 550 212 662 404 0 443 157 664 662 674 573 443 157 418 0
Fore
674 573 m 1
 418 0 l 1
 404 0 l 1
 153 550 l 1
 153 147 l 2
 153 46 170 23 247 19 c 1
 247 0 l 1
 12 0 l 1
 12 19 l 1
 95 25 109 44 109 147 c 2
 109 553 l 2
 109 626 96 638 14 643 c 1
 14 662 l 1
 212 662 l 1
 443 157 l 1
 664 662 l 1
 863 662 l 1
 863 643 l 1
 789 637 776 624 776 553 c 2
 776 109 l 2
 776 38 790 24 863 19 c 1
 863 0 l 1
 583 0 l 1
 583 19 l 1
 662 24 674 37 674 120 c 2
 674 573 l 1
EndSplineSet
EndChar
StartChar: N
Encoding: 78 78 47
Width: 722
Flags: W
HStem: 0 19<12 25.8333 227.75 247> 643 19<12 33.0487 472 484.667 697.5 707>
VStem: 109 44<147 539> 568 44<178 541>
DStem: 153 539 183 662 595 -11 568 178
Fore
612 -11 m 1
 595 -11 l 1
 153 539 l 1
 153 147 l 2
 153 46 170 23 247 19 c 1
 247 0 l 1
 12 0 l 1
 12 19 l 1
 95 25 109 44 109 147 c 2
 109 588 l 1
 69 635 55 643 12 643 c 1
 12 662 l 1
 183 662 l 1
 568 178 l 1
 568 515 l 2
 568 577 559 613 539 627 c 0
 524 636 510 640 472 643 c 1
 472 662 l 1
 707 662 l 1
 707 643 l 1
 669 639 655 635 641 625 c 0
 622 612 612 575 612 515 c 2
 612 -11 l 1
EndSplineSet
KernsSLIF: 362 -25 0 0 117 -25 0 0 46 -21 0 0 249 -20 0 0 351 -21 0 0 352 -21 0 0 111 -21 0 0 335 -17 0 0 101 -17 0 0 44 -14 0 0 328 -27 0 0 241 -27 0 0 322 -27 0 0 323 -27 0 0 97 -27 0 0 286 -20 0 0 287 -20 0 0 79 -20 0 0 71 -19 0 0 264 -16 0 0 67 -16 0 0 262 -28 0 0 256 -28 0 0 257 -28 0 0 225 -21 0 0 65 -28 0 0
EndChar
StartChar: O
Encoding: 79 79 48
Width: 722
Flags: W
HStem: -14 36<353 371> 640 36<361 371>
VStem: 34 114<305 355> 574 114<305 355>
Fore
361 676 m 0
 457 676 541 640 604 571 c 0
 659 511 688 426 688 327 c 0
 688 126 552 -14 355 -14 c 0
 267 -14 178 25 120 88 c 0
 66 146 34 237 34 331 c 0
 34 532 170 676 361 676 c 0
361 640 m 0
 306 640 257 618 218 575 c 0
 176 528 148 431 148 329 c 0
 148 218 181 117 233 71 c 0
 268 40 313 22 359 22 c 0
 412 22 457 40 492 75 c 0
 515 98 532 123 541 148 c 0
 561 200 574 269 574 328 c 0
 574 447 543 541 489 590 c 0
 453 622 407 640 361 640 c 0
EndSplineSet
KernsSLIF: 89 -72 0 0 88 -55 0 0 87 -54 0 0 86 -69 0 0 84 -9 0 0 262 -58 0 0 256 -58 0 0 257 -58 0 0 225 -50 0 0 65 -58 0 0
EndChar
StartChar: P
Encoding: 80 80 49
Width: 552
Flags: W
HStem: 0 19<12 22.8571 265.667 292> 288 40<230 278> 625 37<12 257> 643 19<12 21.25>
VStem: 96 102<95 290 120 591> 429 109<463 497>
Fore
198 291 m 1xdc
 198 109 l 2
 198 36 213 22 292 19 c 1
 292 0 l 1
 12 0 l 1
 12 19 l 1
 88 26 96 36 96 120 c 2
 96 553 l 2
 96 625 86 635 12 643 c 1xdc
 12 662 l 1xec
 276 662 l 2
 370 662 457 634 497 590 c 0
 524 561 538 523 538 481 c 0
 538 415 502 354 442 322 c 0
 399 298 345 288 267 288 c 0
 241 288 224 289 198 291 c 1xdc
198 591 m 2
 198 331 l 1
 221 329 235 328 255 328 c 0
 370 328 429 378 429 475 c 0
 429 578 367 625 232 625 c 0xec
 205 625 198 618 198 591 c 2
EndSplineSet
KernsSLIF: 46 -101 0 0 249 -25 0 0 250 -25 0 0 351 -25 0 0 352 -25 0 0 111 -25 0 0 45 -37 0 0 335 -23 0 0 101 -23 0 0 44 -94 0 0 328 -17 0 0 241 -18 0 0 322 -17 0 0 323 -17 0 0 97 -17 0 0 74 -52 0 0 262 -90 0 0 256 -90 0 0 257 -90 0 0 225 -91 0 0 65 -90 0 0
EndChar
StartChar: Q
Encoding: 81 81 50
Width: 722
Flags: W
HStem: -178 200<361 660> -177 18<663 701> 640 36<353 371>
VStem: 34 114<301 351> 574 114<301 351>
Fore
701 -159 m 1x78
 701 -177 l 1
 695 -177 l 2x78
 684 -178 675 -178 660 -178 c 0xb8
 501 -178 380 -135 312 -56 c 2
 265 -1 l 1
 194 23 162 43 123 85 c 0
 64 149 34 231 34 329 c 0
 34 532 170 676 361 676 c 0
 552 676 688 532 688 331 c 0
 688 220 650 129 576 63 c 0
 530 23 494 6 426 -7 c 1
 507 -112 587 -156 701 -159 c 1x78
364 640 m 0
 306 640 259 619 218 575 c 0
 177 529 148 431 148 335 c 0
 148 218 180 118 233 71 c 0
 269 39 313 22 361 22 c 0xb8
 416 22 468 45 505 86 c 0
 545 132 574 234 574 333 c 0
 574 446 542 542 488 590 c 0
 453 621 407 640 364 640 c 0
EndSplineSet
EndChar
StartChar: R
Encoding: 82 82 51
Width: 662
Flags: W
HStem: 0 19<12 24.5 273.6 289 641.333 654> 625 37<12 269> 643 19<12 21.375>
VStem: 97 102<95 307 120 589> 433 109<479 497>
Fore
654 19 m 1xb8
 654 0 l 1
 493 0 l 1
 255 308 l 1
 199 306 l 1
 199 109 l 2
 199 37 212 24 289 19 c 1
 289 0 l 1
 12 0 l 1
 12 19 l 1
 87 25 97 37 97 120 c 2
 97 553 l 2
 97 624 87 635 12 643 c 1xb8
 12 662 l 1xd8
 288 662 l 2
 382 662 465 636 503 595 c 0
 529 566 542 529 542 486 c 0
 542 439 523 397 491 371 c 0
 458 344 428 332 361 319 c 1
 567 66 l 1
 596 32 616 22 654 19 c 1xb8
199 589 m 2
 199 343 l 1
 295 345 330 351 376 377 c 0
 412 396 433 438 433 488 c 0
 433 582 375 625 250 625 c 0xd8
 210 625 199 617 199 589 c 2
EndSplineSet
KernsSLIF: 121 -37 0 0 362 -24 0 0 363 -24 0 0 117 -24 0 0 250 -31 0 0 351 -36 0 0 352 -36 0 0 111 -36 0 0 45 -52 0 0 335 -23 0 0 101 -23 0 0 328 -2 0 0 241 -5 0 0 322 -2 0 0 323 -2 0 0 97 -2 0 0 89 -76 0 0 87 -67 0 0 86 -73 0 0 298 -55 0 0 85 -56 0 0 84 -34 0 0 286 -45 0 0 287 -45 0 0 234 -39 0 0 79 -45 0 0 71 -44 0 0 264 -41 0 0 67 -41 0 0
EndChar
StartChar: S
Encoding: 83 83 52
Width: 556
Flags: W
HStem: -14 36<262 287> 463 21G<444 469> 635 41<243 263>
VStem: 71 86<505 542> 390 101<135 168>
Fore
447 676 m 1
 469 463 l 1
 444 463 l 1
 428 522 414 548 383 580 c 0
 348 616 306 635 261 635 c 0
 199 635 157 597 157 542 c 0
 157 488 199 444 304 386 c 0
 436 315 491 250 491 168 c 0
 491 65 402 -14 287 -14 c 0
 247 -14 207 -6 169 9 c 0
 150 16 133 20 122 20 c 0
 107 20 95 6 94 -13 c 1
 72 -13 l 1
 42 199 l 1
 65 199 l 1
 115 77 178 22 267 22 c 0
 340 22 390 68 390 135 c 0
 390 159 385 180 376 193 c 0
 351 231 299 272 227 310 c 0
 115 369 71 425 71 505 c 0
 71 557 89 599 124 630 c 0
 157 659 201 676 244 676 c 0
 276 676 313 668 350 654 c 1
 367 646 384 642 394 642 c 0
 411 642 422 653 426 676 c 1
 447 676 l 1
EndSplineSet
KernsSLIF: 116 -20 0 0 89 -30 0 0 87 -21 0 0 86 -27 0 0 84 -19 0 0 262 -37 0 0 256 -37 0 0 257 -37 0 0 225 -30 0 0 65 -37 0 0
EndChar
StartChar: T
Encoding: 84 84 53
Width: 611
Flags: W
HStem: 0 19<160 176.6 431.5 452> 620 42<23 254 23 434>
VStem: 254 102<95 620>
Fore
254 620 m 1
 200 620 l 2
 88 620 65 601 41 492 c 1
 17 492 l 1
 23 662 l 1
 587 662 l 1
 593 492 l 1
 569 492 l 1
 546 602 524 620 410 620 c 2
 356 620 l 1
 356 109 l 2
 356 36 370 23 452 19 c 1
 452 0 l 1
 160 0 l 1
 160 19 l 1
 243 24 254 35 254 120 c 2
 254 620 l 1
EndSplineSet
KernsSLIF: 121 -102 0 0 119 -106 0 0 118 -105 0 0 117 -93 0 0 59 -87 0 0 115 -73 0 0 114 -50 0 0 46 -82 0 0 249 -89 0 0 111 -90 0 0 106 -25 0 0 105 -18 0 0 45 -73 0 0 172 -125 0 0 171 -114 0 0 103 -91 0 0 101 -86 0 0 44 -74 0 0 58 -87 0 0 99 -87 0 0 241 -80 0 0 97 -77 0 0 89 11 0 0 87 20 0 0 86 14 0 0 83 -10 0 0 290 -10 0 0 233 -10 0 0 288 -10 0 0 286 -10 0 0 289 -10 0 0 287 -10 0 0 234 -4 0 0 79 -10 0 0 74 -18 0 0 71 -11 0 0 67 -8 0 0 261 -53 0 0 262 -53 0 0 258 -53 0 0 256 -53 0 0 259 -53 0 0 257 -53 0 0 225 -45 0 0 65 -53 0 0
EndChar
StartChar: U
Encoding: 85 85 54
Width: 722
Flags: W
HStem: -14 44<353 383> 643 19<14 27.1667 285.571 297 473 486 696.8 705>
VStem: 104 102<209 579> 567 44<225 547>
Fore
611 515 m 2
 611 254 l 2
 611 177 602 131 578 89 c 0
 539 21 464 -14 355 -14 c 0
 185 -14 104 68 104 241 c 2
 104 553 l 2
 104 626 93 637 14 643 c 1
 14 662 l 1
 297 662 l 1
 297 643 l 1
 217 636 206 625 206 553 c 2
 206 233 l 2
 206 170 213 133 231 101 c 0
 258 54 307 30 378 30 c 0
 453 30 517 61 544 109 c 0
 560 139 567 177 567 245 c 2
 567 515 l 2
 567 615 551 637 473 643 c 1
 473 662 l 1
 705 662 l 1
 705 643 l 1
 623 633 611 617 611 515 c 2
EndSplineSet
KernsSLIF: 114 -27 0 0 46 -37 0 0 112 -28 0 0 110 -31 0 0 109 -33 0 0 44 -31 0 0 261 -65 0 0 262 -65 0 0 256 -65 0 0 259 -65 0 0 257 -65 0 0 225 -58 0 0 65 -65 0 0
EndChar
StartChar: V
Encoding: 86 86 55
Width: 722
Flags: W
HStem: -11 21G<368 383> 641 21<16 257>
DStem: 122 538 248 499 368 -11 399 161 546 528 605 550 399 161 383 -11
Fore
697 662 m 1
 697 643 l 1
 649 640 638 629 605 550 c 1
 383 -11 l 1
 368 -11 l 1
 122 538 l 1
 79 627 65 641 16 643 c 1
 16 662 l 1
 282 662 l 1
 282 643 l 1
 268 642 257 641 253 641 c 0
 221 639 207 629 207 610 c 0
 207 595 215 572 248 499 c 2
 399 161 l 1
 546 528 l 2
 558 558 565 585 565 601 c 0
 565 629 547 640 492 643 c 1
 492 662 l 1
 697 662 l 1
EndSplineSet
KernsSLIF: 121 -54 0 0 117 -51 0 0 59 -89 0 0 114 -56 0 0 46 -112 0 0 249 -88 0 0 111 -89 0 0 105 -20 0 0 45 -69 0 0 172 -119 0 0 171 -109 0 0 103 -101 0 0 101 -85 0 0 44 -105 0 0 58 -90 0 0 241 -89 0 0 97 -88 0 0 84 10 0 0 83 -47 0 0 290 -67 0 0 233 -65 0 0 288 -67 0 0 286 -67 0 0 289 -67 0 0 287 -67 0 0 79 -67 0 0 71 -66 0 0 67 -63 0 0 261 -124 0 0 262 -124 0 0 258 -124 0 0 256 -124 0 0 259 -124 0 0 257 -124 0 0 225 -104 0 0 65 -124 0 0
EndChar
StartChar: W
Encoding: 87 87 56
Width: 944
Flags: W
HStem: -11 21G<301 316 630 645> 643 19<5 15.2 233 250 313 333.888 313 580 526 580 734 744.2>
DStem: 108 526 196 565 301 -11 340 189 447 471 470 412 340 189 316 -11 470 412 530 527 630 -11 662 186
Fore
932 662 m 1
 932 643 l 1
 879 633 868 624 849 572 c 0
 740 278 730 250 645 -11 c 1
 630 -11 l 1
 470 412 l 1
 316 -11 l 1
 301 -11 l 1
 108 526 l 1
 71 620 56 638 5 643 c 1
 5 662 l 1
 250 662 l 1
 250 643 l 1
 199 640 185 633 185 611 c 0
 185 600 189 583 196 565 c 2
 340 189 l 1
 447 471 l 1
 414 553 l 1
 380 633 370 642 313 643 c 1
 313 662 l 1
 580 662 l 1
 580 643 l 1
 526 642 503 632 503 608 c 0
 503 597 509 578 518 557 c 0
 519 554 528 532 530 527 c 2
 662 186 l 1
 787 525 l 2
 797 553 803 579 803 600 c 0
 803 627 785 638 734 643 c 1
 734 662 l 1
 932 662 l 1
EndSplineSet
KernsSLIF: 121 -45 0 0 117 -43 0 0 59 -81 0 0 114 -47 0 0 46 -96 0 0 249 -75 0 0 111 -76 0 0 105 -13 0 0 45 -56 0 0 172 -107 0 0 171 -97 0 0 103 -91 0 0 101 -72 0 0 44 -89 0 0 58 -81 0 0 241 -81 0 0 97 -80 0 0 84 17 0 0 83 -41 0 0 290 -56 0 0 233 -55 0 0 288 -56 0 0 286 -56 0 0 289 -56 0 0 287 -56 0 0 79 -56 0 0 71 -56 0 0 67 -53 0 0 261 -113 0 0 262 -113 0 0 258 -113 0 0 256 -113 0 0 259 -113 0 0 257 -113 0 0 225 -98 0 0 65 -113 0 0
EndChar
StartChar: X
Encoding: 88 88 57
Width: 722
Flags: W
HStem: 0 19<10 22.75 228.5 243 407 419 695.167 704> 643 19<22 43.6667 296 324 458 485 680 696>
DStem: 312 326 338 288 155 133 219 140 338 288 401 367 433 148 593 93 488 542 547 549 375 404 401 367
Fore
696 662 m 1
 696 643 l 1
 632 639 612 627 547 549 c 1
 401 367 l 1
 593 93 l 1
 636 35 651 25 704 19 c 1
 704 0 l 1
 407 0 l 1
 407 19 l 1
 419 20 430 21 434 21 c 0
 468 22 484 32 484 50 c 0
 484 65 466 99 433 148 c 2
 338 288 l 1
 219 140 l 2
 182 94 167 69 167 54 c 0
 167 31 185 23 243 19 c 1
 243 0 l 1
 10 0 l 1
 10 19 l 1
 61 23 66 27 155 133 c 1
 312 326 l 1
 203 486 l 1
 105 625 87 640 22 643 c 1
 22 662 l 1
 324 662 l 1
 324 643 l 1
 296 642 l 2
 263 641 248 633 248 613 c 0
 248 591 272 548 333 463 c 2
 375 404 l 1
 488 542 l 2
 517 578 528 596 528 611 c 0
 528 634 512 641 458 643 c 1
 458 662 l 1
 696 662 l 1
EndSplineSet
KernsSLIF: 121 -96 0 0 117 -29 0 0 111 -41 0 0 45 -54 0 0 101 -28 0 0 97 -7 0 0 81 -61 0 0 286 -61 0 0 79 -61 0 0 67 -52 0 0
EndChar
StartChar: Y
Encoding: 89 89 58
Width: 722
Flags: W
HStem: 0 19<214 236.75 475.5 520 520 520> 642 20<22 301.985 484 505.892>
VStem: 315 102<95 294>
DStem: 184 486 248 569 315 294 396 347 539 573 565 529 396 347 417 303
Fore
703 662 m 1
 703 643 l 1
 652 639 626 617 565 529 c 1
 417 303 l 1
 417 109 l 2
 417 33 431 21 520 19 c 1
 520 0 l 1
 214 0 l 1
 214 19 l 1
 305 23 315 33 315 120 c 2
 315 294 l 1
 184 486 l 1
 84 627 70 641 22 643 c 1
 22 662 l 1
 302 662 l 1
 302 643 l 1
 291 642 281 642 277 642 c 0
 245 640 231 631 231 613 c 0
 231 602 237 585 248 569 c 2
 396 347 l 1
 539 573 l 2
 548 588 553 600 553 610 c 0
 553 634 536 642 484 643 c 1
 484 662 l 1
 703 662 l 1
EndSplineSet
KernsSLIF: 118 -86 0 0 117 -78 0 0 59 -108 0 0 46 -103 0 0 112 -88 0 0 249 -106 0 0 111 -107 0 0 105 -17 0 0 45 -98 0 0 172 -145 0 0 171 -135 0 0 103 -113 0 0 101 -103 0 0 44 -96 0 0 58 -109 0 0 241 -102 0 0 97 -99 0 0 84 13 0 0 83 -44 0 0 290 -69 0 0 233 -69 0 0 288 -69 0 0 286 -69 0 0 289 -69 0 0 287 -69 0 0 79 -69 0 0 71 -71 0 0 67 -68 0 0 261 -74 0 0 262 -74 0 0 258 -74 0 0 256 -74 0 0 259 -74 0 0 257 -74 0 0 225 -67 0 0 65 -74 0 0
EndChar
StartChar: Z
Encoding: 90 90 59
Width: 611
Flags: W
HStem: 0 38<145 573> 624 38<51 446>
DStem: 446 624 577 647 9 15 145 38
Fore
574 176 m 1
 597 176 l 1
 573 0 l 1
 9 0 l 1
 9 15 l 1
 446 624 l 1
 225 624 l 2
 159 624 114 610 91 581 c 0
 74 560 66 540 57 491 c 1
 31 491 l 1
 51 662 l 1
 577 662 l 1
 577 647 l 1
 145 38 l 1
 402 38 l 2
 459 38 503 52 527 77 c 0
 547 99 557 120 574 176 c 1
EndSplineSet
KernsSLIF: 121 -50 0 0 118 -48 0 0
EndChar
StartChar: bracketleft
Encoding: 91 91 60
Width: 333
Flags: W
HStem: -156 25<207 299> 637 25<88 299>
VStem: 88 76<-156 597>
Fore
299 -131 m 1
 299 -156 l 1
 88 -156 l 1
 88 662 l 1
 299 662 l 1
 299 637 l 1
 209 637 l 2
 177 637 164 624 164 593 c 2
 164 -79 l 2
 164 -114 180 -131 213 -131 c 2
 299 -131 l 1
EndSplineSet
EndChar
StartChar: backslash
Encoding: 92 92 61
Width: 278
Flags: W
HStem: -14 21G<219 287> 656 20G<-9 58>
DStem: -9 676 58 676 219 -14 287 -14
Fore
-9 676 m 1
 58 676 l 1
 287 -14 l 1
 219 -14 l 1
 -9 676 l 1
EndSplineSet
EndChar
StartChar: bracketright
Encoding: 93 93 62
Width: 333
Flags: W
HStem: -156 25<34 245> 637 25<34 131>
VStem: 169 76<-93 662>
Fore
34 -131 m 1
 124 -131 l 2
 155 -131 169 -118 169 -87 c 2
 169 585 l 2
 169 620 153 637 120 637 c 2
 34 637 l 1
 34 662 l 1
 245 662 l 1
 245 -156 l 1
 34 -156 l 1
 34 -131 l 1
EndSplineSet
EndChar
StartChar: asciicircum
Encoding: 94 94 63
Width: 469
Flags: W
HStem: 642 20G<205 265>
DStem: 205 662 235 586 24 297 92 297 235 586 265 662 378 297 446 297
Fore
92 297 m 1
 24 297 l 1
 205 662 l 1
 265 662 l 1
 446 297 l 1
 378 297 l 1
 235 586 l 1
 92 297 l 1
EndSplineSet
EndChar
StartChar: underscore
Encoding: 95 95 64
Width: 500
Flags: W
HStem: -125 50<0 500>
Fore
500 -125 m 1
 0 -125 l 1
 0 -75 l 1
 500 -75 l 1
 500 -125 l 1
EndSplineSet
EndChar
StartChar: quoteleft
Encoding: 96 8216 65
Width: 333
Flags: W
VStem: 115 39<522 551>
Fore
227 676 m 1
 236 657 l 1
 182 620 154 584 154 551 c 0
 154 543 160 537 168 537 c 0
 169 537 169 537 176 539 c 0
 182 540 189 541 195 541 c 0
 231 541 254 521 254 490 c 0
 254 456 230 433 195 433 c 0
 150 433 115 471 115 522 c 0
 115 582 160 643 227 676 c 1
EndSplineSet
KernsSLIF: 89 -26 1 0 87 -17 1 0 86 -23 1 0 84 -9 1 0 262 -110 1 0 256 -110 1 0 257 -110 1 0 225 -115 1 0 65 -110 1 0
EndChar
StartChar: a
Encoding: 97 97 66
Width: 444
Flags: W
HStem: -10 58<142 188> 436 24<209 226>
VStem: 37 88<97 125> 56 88<341 355> 287 81<104 327>
Fore
442 66 m 1xd8
 442 40 l 1
 407 2 386 -10 352 -10 c 0
 311 -10 293 11 288 63 c 1
 227 11 186 -10 142 -10 c 0
 81 -10 37 34 37 97 c 0xe8
 37 130 51 164 73 184 c 0
 116 222 133 230 287 292 c 1
 287 353 l 2
 287 407 260 436 211 436 c 0
 171 436 139 414 139 387 c 0
 139 380 140 372 142 363 c 0
 143 356 144 351 144 347 c 0
 144 325 123 305 99 305 c 0
 76 305 56 325 56 348 c 0
 56 411 130 460 224 460 c 0
 283 460 326 441 348 405 c 0
 363 381 368 352 368 300 c 2
 368 105 l 2
 368 61 375 47 398 47 c 0
 413 47 425 52 442 66 c 1xd8
287 123 m 2
 287 268 l 1
 166 224 125 188 125 129 c 2
 125 125 l 2
 125 82 153 48 188 48 c 0
 209 48 237 57 261 71 c 0
 282 83 287 92 287 123 c 2
EndSplineSet
KernsSLIF: 121 -32 0 0 119 -31 0 0 118 -30 0 0 39 -40 0 0 106 -26 0 0
EndChar
StartChar: b
Encoding: 98 98 67
Width: 500
Flags: W
HStem: -10 32<232 254> 397 63<252 292>
VStem: 69 84<54 327 54 681> 380 88<197 243>
Fore
153 681 m 1
 153 375 l 1
 173 424 231 460 292 460 c 0
 392 460 468 366 468 243 c 0
 468 100 366 -10 234 -10 c 0
 154 -10 69 23 69 54 c 2
 69 573 l 2
 69 615 60 624 20 624 c 0
 13 624 9 624 3 623 c 1
 3 639 l 1
 32 647 l 2
 79 660 106 668 148 683 c 1
 153 681 l 1
153 322 m 2
 153 70 l 2
 153 45 198 22 250 22 c 0
 332 22 380 86 380 197 c 0
 380 319 330 397 252 397 c 0
 200 397 153 361 153 322 c 2
EndSplineSet
KernsSLIF: 121 -32 0 0 119 -30 0 0 118 -29 0 0
EndChar
StartChar: c
Encoding: 99 99 68
Width: 444
Flags: W
HStem: -10 72<215 257> 431 29<232 250>
VStem: 25 77<213 257>
Fore
398 156 m 1
 412 147 l 1
 382 88 363 61 336 37 c 0
 300 6 260 -10 215 -10 c 0
 104 -10 25 83 25 213 c 0
 25 292 53 360 103 404 c 0
 144 440 195 460 244 460 c 0
 328 460 398 413 398 357 c 0
 398 334 376 315 350 315 c 0
 329 315 311 333 303 361 c 2
 297 383 l 2
 287 420 274 431 238 431 c 0
 157 431 102 360 102 257 c 0
 102 142 166 62 257 62 c 0
 314 62 350 86 398 156 c 1
EndSplineSet
KernsSLIF: 107 -19 0 0 104 -15 0 0
EndChar
StartChar: d
Encoding: 100 100 69
Width: 500
Flags: W
HStem: -10 52<212 251> 432 28<233 251>
VStem: 27 86<205 245> 340 84<100 343 417 681>
Fore
344 -10 m 1
 340 -7 l 1
 340 57 l 1
 306 10 268 -10 212 -10 c 0
 102 -10 27 77 27 205 c 0
 27 347 120 460 235 460 c 0
 275 460 302 449 340 417 c 1
 340 573 l 2
 340 614 331 624 294 624 c 0
 286 624 280 624 272 623 c 1
 272 639 l 1
 336 656 371 666 419 683 c 1
 424 681 l 1
 424 114 l 2
 424 68 432 57 468 57 c 0
 471 57 473 57 491 58 c 1
 491 42 l 1
 344 -10 l 1
340 102 m 2
 340 332 l 2
 340 385 291 432 238 432 c 0
 162 432 113 358 113 245 c 0
 113 122 168 42 251 42 c 0
 280 42 305 52 323 72 c 0
 333 83 340 95 340 102 c 2
EndSplineSet
EndChar
StartChar: e
Encoding: 101 101 70
Width: 444
Flags: W
HStem: -10 69<212 253> 277 32<99 405> 424 36<205 234>
Fore
408 164 m 1
 424 157 l 1
 382 49 307 -10 212 -10 c 0
 97 -10 25 76 25 214 c 0
 25 296 52 367 99 408 c 0
 137 442 184 460 234 460 c 0
 286 460 332 439 362 403 c 0
 387 371 397 342 405 277 c 1
 97 277 l 1
 99 216 106 183 124 145 c 0
 153 88 196 59 253 59 c 0
 317 59 360 88 408 164 c 1
99 309 m 1
 303 309 l 1
 290 396 266 424 205 424 c 0
 144 424 110 387 99 309 c 1
EndSplineSet
KernsSLIF: 121 -30 0 0 120 -35 0 0 119 -28 0 0 118 -27 0 0 116 -10 0 0 39 -30 0 0
EndChar
StartChar: f
Encoding: 102 102 71
Width: 333
Flags: W
HStem: 0 15<20 38 252.667 280> 418 32<21 103 186 309> 655 28<243 279>
VStem: 103 83<450 566>
Fore
309 450 m 1
 309 418 l 1
 187 418 l 1
 187 104 l 2
 187 29 198 18 280 15 c 1
 280 0 l 1
 20 0 l 1
 20 15 l 1
 92 19 103 31 103 104 c 2
 103 418 l 1
 21 418 l 1
 21 450 l 1
 103 450 l 1
 104 530 112 566 138 610 c 0
 164 656 217 683 279 683 c 0
 339 683 383 657 383 621 c 0
 383 598 364 580 341 580 c 0
 324 580 312 590 296 616 c 0
 278 645 264 655 243 655 c 0
 205 655 186 624 186 566 c 2
 186 450 l 1
 309 450 l 1
EndSplineSet
KernsSLIF: 116 10 0 0 115 -21 0 0 39 17 0 0 249 -37 0 0 250 -36 0 0 351 -1 0 0 352 -38 0 0 111 -38 0 0 108 44 0 0 106 8 0 0 105 15 0 0 102 6 0 0 335 -34 0 0 101 -34 0 0 328 -6 0 0 241 -25 0 0 322 12 0 0 323 -25 0 0 97 -25 0 0
EndChar
StartChar: g
Encoding: 103 103 72
Width: 500
Flags: W
HStem: -218 57<201 244> -35 20G<284.5 354.5> 149 25<242 256> 388 39<387 470> 432 28<219 238>
VStem: 28 70<-121 -88> 69 83<297 335> 329 77<265 304> 433 28<-65 -49>
Fore
470 388 m 1xfb80
 387 388 l 1
 401 356 406 333 406 304 c 0
 406 254 391 219 358 191 c 0
 327 164 287 149 250 149 c 0
 244 149 231 150 212 152 c 0
 209 152 202 153 193 154 c 1
 166 146 133 111 133 91 c 0
 133 75 158 66 211 64 c 2
 340 58 l 2
 414 55 461 13 461 -49 c 0
 461 -87 444 -119 406 -150 c 0
 354 -192 276 -218 201 -218 c 0
 106 -218 28 -174 28 -121 c 0xfd80
 28 -84 55 -51 126 1 c 1
 85 21 73 33 73 54 c 0
 73 74 86 94 119 123 c 0
 125 128 143 145 162 163 c 1
 96 196 69 234 69 297 c 0
 69 388 143 460 236 460 c 0
 262 460 289 455 316 445 c 2
 338 437 l 2
 358 430 373 427 393 427 c 2
 470 427 l 1
 470 388 l 1xfb80
147 -2 m 1
 105 -52 98 -65 98 -88 c 0
 98 -132 156 -161 244 -161 c 0
 357 -161 433 -122 433 -64 c 0
 433 -28 400 -15 309 -15 c 0
 260 -15 180 -9 147 -2 c 1
152 338 m 2xfb80
 152 335 l 2
 152 239 194 174 254 174 c 0
 300 174 329 209 329 265 c 0
 329 304 317 350 299 385 c 0
 283 415 257 432 226 432 c 0
 180 432 152 397 152 338 c 2xfb80
EndSplineSet
KernsSLIF: 114 11 0 0 351 -26 0 0 352 -26 0 0 108 -7 0 0 335 -25 0 0 101 -25 0 0 328 -17 0 0 241 -18 0 0 322 -17 0 0 97 -17 0 0
EndChar
StartChar: h
Encoding: 104 104 73
Width: 500
Flags: W
HStem: 0 15<9 16.25 215.333 225 275 284.667> 406 54<268 304>
VStem: 73 84<102 343 102 680> 343 84<102 321>
Fore
157 343 m 1
 157 102 l 2
 157 33 167 21 225 15 c 1
 225 0 l 1
 9 0 l 1
 9 15 l 1
 67 23 73 32 73 102 c 2
 73 573 l 2
 73 616 65 624 22 624 c 0
 17 624 14 624 10 623 c 1
 10 639 l 1
 37 647 l 2
 93 663 118 671 152 683 c 1
 157 680 l 1
 157 376 l 1
 203 436 245 460 304 460 c 0
 385 460 427 406 427 301 c 2
 427 102 l 2
 427 33 433 25 487 15 c 1
 487 0 l 1
 275 0 l 1
 275 15 l 1
 333 21 343 34 343 102 c 2
 343 300 l 2
 343 370 318 406 268 406 c 0
 229 406 199 389 157 343 c 1
EndSplineSet
KernsSLIF: 121 -30 0 0 39 -38 0 0
EndChar
StartChar: i
Encoding: 105 105 74
Width: 278
Flags: W
HStem: 0 15<16 33.25 239.8 253> 581 102<118.27 131>
VStem: 95 84<102 353>
DStem: 175 460 175 460 20 405 179 457
Fore
175 460 m 1
 179 457 l 1
 179 102 l 2
 179 30 187 20 253 15 c 1
 253 0 l 1
 16 0 l 1
 16 15 l 1
 85 19 95 30 95 102 c 2
 95 334 l 2
 95 378 86 394 62 394 c 0
 53 394 40 393 28 391 c 2
 20 390 l 1
 20 405 l 1
 175 460 l 1
128 683 m 0
 157 683 180 660 180 632 c 0
 180 603 157 581 128 581 c 0
 100 581 78 604 78 632 c 0
 78 660 101 683 128 683 c 0
EndSplineSet
KernsSLIF: 106 -36 0 0 84 -28 0 0
EndChar
StartChar: j
Encoding: 106 106 75
Width: 278
Flags: W
HStem: -218 34<24 61> 581 102<142 144>
VStem: 109 84<-45 343>
Fore
193 457 m 1
 193 0 l 2
 193 -142 134 -218 24 -218 c 0
 -30 -218 -70 -195 -70 -163 c 0
 -70 -141 -52 -124 -29 -124 c 0
 -13 -124 1 -133 19 -156 c 0
 36 -177 46 -184 61 -184 c 0
 75 -184 89 -176 95 -166 c 0
 106 -146 109 -121 109 -45 c 2
 109 334 l 2
 109 377 100 394 77 394 c 0
 67 394 52 393 37 391 c 2
 32 390 l 1
 32 406 l 1
 91 424 129 437 188 460 c 1
 193 457 l 1
142 683 m 0
 171 683 194 660 194 632 c 0
 194 603 171 581 142 581 c 0
 114 581 92 604 92 632 c 0
 92 660 115 683 142 683 c 0
EndSplineSet
EndChar
StartChar: k
Encoding: 107 107 76
Width: 500
Flags: W
HStem: 0 15<221 241 287 505 490.333 505> 435 15<276 480>
VStem: 82 84<58 251 82 681>
DStem: 166 251 235 282 306 64 388 88 303 383 264 309 166 261 235 282
Fore
7 623 m 1
 7 639 l 1
 37 647 l 2
 95 663 124 671 162 683 c 1
 166 681 l 1
 166 261 l 1
 303 383 l 2
 317 395 326 409 326 417 c 0
 326 431 315 435 276 436 c 1
 276 450 l 1
 480 450 l 1
 480 435 l 1
 472 435 l 2
 455 435 441 433 426 429 c 0
 397 421 335 375 264 309 c 2
 235 282 l 1
 388 88 l 1
 430 37 461 18 505 15 c 1
 505 0 l 1
 287 0 l 1
 287 15 l 1
 306 15 l 2
 318 15 327 21 327 30 c 0
 327 35 324 41 316 51 c 0
 313 54 311 57 309 60 c 2
 306 64 l 1
 166 251 l 1
 166 67 l 2
 166 32 181 18 221 16 c 2
 241 15 l 1
 241 0 l 1
 7 0 l 1
 7 15 l 1
 79 27 82 30 82 82 c 2
 82 564 l 2
 82 612 72 625 39 625 c 0
 29 625 20 624 7 623 c 1
EndSplineSet
KernsSLIF: 362 14 0 0 117 14 0 0 115 5 0 0 46 -2 0 0 351 -32 0 0 352 -32 0 0 111 -32 0 0 45 -65 0 0 103 -12 0 0 335 -19 0 0 101 -19 0 0 44 4 0 0 328 1 0 0 241 -1 0 0 322 1 0 0 323 1 0 0 97 1 0 0
EndChar
StartChar: l
Encoding: 108 108 77
Width: 278
Flags: W
HStem: 0 15<21 33.6 241.25 257>
VStem: 98 84<79 577>
Fore
19 623 m 1
 19 639 l 1
 88 656 126 666 178 683 c 1
 182 681 l 1
 182 84 l 2
 182 29 194 19 257 15 c 1
 257 0 l 1
 21 0 l 1
 21 15 l 1
 84 20 98 33 98 87 c 2
 98 564 l 2
 98 611 88 625 56 625 c 0
 48 625 36 624 25 623 c 2
 19 623 l 1
EndSplineSet
KernsSLIF: 121 -25 0 0 118 -28 0 0
EndChar
StartChar: m
Encoding: 109 109 78
Width: 778
Flags: W
HStem: 0 15<16 34.4671 16 72 211.5 238 286 300.25 453 510 510 510 556 564.286 762 775> 408 52<288 321 547 590>
VStem: 86 84<63 351> 354 84<74 321> 622 84<63 305>
CounterMasks: 1 00
Fore
19 398 m 1
 19 415 l 1
 74 430 108 441 159 460 c 1
 166 458 l 1
 166 383 l 1
 249 446 277 460 321 460 c 0
 375 460 409 433 427 376 c 1
 481 434 532 460 590 460 c 0
 667 460 706 400 706 282 c 2
 706 76 l 2
 706 37 719 19 749 17 c 2
 775 15 l 1
 775 0 l 1
 556 0 l 1
 556 15 l 1
 614 22 622 30 622 87 c 2
 622 298 l 2
 622 381 604 408 547 408 c 0
 501 408 468 390 438 347 c 1
 438 95 l 2
 438 33 453 16 510 15 c 1
 510 0 l 1
 286 0 l 1
 286 15 l 1
 343 19 354 30 354 86 c 2
 354 303 l 2
 354 373 332 408 288 408 c 0
 253 408 210 391 185 368 c 0
 178 361 170 351 170 349 c 2
 170 67 l 2
 170 28 185 17 238 15 c 1
 238 0 l 1
 16 0 l 1
 16 15 l 1
 72 16 86 31 86 85 c 2
 86 338 l 2
 86 386 77 402 51 402 c 0
 40 402 32 401 19 398 c 1
EndSplineSet
KernsSLIF: 121 -31 0 0 119 -31 0 0 118 -30 0 0 112 -9 0 0
EndChar
StartChar: n
Encoding: 110 110 79
Width: 500
Flags: W
HStem: 0 15<18 30.75 217.25 230 277 289.5 475.2 485> 405 55<267 306>
VStem: 80 84<65 348> 340 84<79 321>
Fore
16 398 m 1
 16 415 l 1
 71 431 105 442 154 460 c 1
 161 458 l 1
 161 379 l 1
 229 443 260 460 306 460 c 0
 380 460 424 404 424 310 c 2
 424 81 l 2
 424 32 436 20 485 15 c 1
 485 0 l 1
 277 0 l 1
 277 15 l 1
 327 19 340 36 340 99 c 2
 340 308 l 2
 340 374 316 405 267 405 c 0
 234 405 212 393 164 348 c 1
 164 67 l 2
 164 31 179 19 230 15 c 1
 230 0 l 1
 18 0 l 1
 18 15 l 1
 69 19 80 33 80 90 c 2
 80 338 l 2
 80 387 71 402 43 402 c 0
 32 402 22 401 16 398 c 1
EndSplineSet
KernsSLIF: 121 -31 0 0 119 -31 0 0 118 -30 0 0 39 -39 0 0 112 -13 0 0 84 -55 0 0
EndChar
StartChar: o
Encoding: 111 111 80
Width: 500
Flags: W
HStem: -10 28<246 270> 432 28<235 252>
VStem: 29 90<226 275> 380 90<199 234>
Fore
250 460 m 0
 378 460 470 365 470 234 c 0
 470 96 374 -10 248 -10 c 0
 122 -10 29 91 29 226 c 0
 29 364 120 460 250 460 c 0
237 432 m 0
 166 432 119 370 119 275 c 0
 119 204 135 134 163 82 c 0
 184 42 221 18 260 18 c 0
 335 18 380 86 380 199 c 0
 380 336 321 432 237 432 c 0
EndSplineSet
KernsSLIF: 121 -41 0 0 120 -36 0 0 119 -36 0 0 118 -36 0 0 116 -9 0 0 39 -34 0 0 84 -91 0 0
EndChar
StartChar: p
Encoding: 112 112 81
Width: 500
Flags: W
HStem: -217 17<5 14.8333> -10 32<248 278> 400 60<261 303>
VStem: 75 84<-138 33 -131 340> 384 86<208 247>
Fore
9 393 m 1
 9 409 l 1
 64 426 99 439 153 460 c 1
 159 458 l 1
 159 381 l 1
 203 435 247 460 303 460 c 0
 400 460 470 371 470 247 c 0
 470 102 378 -10 260 -10 c 0
 218 -10 194 0 159 33 c 1
 159 -124 l 2
 159 -187 172 -198 247 -199 c 1
 247 -217 l 1
 5 -217 l 1
 5 -200 l 1
 64 -194 75 -183 75 -131 c 2
 75 337 l 2
 75 384 68 394 34 394 c 0
 25 394 18 394 9 393 c 1
159 334 m 2
 159 88 l 2
 159 58 216 22 263 22 c 0
 335 22 384 97 384 208 c 0
 384 324 335 400 261 400 c 0
 215 400 159 364 159 334 c 2
EndSplineSet
KernsSLIF: 121 -28 0 0 116 -6 0 0
EndChar
StartChar: q
Encoding: 113 113 82
Width: 500
Flags: W
HStem: -217 17<252 266.2> -10 61<184 241> 433 28<231 265>
VStem: 24 86<205 241> 341 84<-143 64 118 457>
Fore
360 425 m 1
 414 457 l 1
 425 457 l 1
 425 -141 l 2
 425 -183 433 -191 488 -203 c 1
 488 -217 l 1
 252 -217 l 1
 252 -200 l 1
 323 -195 341 -180 341 -124 c 2
 341 64 l 1
 297 16 242 -10 184 -10 c 0
 90 -10 24 79 24 205 c 0
 24 349 120 461 245 461 c 0
 284 461 314 452 360 425 c 1
341 127 m 2
 341 333 l 2
 341 400 310 433 248 433 c 0
 163 433 110 359 110 241 c 0
 110 175 131 110 163 81 c 1
 183 61 210 51 241 51 c 0
 272 51 305 63 327 82 c 0
 337 90 341 103 341 127 c 2
EndSplineSet
KernsSLIF: 117 -12 0 0 99 -7 0 0
EndChar
StartChar: r
Encoding: 114 114 83
Width: 344
Flags: W
HStem: 0 15<233.333 256> 362 98<291 307>
VStem: 87 84<79 321>
Fore
18 390 m 1
 18 406 l 1
 77 425 113 438 166 460 c 1
 171 458 l 1
 171 366 l 1
 220 437 249 460 291 460 c 0
 325 460 346 440 346 407 c 0
 346 379 331 362 307 362 c 0
 294 362 283 368 267 382 c 0
 256 392 247 397 241 397 c 0
 214 397 171 347 171 315 c 2
 171 90 l 2
 171 33 188 18 256 15 c 1
 256 0 l 1
 16 0 l 1
 16 15 l 1
 80 27 87 34 87 84 c 2
 87 334 l 2
 87 378 78 394 53 394 c 0
 41 394 32 393 18 390 c 1
EndSplineSet
KernsSLIF: 122 2 0 0 121 22 0 0 120 17 0 0 119 19 0 0 118 20 0 0 117 19 0 0 116 23 0 0 59 -7 0 0 114 26 0 0 39 -19 0 0 113 -10 0 0 46 -48 0 0 112 25 0 0 249 -7 0 0 353 -8 0 0 250 -7 0 0 351 -8 0 0 354 -8 0 0 352 -8 0 0 111 -8 0 0 110 22 0 0 109 20 0 0 108 -18 0 0 107 -10 0 0 106 14 0 0 105 20 0 0 45 -46 0 0 104 -6 0 0 103 -15 0 0 102 19 0 0 336 -6 0 0 337 -6 0 0 335 -6 0 0 101 -6 0 0 100 -10 0 0 44 -41 0 0 58 -7 0 0 332 -8 0 0 99 -8 0 0 328 -1 0 0 324 -1 0 0 241 -3 0 0 322 -1 0 0 325 -1 0 0 323 -1 0 0 97 -1 0 0
EndChar
StartChar: s
Encoding: 115 115 84
Width: 389
Flags: W
HStem: -10 22<188 212> 437 22<178 207>
VStem: 51 62<336 369> 278 70<84 118>
Fore
315 314 m 1
 300 314 l 1
 277 403 247 437 190 437 c 0
 144 437 113 409 113 369 c 0
 113 342 128 317 156 301 c 2
 264 237 l 2
 324 201 348 168 348 118 c 0
 348 48 284 -10 207 -10 c 0
 189 -10 162 -6 134 0 c 0
 111 6 97 8 88 8 c 0
 76 8 72 6 65 -4 c 1
 52 -4 l 1
 52 152 l 1
 68 152 l 1
 81 95 90 72 111 47 c 0
 130 25 161 12 195 12 c 0
 246 12 278 40 278 84 c 0
 278 115 261 139 226 159 c 2
 168 192 l 2
 83 240 51 280 51 336 c 0
 51 408 108 459 187 459 c 0
 213 459 235 455 257 447 c 0
 268 442 278 440 284 440 c 0
 288 440 289 441 298 448 c 2
 300 450 l 1
 311 450 l 1
 315 314 l 1
EndSplineSet
KernsSLIF: 116 -15 0 0 39 -38 0 0
EndChar
StartChar: t
Encoding: 116 116 85
Width: 278
Flags: W
HStem: -10 52<159 206> 418 32<154 255>
VStem: 70 84<115 418>
Fore
255 450 m 1
 255 418 l 1
 154 418 l 1
 154 132 l 2
 154 69 169 42 206 42 c 0
 228 42 245 52 266 77 c 1
 279 66 l 1
 246 14 208 -10 159 -10 c 0
 100 -10 70 33 70 117 c 2
 70 418 l 1
 17 418 l 1
 14 420 13 422 13 425 c 0
 13 430 19 437 30 444 c 1
 46 448 89 496 127 551 c 0
 134 561 140 570 147 579 c 1
 153 579 154 576 154 566 c 2
 154 450 l 1
 255 450 l 1
EndSplineSet
KernsSLIF: 59 -8 0 0 39 -29 0 0 351 -8 0 0 352 -8 0 0 111 -8 0 0 104 10 0 0 58 -8 0 0 328 10 0 0 241 9 0 0 322 10 0 0 323 10 0 0 97 10 0 0 83 2 0 0
EndChar
StartChar: u
Encoding: 117 117 86
Width: 500
Flags: W
HStem: -10 58<192 226> 433 17<259 279.667>
VStem: 71 84<117 391> 333 84<117 450>
Fore
479 50 m 1
 479 36 l 1
 428 22 392 11 342 -9 c 1
 338 -7 l 1
 338 76 l 1
 295 33 l 2
 268 6 229 -10 192 -10 c 0
 119 -10 71 41 71 120 c 2
 71 372 l 2
 71 418 57 433 9 436 c 1
 9 450 l 1
 155 450 l 1
 155 124 l 2
 155 82 187 48 226 48 c 0
 256 48 287 60 314 82 c 0
 328 93 333 107 333 135 c 2
 333 370 l 2
 333 420 321 430 259 433 c 1
 259 450 l 1
 417 450 l 1
 417 107 l 2
 417 61 428 50 474 50 c 2
 479 50 l 1
EndSplineSet
KernsSLIF: 39 -36 0 0
EndChar
StartChar: v
Encoding: 118 118 87
Width: 500
Flags: W
HStem: -14 21G<253 259> 435 15<19 38 203.333 215 338 348.667 467 477>
DStem: 110 320 178 370 230 33 280 114 379 373 412 357 280 114 284 36
Fore
477 450 m 1
 477 435 l 1
 447 432 441 425 412 357 c 1
 284 36 l 2
 269 -1 262 -14 256 -14 c 0
 250 -14 244 -6 238 12 c 0
 235 20 232 27 230 33 c 1
 110 320 l 1
 64 423 57 433 19 435 c 1
 19 450 l 1
 215 450 l 1
 215 435 l 1
 180 432 169 425 169 407 c 0
 169 398 172 384 178 370 c 1
 280 114 l 1
 379 373 l 2
 383 383 385 393 385 403 c 0
 385 422 370 432 338 435 c 1
 338 450 l 1
 477 450 l 1
EndSplineSet
KernsSLIF: 59 -20 0 0 115 -21 0 0 46 -76 0 0 249 -38 0 0 353 -38 0 0 351 -38 0 0 352 -38 0 0 111 -38 0 0 108 -31 0 0 45 -28 0 0 103 -41 0 0 336 -36 0 0 337 -36 0 0 335 -36 0 0 101 -36 0 0 44 -69 0 0 58 -20 0 0 99 -37 0 0 327 -24 0 0 328 -24 0 0 324 -24 0 0 241 -24 0 0 322 -24 0 0 325 -24 0 0 323 -24 0 0 97 -24 0 0
EndChar
StartChar: w
Encoding: 119 119 88
Width: 722
Flags: W
HStem: -14 21G<232 237.5 484 490.5> 435 15<21 32.5 192.5 201 262 271.25>
DStem: 74 372 161 372 209 30 260 111 351 310 372 265 260 111 260 25 372 265 424 340 463 29 508 116 598 338 653 381 508 116 515 35
Fore
571 450 m 1
 694 450 l 1
 694 435 l 1
 674 428 671 423 653 381 c 1
 515 35 l 2
 499 -5 494 -14 487 -14 c 0
 481 -14 477 -8 463 29 c 2
 372 265 l 1
 260 25 l 2
 248 -1 240 -14 235 -14 c 0
 229 -14 221 0 209 30 c 2
 74 372 l 1
 52 423 44 433 21 435 c 1
 21 450 l 1
 201 450 l 1
 201 435 l 1
 167 431 155 423 155 402 c 0
 155 392 157 382 161 372 c 2
 260 111 l 1
 351 310 l 1
 345 328 338 347 331 366 c 0
 311 420 299 431 262 435 c 1
 262 450 l 1
 465 450 l 1
 465 435 l 1
 418 428 407 421 407 399 c 0
 407 386 407 386 424 340 c 2
 508 116 l 1
 598 338 l 2
 609 365 615 389 615 404 c 0
 615 421 605 428 571 435 c 1
 571 450 l 1
EndSplineSet
KernsSLIF: 59 -23 0 0 115 -23 0 0 46 -71 0 0 249 -34 0 0 353 -35 0 0 351 -35 0 0 352 -35 0 0 111 -35 0 0 108 -33 0 0 45 -24 0 0 103 -43 0 0 336 -31 0 0 337 -31 0 0 335 -31 0 0 101 -31 0 0 44 -64 0 0 58 -23 0 0 99 -33 0 0 327 -27 0 0 328 -27 0 0 324 -27 0 0 241 -27 0 0 322 -27 0 0 325 -27 0 0 323 -27 0 0 97 -27 0 0
EndChar
StartChar: x
Encoding: 120 120 89
Width: 500
Flags: W
HStem: 0 15<17 28 162 162 278 294.5 466.381 478.969> 435 15<24 35 201 231 275 290 401 433>
DStem: 204 231 221 197 90 66 142 74 221 197 269 271 312 57 397 75
Fore
278 0 m 1
 278 15 l 1
 311 17 318 21 318 39 c 0
 318 45 316 51 312 57 c 2
 221 197 l 1
 142 74 l 2
 129 54 122 39 122 33 c 0
 122 20 134 15 162 15 c 1
 162 0 l 1
 17 0 l 1
 17 15 l 1
 50 18 60 25 90 66 c 1
 204 231 l 1
 110 375 l 2
 79 422 63 435 33 435 c 2
 24 435 l 1
 24 450 l 1
 231 450 l 1
 231 435 l 1
 201 434 188 427 188 413 c 0
 188 400 206 366 234 324 c 2
 248 304 l 1
 261 324 273 342 278 348 c 0
 303 379 315 401 315 413 c 0
 315 427 305 433 275 435 c 1
 275 450 l 1
 433 450 l 1
 433 435 l 1
 401 434 371 418 352 391 c 2
 269 271 l 1
 397 75 l 1
 428 31 448 15 479 15 c 1
 479 0 l 1
 278 0 l 1
EndSplineSet
KernsSLIF: 113 -26 0 0 111 -45 0 0 335 -32 0 0 101 -32 0 0 99 -34 0 0 97 -11 0 0
EndChar
StartChar: y
Encoding: 121 121 90
Width: 500
Flags: W
HStem: -218 102<73 104> 435 15<198.5 220 340 356.823 467 475>
DStem: 65 404 172 370 179 158 287 117
Fore
475 450 m 1
 475 435 l 1
 451 432 440 422 427 390 c 1
 273 -18 l 2
 219 -162 171 -218 104 -218 c 0
 62 -218 30 -193 30 -160 c 0
 30 -136 50 -116 73 -116 c 0
 90 -116 107 -120 126 -127 c 0
 136 -132 145 -134 151 -134 c 0
 165 -134 187 -115 201 -89 c 0
 218 -59 241 4 241 19 c 0
 241 34 225 70 197 120 c 1
 182 150 l 1
 179 158 l 1
 65 404 l 2
 57 421 40 432 14 436 c 1
 14 450 l 1
 220 450 l 1
 220 435 l 1
 177 433 162 426 162 408 c 0
 162 397 166 384 172 370 c 2
 287 117 l 1
 384 393 l 1
 387 400 388 406 388 410 c 0
 388 426 372 435 340 435 c 1
 340 450 l 1
 475 450 l 1
EndSplineSet
KernsSLIF: 59 -23 0 0 115 -26 0 0 46 -73 0 0 249 -38 0 0 353 -39 0 0 351 -39 0 0 352 -39 0 0 111 -39 0 0 108 -32 0 0 45 -27 0 0 103 -48 0 0 336 -35 0 0 337 -35 0 0 335 -35 0 0 101 -35 0 0 44 -66 0 0 58 -23 0 0 99 -37 0 0 327 -32 0 0 328 -32 0 0 324 -32 0 0 241 -31 0 0 322 -32 0 0 325 -32 0 0 323 -32 0 0 97 -32 0 0
EndChar
StartChar: z
Encoding: 122 122 91
Width: 444
Flags: W
HStem: 0 30<134 404> 420 30<56 293>
DStem: 293 420 403 435 27 15 134 30
Fore
418 135 m 1
 404 0 l 1
 27 0 l 1
 27 15 l 1
 293 420 l 1
 155 420 l 2
 95 420 80 405 71 332 c 1
 53 332 l 1
 56 450 l 1
 403 450 l 1
 403 435 l 1
 134 30 l 1
 272 30 l 2
 323 30 357 39 371 56 c 0
 384 73 390 89 400 139 c 1
 418 135 l 1
EndSplineSet
EndChar
StartChar: braceleft
Encoding: 123 123 92
Width: 480
Flags: W
VStem: 185 74<-54 140 361 556>
Fore
350 -170 m 1
 350 -181 l 1
 284 -180 257 -174 229 -156 c 0
 201 -138 185 -97 185 -41 c 2
 185 136 l 2
 185 205 167 229 100 250 c 1
 167 270 185 293 185 363 c 2
 185 541 l 2
 185 598 200 637 229 655 c 0
 258 673 284 679 350 680 c 1
 350 669 l 1
 281 651 259 621 259 546 c 2
 259 378 l 2
 259 295 240 269 165 249 c 1
 240 230 259 204 259 121 c 2
 259 -47 l 2
 259 -122 281 -152 350 -170 c 1
EndSplineSet
EndChar
StartChar: bar
Encoding: 124 124 93
Width: 200
Flags: W
HStem: -14 21G<67 133> 656 20G<67 133>
VStem: 67 66<-14 676>
Fore
67 -14 m 1
 67 676 l 1
 133 676 l 1
 133 -14 l 1
 67 -14 l 1
EndSplineSet
EndChar
StartChar: braceright
Encoding: 125 125 94
Width: 480
Flags: W
VStem: 221 74<-54 140 361 556>
Fore
130 669 m 1
 130 680 l 1
 197 679 223 673 251 655 c 0
 279 637 295 596 295 540 c 2
 295 363 l 2
 295 293 313 270 380 250 c 1
 313 229 295 206 295 136 c 2
 295 -42 l 2
 295 -99 280 -138 251 -156 c 0
 222 -174 196 -180 130 -181 c 1
 130 -170 l 1
 199 -152 221 -122 221 -47 c 2
 221 121 l 2
 221 204 240 230 315 250 c 1
 240 269 221 294 221 378 c 2
 221 546 l 2
 221 621 199 651 130 669 c 1
EndSplineSet
EndChar
StartChar: asciitilde
Encoding: 126 126 95
Width: 541
Flags: W
Fore
448 303 m 1
 502 271 l 1
 456 207 425 186 379 186 c 0
 334 186 316 193 227 240 c 0
 210 249 189 254 168 254 c 0
 137 254 120 242 94 203 c 1
 40 235 l 1
 86 299 117 320 163 320 c 0
 208 320 226 313 315 266 c 0
 332 257 353 252 374 252 c 0
 405 252 422 264 448 303 c 1
EndSplineSet
EndChar
StartChar: exclamdown
Encoding: 161 161 96
Width: 333
Flags: W
HStem: 362 107<142 159>
Fore
144 282 m 1
 157 282 l 1
 166 174 l 2
 170 127 176 81 183 36 c 0
 195 -35 203 -106 203 -140 c 0
 203 -188 183 -218 150 -218 c 0
 116 -218 97 -190 97 -138 c 0
 97 -126 98 -113 99 -101 c 1
 144 282 l 1
151 469 m 0
 180 469 204 446 204 417 c 0
 204 387 180 362 150 362 c 0
 120 362 97 386 97 418 c 0
 97 448 119 469 151 469 c 0
EndSplineSet
EndChar
StartChar: cent
Encoding: 162 162 97
Width: 500
Flags: W
HStem: -9 73<257 288> 430 30<255 278>
VStem: 53 77<219 260>
DStem: 169 12 201 0 118 -138 152 -138 313 421 330 367 198 98 229 76 368 579 403 579 324 455 356 444
Fore
403 579 m 1
 356 444 l 1
 404 425 431 395 431 360 c 0
 431 334 413 315 388 315 c 0
 363 315 348 328 330 367 c 1
 229 76 l 1
 253 67 268 64 288 64 c 0
 347 64 383 89 435 164 c 1
 448 156 l 1
 414 86 395 59 360 29 c 0
 332 5 295 -9 257 -9 c 0
 240 -9 225 -7 201 0 c 1
 152 -138 l 1
 118 -138 l 1
 169 12 l 1
 132 33 117 46 99 71 c 0
 70 111 53 165 53 219 c 0
 53 354 149 460 273 460 c 0
 287 460 300 459 324 455 c 1
 368 579 l 1
 403 579 l 1
198 98 m 1
 313 421 l 1
 295 428 283 430 266 430 c 0
 184 430 130 362 130 260 c 0
 130 188 149 143 198 98 c 1
EndSplineSet
EndChar
StartChar: sterling
Encoding: 163 163 98
Width: 500
Flags: W
HStem: -8 28<75 91> -7 83<320 348> 94 36<87 103> 328 45<23 131 219 344> 649 27<299 318>
VStem: 12 26<49 59> 123 85<442 510> 359 89<581 597>
Fore
344 373 m 1xbf
 344 328 l 1
 223 328 l 1
 223 301 l 1
 224 273 l 1
 224 238 223 233 199 111 c 1
 264 84 299 76 348 76 c 0
 394 76 429 91 461 125 c 0
 471 136 479 141 484 141 c 0
 488 141 490 139 490 136 c 0
 490 119 468 75 447 51 c 0
 415 14 370 -7 322 -7 c 0x7f
 279 -7 246 7 178 54 c 1
 138 7 115 -8 80 -8 c 0
 39 -8 12 16 12 54 c 0
 12 100 49 130 103 130 c 0
 118 130 130 129 149 125 c 1
 152 133 153 139 153 146 c 0
 153 164 151 181 131 328 c 1
 23 328 l 1
 23 373 l 1
 130 373 l 1
 125 399 123 418 123 442 c 0
 123 585 199 676 318 676 c 0
 392 676 448 636 448 583 c 0
 448 552 427 530 398 530 c 0
 368 530 360 544 359 597 c 0
 358 632 340 649 303 649 c 0
 243 649 208 598 208 510 c 0
 208 474 211 441 219 373 c 1
 344 373 l 1xbf
89 94 m 0
 56 94 38 81 38 57 c 0
 38 35 55 20 79 20 c 0xbf
 99 20 111 26 125 43 c 0
 136 56 142 68 142 76 c 0
 142 84 113 94 89 94 c 0
EndSplineSet
EndChar
StartChar: fraction
Encoding: 164 8260 99
Width: 167
Flags: W
HStem: -14 21G<-168 -119> 656 20G<285 331>
DStem: 285 676 331 676 -168 -14 -119 -14
Fore
331 676 m 1
 -119 -14 l 1
 -168 -14 l 1
 285 676 l 1
 331 676 l 1
EndSplineSet
EndChar
StartChar: yen
Encoding: 165 165 100
Width: 500
Flags: W
HStem: 0 19<111 133.333 323 355> 182 40<16 190 275 448> 312 40<16 183 302 448> 643 19<-53 190 143 190 317 333>
VStem: 190 85<95 182 222 298>
DStem: 65 525 138 569 160 352 256 348 368 568 394 536 256 348 302 352
Fore
190 182 m 1
 16 182 l 1
 16 222 l 1
 190 222 l 1
 190 298 l 1
 183 312 l 1
 16 312 l 1
 16 352 l 1
 160 352 l 1
 65 525 l 2
 10 624 -7 640 -53 643 c 1
 -53 662 l 1
 190 662 l 1
 190 643 l 1
 143 642 125 634 125 614 c 0
 125 601 130 585 138 569 c 2
 256 348 l 1
 368 568 l 2
 377 585 382 602 382 612 c 0
 382 631 361 643 331 643 c 2
 317 643 l 1
 317 662 l 1
 512 662 l 1
 512 643 l 1
 461 632 431 605 394 536 c 1
 302 352 l 1
 448 352 l 1
 448 312 l 1
 282 312 l 1
 275 298 l 1
 275 222 l 1
 448 222 l 1
 448 182 l 1
 275 182 l 1
 275 109 l 2
 275 39 291 21 355 19 c 1
 355 0 l 1
 111 0 l 1
 111 19 l 1
 178 22 190 37 190 120 c 2
 190 182 l 1
EndSplineSet
EndChar
StartChar: florin
Encoding: 166 402 101
Width: 500
Flags: W
HStem: -189 24<86 104> 376 31<115 217 306 422> 647 29<390 407>
VStem: 7 82<-120 -109> 406 84<597 608>
Fore
432 407 m 1
 422 376 l 1
 302 376 l 1
 295 321 287 264 286 251 c 0
 262 66 245 -14 214 -84 c 0
 181 -156 142 -189 87 -189 c 0
 40 -189 7 -160 7 -120 c 0
 7 -94 26 -75 53 -75 c 0
 75 -75 89 -89 89 -111 c 0
 89 -120 86 -127 80 -138 c 0
 76 -145 74 -149 74 -152 c 0
 74 -159 83 -165 95 -165 c 0
 140 -165 167 -107 177 9 c 2
 192 181 l 1
 197 234 203 290 204 294 c 1
 215 361 l 1
 217 376 l 1
 106 376 l 1
 116 407 l 1
 223 407 l 1
 239 511 256 559 294 615 c 0
 320 653 363 676 405 676 c 0
 452 676 490 646 490 608 c 0
 490 583 469 563 444 563 c 0
 424 563 406 579 406 597 c 0
 406 603 409 612 414 621 c 0
 417 627 419 632 419 635 c 0
 419 642 411 647 399 647 c 0
 383 647 369 641 358 630 c 0
 339 610 320 546 314 483 c 0
 313 472 310 441 306 407 c 1
 432 407 l 1
EndSplineSet
EndChar
StartChar: section
Encoding: 167 167 102
Width: 500
Flags: W
HStem: -148 21<229 253> 125 21<292 316> 383 22<181 201> 655 21<239 263>
VStem: 70 53<286 316> 104 102<-48 -36> 110 56<554 584> 279 98<566 578> 330 56<-50 -21> 374 52<212 245>
Fore
310 125 m 2xf240
 292 125 l 1
 367 60 386 30 386 -21 c 0
 386 -97 329 -148 242 -148 c 0
 164 -148 104 -104 104 -48 c 0
 104 -17 127 6 158 6 c 0
 185 6 206 -12 206 -36 c 0xf480
 206 -50 199 -63 183 -77 c 0
 176 -83 172 -88 172 -92 c 0
 172 -110 206 -127 243 -127 c 0
 296 -127 330 -97 330 -50 c 0
 330 -11 305 21 241 65 c 0
 119 149 70 213 70 286 c 0xf880
 70 354 119 405 185 405 c 0
 191 405 200 405 210 404 c 1
 130 470 110 500 110 554 c 0
 110 626 166 676 249 676 c 0
 322 676 377 634 377 578 c 0
 377 545 358 525 326 525 c 0
 299 525 279 543 279 568 c 0xf3
 279 584 289 600 305 612 c 0
 310 617 313 620 313 623 c 0
 313 641 285 655 251 655 c 0
 200 655 166 626 166 584 c 0
 166 559 180 530 200 513 c 2
 337 400 l 2
 395 352 426 298 426 245 c 0
 426 175 378 125 310 125 c 2xf240
191 383 m 0
 152 383 123 355 123 316 c 0
 123 286 135 263 169 229 c 0
 229 169 267 146 305 146 c 0
 342 146 374 177 374 212 c 0xf840
 374 238 355 271 321 305 c 0
 275 351 222 383 191 383 c 0
EndSplineSet
EndChar
StartChar: currency
Encoding: 168 164 103
Width: 500
Flags: W
HStem: 115 64<251 267> 481 64<235.213 267>
VStem: 35 68<330 347> 397 68<331 347>
DStem: -22 554 28 602 76 456 124 506 76 204 124 156 -22 108 28 58 376 156 426 204 474 58 522 108 474 602 522 554 376 506 426 456
Fore
-22 108 m 1
 76 204 l 1
 47 246 35 283 35 330 c 0
 35 378 47 416 76 456 c 1
 -22 554 l 1
 28 602 l 1
 124 506 l 1
 169 535 202 545 251 545 c 0
 299 545 337 533 376 506 c 1
 474 602 l 1
 522 554 l 1
 426 456 l 1
 455 413 465 380 465 331 c 0
 465 283 455 249 426 204 c 1
 522 108 l 1
 474 58 l 1
 376 156 l 1
 337 128 298 115 251 115 c 0
 205 115 166 128 124 156 c 1
 28 58 l 1
 -22 108 l 1
253 481 m 0
 169 481 103 414 103 330 c 0
 103 247 169 179 251 179 c 0
 332 179 397 246 397 331 c 0
 397 413 332 481 253 481 c 0
EndSplineSet
EndChar
StartChar: quotesingle
Encoding: 169 39 104
Width: 180
Flags: W
HStem: 656 20G<79 102.5>
Fore
101 431 m 1
 80 431 l 1
 63 521 48 619 48 635 c 0
 48 658 67 676 91 676 c 0
 114 676 133 658 133 636 c 0
 133 607 124 547 108 471 c 1
 101 431 l 1
EndSplineSet
EndChar
StartChar: quotedblleft
Encoding: 170 8220 105
Width: 444
Flags: W
VStem: 43 39<522 551> 275 39<522 551>
Fore
155 676 m 1
 164 657 l 1
 110 620 82 584 82 551 c 0
 82 543 88 537 96 537 c 0
 97 537 97 537 104 539 c 0
 110 540 117 541 123 541 c 0
 159 541 182 522 182 490 c 0
 182 456 158 433 123 433 c 0
 78 433 43 471 43 522 c 0
 43 582 88 643 155 676 c 1
387 676 m 1
 396 657 l 1
 342 620 314 584 314 551 c 0
 314 543 320 537 328 537 c 0
 329 537 329 537 336 539 c 0
 342 540 349 541 355 541 c 0
 391 541 414 522 414 490 c 0
 414 456 390 433 355 433 c 0
 310 433 275 471 275 522 c 0
 275 582 320 643 387 676 c 1
EndSplineSet
KernsSLIF: 89 -1 1 0 87 7 1 0 86 1 1 0 84 14 1 0 262 -86 1 0 256 -86 1 0 257 -86 1 0 225 -91 1 0 65 -86 1 0
EndChar
StartChar: guillemotleft
Encoding: 171 171 106
Width: 500
Flags: W
Fore
42 222 m 1
 107 281 l 1
 113 285 118 290 123 295 c 2
 126 297 l 2
 134 304 141 311 150 318 c 0
 179 344 206 371 210 377 c 0
 227 398 248 416 254 416 c 0
 259 416 264 411 264 406 c 0
 264 393 239 353 210 317 c 0
 173 273 158 255 135 224 c 1
 141 215 142 215 145 211 c 0
 222 114 263 55 263 42 c 0
 263 37 259 33 254 33 c 0
 249 33 247 34 243 39 c 1
 186 95 145 133 73 195 c 2
 42 222 l 1
234 222 m 1
 299 281 l 1
 305 285 310 290 315 295 c 2
 318 297 l 2
 326 304 333 311 342 318 c 0
 371 344 398 371 402 377 c 0
 419 398 440 416 446 416 c 0
 451 416 456 411 456 406 c 0
 456 393 431 353 402 317 c 0
 365 273 350 255 327 224 c 1
 333 215 334 215 337 211 c 0
 414 114 455 55 455 42 c 0
 455 37 451 33 446 33 c 0
 441 33 439 34 435 39 c 1
 378 95 337 133 265 195 c 2
 234 222 l 1
EndSplineSet
EndChar
StartChar: guilsinglleft
Encoding: 172 8249 107
Width: 333
Flags: W
Fore
63 222 m 1
 128 281 l 1
 134 285 139 290 144 295 c 2
 147 297 l 2
 155 304 162 311 171 318 c 0
 200 344 227 371 231 377 c 0
 248 398 269 416 275 416 c 0
 280 416 285 411 285 406 c 0
 285 393 260 353 231 317 c 0
 194 273 179 255 156 224 c 1
 162 215 163 215 166 211 c 0
 243 114 284 55 284 42 c 0
 284 37 280 33 275 33 c 0
 270 33 268 34 264 39 c 1
 207 95 166 133 94 195 c 2
 63 222 l 1
EndSplineSet
EndChar
StartChar: guilsinglright
Encoding: 173 8250 108
Width: 333
Flags: W
Fore
270 222 m 1
 239 195 l 2
 166 132 126 95 69 39 c 1
 65 34 63 33 59 33 c 0
 53 33 49 37 49 42 c 0
 49 54 92 116 167 211 c 2
 173 218 l 1
 177 224 l 1
 102 317 l 2
 73 352 48 393 48 406 c 0
 48 411 53 416 58 416 c 0
 64 416 85 398 102 377 c 1
 104 372 133 344 163 318 c 0
 172 309 180 302 186 297 c 2
 189 295 l 2
 194 290 199 285 205 281 c 1
 270 222 l 1
EndSplineSet
KernsSLIF: 89 -149 1 0 87 -105 1 0 86 -128 1 0 84 -124 1 0 262 -72 1 0 256 -72 1 0 257 -72 1 0 225 -71 1 0 65 -72 1 0
EndChar
StartChar: fi
Encoding: 174 64257 109
Width: 556
Flags: W
HStem: 0 15<32 60 238 252 301 313.4 509.8 521> 417 33<31 99 182 319> 658 25<288 317>
VStem: 99 84<79 417> 370 84<97 385>
Fore
31 417 m 1
 31 450 l 1
 100 450 l 1
 106 530 117 567 147 608 c 0
 183 657 241 683 317 683 c 0
 394 683 444 655 444 613 c 0
 444 591 429 574 408 574 c 0
 391 574 378 584 359 611 c 0
 335 645 316 658 288 658 c 0
 243 658 204 628 190 585 c 0
 185 568 182 537 182 493 c 2
 182 450 l 1
 339 450 l 2
 379 450 408 453 452 460 c 1
 456 457 l 1
 454 404 454 381 454 359 c 2
 454 97 l 2
 454 33 465 20 521 15 c 1
 521 0 l 1
 301 0 l 1
 301 15 l 1
 363 20 370 29 370 97 c 2
 370 361 l 2
 370 414 365 417 269 417 c 2
 183 417 l 1
 183 88 l 2
 183 33 196 19 252 15 c 1
 252 0 l 1
 32 0 l 1
 32 15 l 1
 88 17 99 30 99 94 c 2
 99 417 l 1
 31 417 l 1
EndSplineSet
Ligature: 0 0 'liga' f i
EndChar
StartChar: fl
Encoding: 175 64258 110
Width: 556
Flags: W
HStem: 0 15<32 46.5 246.5 256 306 319 507.5 521> 418 32<32 101 185 373> 656 27<250 268>
VStem: 101 84<77 417> 373 84<77 417 450 681>
Fore
32 418 m 1
 32 450 l 1
 103 450 l 1
 107 538 117 577 147 620 c 0
 175 659 221 683 268 683 c 0
 292 683 321 677 349 666 c 0
 364 661 374 658 379 658 c 0
 388 658 402 663 421 672 c 0
 433 678 444 682 452 683 c 1
 457 681 l 1
 457 81 l 2
 457 29 467 19 521 15 c 1
 521 0 l 1
 306 0 l 1
 306 15 l 1
 358 19 373 35 373 84 c 2
 373 418 l 1
 185 418 l 1
 185 79 l 2
 185 33 199 21 256 15 c 1
 256 0 l 1
 32 0 l 1
 32 15 l 1
 61 17 71 19 81 26 c 0
 95 35 101 60 101 105 c 2
 101 418 l 1
 32 418 l 1
373 450 m 1
 373 591 l 1
 368 586 364 584 357 584 c 0
 334 584 321 593 302 621 c 0
 284 648 272 656 250 656 c 0
 206 656 185 606 185 502 c 2
 185 450 l 1
 373 450 l 1
EndSplineSet
Ligature: 0 0 'liga' f l
EndChar
StartChar: endash
Encoding: 177 8211 111
Width: 500
Flags: W
HStem: 201 49<0 500>
Fore
0 250 m 1
 500 250 l 1
 500 201 l 1
 0 201 l 1
 0 250 l 1
EndSplineSet
EndChar
StartChar: dagger
Encoding: 178 8224 112
Width: 500
Flags: W
HStem: 404 87<97 108 394 412> 656 20G<239 263>
VStem: 241 22<-149 12 438 438 456 490.606>
Fore
263 -149 m 1
 241 -149 l 1
 241 -26 l 2
 241 65 223 185 198 253 c 1
 228 284 241 339 240 438 c 1
 206 435 189 431 149 416 c 0
 125 407 115 404 103 404 c 0
 75 404 59 419 59 447 c 0
 59 473 76 491 99 491 c 0
 110 491 128 486 148 478 c 0
 189 461 206 457 240 456 c 1
 241 509 236 533 216 584 c 0
 209 603 204 620 204 630 c 0
 204 654 227 676 251 676 c 0
 275 676 298 654 298 630 c 0
 298 620 293 603 285 584 c 0
 266 534 261 510 261 456 c 1
 297 457 313 461 354 478 c 0
 374 486 392 491 404 491 c 0
 426 491 443 472 443 447 c 0
 443 422 427 404 405 404 c 0
 392 404 373 409 353 416 c 0
 311 432 296 435 261 438 c 1
 261 340 274 283 303 253 c 1
 276 183 263 93 263 -26 c 2
 263 -149 l 1
EndSplineSet
EndChar
StartChar: daggerdbl
Encoding: 179 8225 113
Width: 500
Flags: W
HStem: 32 87<89 106 393 411> 404 87<95 107 393 411> 656 20G<238 262.5>
VStem: 239 21<67 67 85 131.962 438 438 456 492.088>
Fore
261 456 m 1
 297 457 312 461 354 478 c 0
 373 486 391 491 403 491 c 0
 425 491 442 472 442 447 c 0
 442 422 426 404 404 404 c 0
 392 404 372 409 352 416 c 0
 311 432 295 435 261 438 c 1
 260 343 271 297 301 260 c 1
 270 225 260 183 260 85 c 1
 294 88 309 91 351 107 c 0
 370 114 390 119 402 119 c 0
 425 119 441 102 441 75 c 0
 441 50 424 32 401 32 c 0
 390 32 372 37 353 45 c 0
 311 62 296 66 260 67 c 1
 260 14 264 -11 284 -61 c 0
 291 -80 296 -97 296 -107 c 0
 296 -131 274 -153 249 -153 c 0
 225 -153 203 -131 203 -107 c 0
 203 -97 208 -80 215 -61 c 0
 235 -11 239 14 239 67 c 1
 205 66 187 62 146 45 c 0
 127 37 109 32 98 32 c 0
 75 32 58 50 58 76 c 0
 58 102 74 119 97 119 c 0
 108 119 128 114 148 107 c 0
 190 91 205 88 239 85 c 1
 240 183 228 233 199 260 c 1
 229 299 241 351 240 438 c 1
 205 435 189 431 149 416 c 0
 125 407 115 404 103 404 c 0
 75 404 59 419 59 447 c 0
 59 473 76 491 99 491 c 0
 110 491 128 486 147 478 c 0
 188 461 206 457 240 456 c 1
 240 509 236 533 216 584 c 0
 209 603 204 620 204 630 c 0
 204 654 226 676 250 676 c 0
 275 676 297 654 297 630 c 0
 297 620 292 603 285 584 c 0
 265 534 261 510 261 456 c 1
EndSplineSet
EndChar
StartChar: periodcentered
Encoding: 180 183 114
Width: 250
Flags: W
Fore
125 310 m 0
 155 310 181 284 181 253 c 0
 181 224 155 199 124 199 c 0
 95 199 70 224 70 253 c 0
 70 284 95 310 125 310 c 0
EndSplineSet
EndChar
StartChar: paragraph
Encoding: 182 182 115
Width: 453
Flags: W
HStem: -154 22<84 99.6 437.333 450> 640 22<187 296>
VStem: -22 76<453 503> 84 154<-154 640> 172 66<-59 640> 296 66<-154 583>
Fore
238 640 m 1xf4
 238 -154 l 1
 84 -154 l 1
 84 -132 l 1xf4
 162 -127 172 -115 172 -31 c 2
 172 273 l 1xec
 109 275 81 283 48 307 c 0
 1 339 -22 396 -22 477 c 0
 -22 607 40 662 187 662 c 2
 450 662 l 1
 450 643 l 1
 373 636 362 625 362 553 c 2
 362 -42 l 2
 362 -113 374 -126 450 -132 c 1
 450 -154 l 1
 296 -154 l 1
 296 640 l 1
 238 640 l 1xf4
172 295 m 1xec
 172 640 l 1
 132 637 115 631 97 618 c 0
 68 597 54 552 54 481 c 0
 54 355 86 304 172 295 c 1xec
EndSplineSet
EndChar
StartChar: bullet
Encoding: 183 8226 116
Width: 350
Flags: W
HStem: 446 20G<136.5 212.5>
Fore
174 466 m 0
 251 466 310 406 310 329 c 0
 310 257 249 196 175 196 c 0
 100 196 40 256 40 332 c 0
 40 406 99 466 174 466 c 0
EndSplineSet
EndChar
StartChar: quotesinglbase
Encoding: 184 8218 117
Width: 333
Flags: W
HStem: -22 20G<164.5 169>
VStem: 179 39<-16 13>
Fore
106 -141 m 1
 97 -122 l 1
 151 -85 179 -48 179 -16 c 0
 179 -8 173 -2 165 -2 c 0
 164 -2 164 -2 157 -4 c 0
 151 -5 144 -6 138 -6 c 0
 102 -6 79 13 79 45 c 0
 79 79 103 102 138 102 c 0
 183 102 218 63 218 13 c 0
 218 -47 173 -108 106 -141 c 1
EndSplineSet
EndChar
StartChar: quotedblbase
Encoding: 185 8222 118
Width: 444
Flags: W
HStem: -22 20G<130.5 135 362.5 367>
VStem: 45 139<13 45> 145 39<-16 13> 277 139<13 45> 377 39<-16 13>
Fore
72 -141 m 1xc0
 63 -122 l 1
 117 -85 145 -48 145 -16 c 0xa0
 145 -8 139 -2 131 -2 c 0
 130 -2 130 -2 123 -4 c 0
 117 -5 110 -6 104 -6 c 0
 67 -6 45 13 45 45 c 0
 45 79 69 102 104 102 c 0
 149 102 184 63 184 13 c 0
 184 -47 139 -108 72 -141 c 1xc0
304 -141 m 1
 295 -122 l 1
 349 -85 377 -48 377 -16 c 0x88
 377 -8 371 -2 363 -2 c 0
 362 -2 362 -2 355 -4 c 0
 349 -5 342 -6 336 -6 c 0
 299 -6 277 13 277 45 c 0
 277 79 301 102 336 102 c 0
 381 102 416 63 416 13 c 0x90
 416 -47 371 -108 304 -141 c 1
EndSplineSet
KernsSLIF: 89 -87 1 0 87 -76 1 0 86 -104 1 0 84 -60 1 0 225 19 1 0 65 12 1 0
EndChar
StartChar: quotedblright
Encoding: 186 8221 119
Width: 444
Flags: W
HStem: 656 20G<71.5 111.5 303.5 343.5>
VStem: 30 139<587 619> 130 39<558 587> 262 139<587 619> 362 39<558 587>
Fore
57 433 m 1xc0
 48 452 l 1
 102 489 130 526 130 558 c 0xa0
 130 566 124 572 116 572 c 0
 115 572 115 572 108 570 c 0
 102 569 95 568 89 568 c 0
 52 568 30 587 30 619 c 0
 30 653 54 676 89 676 c 0
 134 676 169 637 169 587 c 0
 169 527 124 466 57 433 c 1xc0
289 433 m 1
 280 452 l 1
 334 489 362 526 362 558 c 0x88
 362 566 356 572 348 572 c 0
 347 572 347 572 340 570 c 0
 334 569 327 568 321 568 c 0
 284 568 262 587 262 619 c 0
 262 653 286 676 321 676 c 0
 366 676 401 637 401 587 c 0x90
 401 527 356 466 289 433 c 1
EndSplineSet
KernsSLIF: 89 -2 1 0 87 6 1 0 84 11 1 0 262 -94 1 0 256 -94 1 0 257 -94 1 0 225 -99 1 0 65 -94 1 0
EndChar
StartChar: guillemotright
Encoding: 187 187 120
Width: 500
Flags: W
Fore
458 222 m 1
 427 195 l 2
 354 132 314 95 257 39 c 1
 253 34 251 33 247 33 c 0
 241 33 237 37 237 42 c 0
 237 54 280 116 355 211 c 2
 361 218 l 1
 365 224 l 1
 290 317 l 2
 261 352 236 393 236 406 c 0
 236 411 241 416 246 416 c 0
 252 416 273 398 290 377 c 1
 292 372 321 344 351 318 c 0
 360 309 368 302 374 297 c 2
 377 295 l 2
 382 290 387 285 393 281 c 1
 458 222 l 1
266 222 m 1
 235 195 l 2
 162 132 122 95 65 39 c 1
 61 34 59 33 55 33 c 0
 49 33 45 37 45 42 c 0
 45 54 88 116 163 211 c 2
 169 218 l 1
 173 224 l 1
 98 317 l 2
 69 352 44 393 44 406 c 0
 44 411 49 416 54 416 c 0
 60 416 81 398 98 377 c 1
 100 372 129 344 159 318 c 0
 168 309 176 302 182 297 c 2
 185 295 l 2
 190 290 195 285 201 281 c 1
 266 222 l 1
EndSplineSet
KernsSLIF: 89 -138 1 0 87 -95 1 0 86 -117 1 0 84 -114 1 0 262 -62 1 0 256 -62 1 0 257 -62 1 0 225 -61 1 0 65 -62 1 0
EndChar
StartChar: ellipsis
Encoding: 188 8230 121
Width: 1000
Flags: W
HStem: -11 21G<150.5 180.5 483.5 513.5 816.5 846.5>
VStem: 111 111<43 54> 444 111<43 54> 777 111<43 54>
CounterMasks: 1 00
Fore
166 100 m 0
 196 100 222 74 222 43 c 0
 222 14 196 -11 165 -11 c 0
 136 -11 111 14 111 43 c 0
 111 74 136 100 166 100 c 0
499 100 m 0
 529 100 555 74 555 43 c 0
 555 14 529 -11 498 -11 c 0
 469 -11 444 14 444 43 c 0
 444 74 469 100 499 100 c 0
832 100 m 0
 862 100 888 74 888 43 c 0
 888 14 862 -11 831 -11 c 0
 802 -11 777 14 777 43 c 0
 777 74 802 100 832 100 c 0
EndSplineSet
Ligature: 0 1 'liga' period period period
EndChar
StartChar: perthousand
Encoding: 189 8240 122
Width: 1000
Flags: W
HStem: -19 27<466 477 829 845> 302 28<536 552 897 911> 326 27<124 139> 583 26<342 376> 656 20G<149 210.5>
VStem: 7 71<423 463> 267 24<551 574> 347 72<77 119> 609 23<204 222> 709 72<79 120> 971 23<204 222>
DStem: 484 640 567 706 90 -18 137 -18
Fore
567 706 m 1xbfe0
 137 -18 l 1
 90 -18 l 1
 484 640 l 1
 447 597 416 583 363 583 c 0
 337 583 319 586 287 597 c 1
 290 579 291 567 291 553 c 0
 291 486 262 414 216 368 c 0
 187 339 159 326 125 326 c 0
 58 326 7 385 7 463 c 0
 7 576 98 676 200 676 c 0
 221 676 233 670 260 648 c 0
 296 618 319 609 359 609 c 0
 417 609 433 618 523 706 c 1
 567 706 l 1xbfe0
198 649 m 1
 190 645 179 639 174 636 c 0
 122 607 78 510 78 423 c 0
 78 381 101 353 135 353 c 0
 205 353 267 454 267 569 c 0
 267 598 263 605 242 615 c 0
 228 622 215 631 198 649 c 1
536 330 m 0xdfe0
 597 330 632 287 632 213 c 0
 632 92 554 -19 468 -19 c 0
 400 -19 347 41 347 119 c 0
 347 226 440 330 536 330 c 0xdfe0
548 302 m 0
 530 302 510 293 497 279 c 0
 453 232 419 144 419 77 c 0
 419 38 443 8 475 8 c 0
 543 8 609 109 609 214 c 0
 609 265 583 302 548 302 c 0
898 330 m 0
 959 330 994 287 994 213 c 0
 994 92 915 -19 831 -19 c 0
 762 -19 709 41 709 120 c 0
 709 226 802 330 898 330 c 0
909 302 m 0
 886 302 866 290 845 263 c 0
 812 222 781 133 781 79 c 0
 781 38 805 8 837 8 c 0
 905 8 971 109 971 214 c 0
 971 266 946 302 909 302 c 0
EndSplineSet
EndChar
StartChar: questiondown
Encoding: 191 191 123
Width: 444
Flags: W
HStem: -218 30<214 232> -31 20G<315.5 343.5> 361 107<198 218>
VStem: 30 92<-75 -50> 154 107<405 423> 287 89<-73 -52>
Fore
200 294 m 1
 217 294 l 1
 216 250 206 200 187 152 c 1
 159 88 l 2
 135 33 122 -22 122 -68 c 0
 122 -135 170 -188 230 -188 c 0
 278 -188 325 -158 325 -126 c 0
 325 -118 320 -109 308 -95 c 0
 293 -78 287 -66 287 -52 c 0
 287 -28 303 -11 328 -11 c 0
 359 -11 376 -33 376 -73 c 0
 376 -156 306 -218 214 -218 c 0
 160 -218 101 -195 66 -160 c 0
 43 -137 30 -101 30 -63 c 0
 30 -12 54 42 105 104 c 0
 168 178 186 213 200 294 c 1
208 468 m 0
 237 468 261 445 261 416 c 0
 261 386 236 361 207 361 c 0
 177 361 154 385 154 417 c 0
 154 447 176 468 208 468 c 0
EndSplineSet
EndChar
StartChar: grave
Encoding: 193 96 124
Width: 333
Flags: W
HStem: 658 20G<42.5 60.5>
Fore
242 507 m 1
 202 507 l 1
 48 604 l 2
 30 616 19 631 19 647 c 0
 19 666 32 678 53 678 c 0
 68 678 77 673 95 655 c 2
 242 507 l 1
EndSplineSet
EndChar
StartChar: acute
Encoding: 194 180 125
Width: 333
Flags: W
HStem: 658 20G<274.5 293>
Fore
133 507 m 1
 93 507 l 1
 240 655 l 2
 258 673 267 678 282 678 c 0
 304 678 317 666 317 646 c 0
 317 630 308 617 287 604 c 2
 133 507 l 1
EndSplineSet
Ligature: 0 1 'liga' space acutecomb
EndChar
StartChar: circumflex
Encoding: 195 710 126
Width: 333
Flags: W
HStem: 654 20G<135 197>
Fore
322 507 m 1
 288 507 l 1
 166 610 l 1
 45 507 l 1
 11 507 l 1
 135 674 l 1
 197 674 l 1
 322 507 l 1
EndSplineSet
EndChar
StartChar: tilde
Encoding: 196 732 127
Width: 333
Flags: W
Fore
302 638 m 1
 331 638 l 1
 310 562 281 532 226 532 c 0
 201 532 186 536 145 556 c 2
 122 567 l 2
 107 574 93 578 81 578 c 0
 58 578 41 563 30 532 c 1
 1 532 l 1
 16 597 52 633 102 633 c 0
 124 633 149 627 172 615 c 2
 196 603 l 2
 215 594 234 588 249 588 c 0
 272 588 285 600 302 638 c 1
EndSplineSet
Ligature: 0 1 'liga' space tildecomb
EndChar
StartChar: macron
Encoding: 197 175 128
Width: 333
Flags: W
HStem: 547 54<11 322>
Fore
11 601 m 1
 322 601 l 1
 322 547 l 1
 11 547 l 1
 11 601 l 1
EndSplineSet
Ligature: 0 1 'liga' space uni0304
EndChar
StartChar: breve
Encoding: 198 728 129
Width: 333
Flags: W
HStem: 507 60<153 171> 644 20G<26 55 278 307>
Fore
278 664 m 1
 307 664 l 1
 295 558 249 507 165 507 c 0
 118 507 78 526 53 561 c 0
 34 589 27 613 26 664 c 1
 55 664 l 1
 69 597 103 567 167 567 c 0
 225 567 250 588 278 664 c 1
EndSplineSet
Ligature: 0 1 'liga' space uni0306
EndChar
StartChar: dotaccent
Encoding: 199 729 130
Width: 333
Flags: W
Fore
166 622 m 0
 194 622 217 599 217 572 c 0
 217 545 194 523 166 523 c 0
 139 523 118 545 118 573 c 0
 118 599 141 622 166 622 c 0
EndSplineSet
Ligature: 0 1 'liga' space uni0307
EndChar
StartChar: dieresis
Encoding: 200 168 131
Width: 333
Flags: W
VStem: 18 99<570 575> 217 99<570 575>
Fore
66 622 m 0
 94 622 117 599 117 572 c 0
 117 545 94 523 66 523 c 0
 39 523 18 545 18 573 c 0
 18 599 41 622 66 622 c 0
265 622 m 0
 293 622 316 599 316 572 c 0
 316 545 293 523 265 523 c 0
 238 523 217 545 217 573 c 0
 217 599 240 622 265 622 c 0
EndSplineSet
Ligature: 0 1 'liga' space uni0308
EndChar
StartChar: ring
Encoding: 202 730 132
Width: 333
Flags: W
HStem: 512 34<162 170> 677 34<162 169>
VStem: 67 34<612 614> 232 34<611 615>
Fore
166 711 m 0
 221 711 266 666 266 611 c 0
 266 556 221 512 166 512 c 0
 110 512 67 556 67 612 c 0
 67 666 112 711 166 711 c 0
167 677 m 0
 131 677 101 648 101 612 c 0
 101 576 130 546 165 546 c 0
 202 546 232 575 232 611 c 0
 232 647 202 677 167 677 c 0
EndSplineSet
Ligature: 0 1 'liga' space uni030A
EndChar
StartChar: cedilla
Encoding: 203 184 133
Width: 333
Flags: W
HStem: -215 35<115 142> -100 38<133 175> -20 20G<139 174>
VStem: 186 75<-138 -129>
DStem: 139 0 174 0 98 -99 149 -65
Fore
98 -99 m 1
 139 0 l 1
 174 0 l 1
 149 -65 l 1
 159 -63 165 -62 175 -62 c 0
 229 -62 261 -88 261 -131 c 0
 261 -183 213 -215 136 -215 c 0
 104 -215 81 -211 52 -199 c 1
 66 -168 l 1
 94 -177 110 -180 131 -180 c 0
 165 -180 186 -163 186 -136 c 0
 186 -110 171 -100 133 -100 c 0
 122 -100 113 -101 105 -104 c 1
 98 -99 l 1
EndSplineSet
Ligature: 0 1 'liga' space uni0327
EndChar
StartChar: hungarumlaut
Encoding: 205 733 134
Width: 333
Flags: W
HStem: 658 20G<178.5 197 334.5 353>
Fore
193 507 m 1
 153 507 l 1
 300 655 l 2
 318 673 327 678 342 678 c 0
 364 678 377 666 377 646 c 0
 377 630 368 617 347 604 c 2
 193 507 l 1
37 507 m 1
 -3 507 l 1
 144 655 l 2
 162 673 171 678 186 678 c 0
 208 678 221 666 221 646 c 0
 221 630 212 617 191 604 c 2
 37 507 l 1
EndSplineSet
Ligature: 0 1 'liga' space uni030B
EndChar
StartChar: ogonek
Encoding: 206 731 135
Width: 333
Flags: W
HStem: -165 56<137 158> -20 20G<118 164>
VStem: 64 56<-89 -69>
Fore
229 -73 m 1
 249 -89 l 1
 212 -142 178 -165 137 -165 c 0
 96 -165 64 -132 64 -89 c 0
 64 -57 80 -30 118 0 c 1
 164 0 l 1
 133 -25 120 -46 120 -69 c 0
 120 -92 136 -109 158 -109 c 0
 179 -109 198 -99 229 -73 c 1
EndSplineSet
Ligature: 0 1 'liga' space uni0328
EndChar
StartChar: caron
Encoding: 207 711 136
Width: 333
Flags: W
HStem: 654 20G<11 45 288 322>
Fore
322 674 m 1
 197 507 l 1
 135 507 l 1
 11 674 l 1
 45 674 l 1
 166 571 l 1
 288 674 l 1
 322 674 l 1
EndSplineSet
EndChar
StartChar: emdash
Encoding: 208 8212 137
Width: 1000
Flags: W
HStem: 201 49<0 1000>
Fore
0 250 m 1
 1000 250 l 1
 1000 201 l 1
 0 201 l 1
 0 250 l 1
EndSplineSet
EndChar
StartChar: AE
Encoding: 225 198 138
Width: 889
Flags: W
HStem: 0 38<543 819> 260 39<239 398> 329 37<497 642> 443 20G<740 761> 521 141<252 816> 626 36<252 657> 642 20<252 284.5>
VStem: 398 99<89 260 299 329 299 598>
DStem: 333 581 398 618 88 97 239 299 333 581 222 260 88 97 194 207
Fore
816 521 m 1xf9
 793 521 l 1xf9
 780 612 757 626 611 626 c 2
 524 626 l 2xf5
 505 626 497 618 497 596 c 2
 497 366 l 1
 608 366 l 2
 671 366 706 375 722 396 c 0
 732 411 736 426 740 463 c 1
 761 463 l 1
 761 229 l 1
 740 229 l 1
 735 270 731 285 720 301 c 0
 707 319 680 329 642 329 c 2
 497 329 l 1
 497 91 l 2
 497 41 501 38 566 38 c 2
 642 38 l 2
 750 38 781 58 839 168 c 1
 863 168 l 1
 819 0 l 1
 309 0 l 1
 309 19 l 1
 326 21 l 2
 386 28 398 42 398 108 c 2
 398 260 l 1
 222 260 l 1
 194 207 l 2
 154 129 130 71 130 49 c 0
 130 34 155 23 198 19 c 2
 199 19 l 1
 199 0 l 1
 0 0 l 1
 0 19 l 1
 43 25 55 36 88 97 c 1
 333 581 l 2
 339 592 342 603 342 609 c 0
 342 631 317 640 252 642 c 1xf3
 252 662 l 1
 816 662 l 1
 816 521 l 1xf9
239 299 m 1
 398 299 l 1
 398 618 l 1
 239 299 l 1
EndSplineSet
EndChar
StartChar: ordfeminine
Encoding: 227 170 139
Width: 276
Flags: W
HStem: 394 47<75 105> 648 28<115 126>
VStem: 4 63<462 485> 16 60<609 625> 158 71<466 587>
Fore
270 442 m 1xd8
 270 424 l 1
 247 401 233 394 211 394 c 0
 184 394 172 406 166 438 c 1
 133 408 105 394 75 394 c 0
 34 394 4 422 4 462 c 0xe8
 4 482 13 502 26 513 c 0
 53 536 66 543 157 576 c 1
 157 606 l 2
 157 633 144 648 121 648 c 0
 99 648 76 636 76 625 c 0
 76 621 77 616 78 611 c 0
 79 608 79 605 79 603 c 0
 79 590 64 578 48 578 c 0
 30 578 16 592 16 609 c 0
 16 648 62 676 124 676 c 0
 194 676 229 644 229 580 c 2
 229 465 l 2
 229 436 231 430 242 430 c 0
 252 430 260 434 270 442 c 1xd8
158 474 m 2
 158 551 l 1
 88 526 67 511 67 485 c 0
 67 461 84 441 105 441 c 0
 118 441 130 444 147 452 c 1
 155 459 158 466 158 474 c 2
EndSplineSet
EndChar
StartChar: Lslash
Encoding: 232 321 140
Width: 611
Flags: W
HStem: 0 19<12 26.6> 0 39<251 550> 643 19<12 24.3333 278.2 294>
VStem: 99 102<94 335 325 577>
DStem: 356 473 356 424 201 384 201 335
Fore
99 325 m 1xb0
 99 553 l 2
 99 623 86 637 12 643 c 1
 12 662 l 1
 294 662 l 1
 294 643 l 1
 215 638 201 624 201 553 c 2
 201 384 l 1
 356 473 l 1
 356 424 l 1
 201 335 l 1
 201 80 l 2
 201 45 214 39 287 39 c 2
 354 39 l 2
 437 39 492 57 527 96 c 0
 542 113 556 136 573 174 c 1
 598 174 l 1
 550 0 l 1x70
 12 0 l 1
 12 19 l 1
 85 24 99 39 99 109 c 2
 99 276 l 1
 12 226 l 1
 12 275 l 1
 99 325 l 1xb0
EndSplineSet
EndChar
StartChar: Oslash
Encoding: 233 216 141
Width: 722
Flags: W
HStem: -14 36<353 371> 640 36<353 371>
VStem: 34 114<330 353> 574 114<303 353>
DStem: 151 59 184 36 56 -80 105 -80 502 575 527 540 194 123 219 88 609 734 658 734 537 627 570 604
Fore
658 734 m 1
 570 604 l 1
 611 566 628 546 646 511 c 0
 673 461 688 396 688 331 c 0
 688 128 553 -14 359 -14 c 0
 292 -14 246 -1 184 36 c 1
 105 -80 l 1
 56 -80 l 1
 151 59 l 1
 109 97 93 117 75 152 c 0
 49 202 34 267 34 330 c 0
 34 533 170 676 362 676 c 0
 428 676 473 663 537 627 c 1
 609 734 l 1
 658 734 l 1
527 540 m 1
 219 88 l 1
 262 41 303 22 361 22 c 0
 493 22 574 139 574 330 c 0
 574 419 561 475 527 540 c 1
194 123 m 1
 502 575 l 1
 458 621 416 640 361 640 c 0
 230 640 148 521 148 330 c 0
 148 242 160 187 194 123 c 1
EndSplineSet
KernsSLIF: 65 -58 0 0
EndChar
StartChar: OE
Encoding: 234 338 142
Width: 889
Flags: W
HStem: 0 38<573 841> 329 37<531 669> 444 20G<767 788> 521 141<512 838> 626 36<512 687>
VStem: 30 112<297 347> 431 100<121 329 131 602>
Fore
838 521 m 1xf6
 815 521 l 1xf6
 803 610 778 626 647 626 c 2
 596 626 l 2xee
 540 626 531 623 531 602 c 2
 531 366 l 1
 635 366 l 2
 697 366 733 376 748 397 c 0
 759 412 764 427 767 464 c 1
 788 464 l 1
 788 230 l 1
 767 230 l 1
 758 309 738 329 669 329 c 2
 531 329 l 1
 531 84 l 2
 531 47 543 37 587 38 c 2
 711 40 l 2
 774 42 810 73 861 168 c 1
 885 168 l 1
 841 0 l 1
 491 0 l 2
 470 0 410 -2 370 -4 c 0
 347 -5 326 -6 312 -6 c 0
 238 -6 170 21 120 71 c 0
 60 130 30 214 30 322 c 0
 30 437 67 537 131 593 c 0
 186 642 259 668 342 668 c 0
 356 668 359 668 407 665 c 0
 425 664 491 662 512 662 c 2
 838 662 l 1
 838 521 l 1xf6
431 131 m 2
 431 527 l 2
 431 600 401 632 332 632 c 0
 211 632 142 521 142 325 c 0
 142 135 209 31 331 31 c 0
 402 31 431 60 431 131 c 2
EndSplineSet
EndChar
StartChar: ordmasculine
Encoding: 235 186 143
Width: 310
Flags: W
HStem: 394 33<148 167> 643 33<148 161>
VStem: 6 73<533 569> 231 73<514 542>
Fore
159 676 m 0
 244 676 304 621 304 542 c 0
 304 458 238 394 151 394 c 0
 67 394 6 453 6 533 c 0
 6 618 68 676 159 676 c 0
150 643 m 0
 107 643 79 614 79 569 c 0
 79 530 88 490 104 461 c 0
 116 439 135 427 160 427 c 0
 206 427 231 458 231 514 c 0
 231 589 198 643 150 643 c 0
EndSplineSet
EndChar
StartChar: ae
Encoding: 241 230 144
Width: 667
Flags: W
HStem: -10 48<154 192> 277 30<355 616> 431 29<434 456>
VStem: 38 87<100 125> 60 87<340.288 351.969> 274 80<201 277>
Fore
620 154 m 1xec
 632 149 l 1
 605 90 586 62 559 38 c 0
 523 6 482 -10 435 -10 c 0
 378 -10 340 11 306 63 c 1
 238 7 204 -10 154 -10 c 0
 86 -10 38 35 38 100 c 0xf4
 38 160 80 201 187 245 c 2
 273 281 l 1
 275 344 l 1
 276 367 271 398 263 413 c 0
 256 427 237 436 213 436 c 0
 171 436 140 413 145 386 c 0
 146 383 146 380 146 380 c 1
 146 369 l 1
 147 352 l 1
 148 323 132 304 104 304 c 0
 77 304 60 323 60 352 c 0
 60 414 129 460 220 460 c 0
 269 460 299 448 337 415 c 1
 382 449 410 460 456 460 c 0
 557 460 605 406 616 277 c 1
 354 277 l 1
 355 178 360 146 381 107 c 0
 398 77 435 57 476 57 c 0
 533 57 572 84 620 154 c 1xec
274 201 m 2
 274 253 l 1
 153 209 125 185 125 125 c 0
 125 77 155 38 192 38 c 0
 229 38 294 70 294 88 c 0
 294 89 294 90 293 91 c 0
 280 128 274 165 274 201 c 2
355 307 m 1
 521 307 l 1
 519 394 496 431 442 431 c 0
 385 431 360 395 355 307 c 1
EndSplineSet
KernsSLIF: 121 -30 0 0 119 -28 0 0 118 -27 0 0
EndChar
StartChar: dotlessi
Encoding: 245 305 145
Width: 278
Flags: W
HStem: 0 15<16 33.25 239.8 253>
VStem: 95 84<102 353>
DStem: 175 460 175 460 20 405 179 457
Fore
175 460 m 1
 179 457 l 1
 179 102 l 2
 179 30 187 20 253 15 c 1
 253 0 l 1
 16 0 l 1
 16 15 l 1
 85 19 95 30 95 102 c 2
 95 334 l 2
 95 378 86 394 62 394 c 0
 53 394 40 393 28 391 c 2
 20 390 l 1
 20 405 l 1
 175 460 l 1
EndSplineSet
EndChar
StartChar: lslash
Encoding: 248 322 146
Width: 278
Flags: W
HStem: 0 15<21 33.6 241.25 257>
VStem: 98 84<79 318 361 375 362 681>
DStem: 98 362 98 318 20 308 20 264 259 472 259 428 182 419 182 375
Fore
98 362 m 1
 98 564 l 2
 98 611 88 625 56 625 c 0
 48 625 36 624 25 623 c 2
 19 623 l 1
 19 639 l 1
 88 656 126 666 178 683 c 1
 182 681 l 1
 182 419 l 1
 259 472 l 1
 259 428 l 1
 182 375 l 1
 182 84 l 2
 182 29 194 19 257 15 c 1
 257 0 l 1
 21 0 l 1
 21 15 l 1
 84 20 98 33 98 87 c 2
 98 318 l 1
 20 264 l 1
 20 308 l 1
 98 362 l 1
EndSplineSet
EndChar
StartChar: oslash
Encoding: 249 248 147
Width: 500
Flags: W
HStem: -10 28<245 263> 432 28<235 251>
VStem: 29 90<227 276> 380 90<203 234>
DStem: 125 28 154 11 52 -112 89 -112 317 396 340 366 158 92 179 60 398 551 437 551 341 442 372 426
Fore
437 551 m 1
 372 426 l 1
 403 404 416 392 432 368 c 0
 456 330 470 282 470 234 c 0
 470 95 374 -10 247 -10 c 0
 212 -10 189 -5 154 11 c 1
 89 -112 l 1
 52 -112 l 1
 125 28 l 1
 91 55 78 70 62 97 c 0
 41 135 29 181 29 227 c 0
 29 363 120 460 249 460 c 0
 282 460 306 455 341 442 c 1
 398 551 l 1
 437 551 l 1
340 366 m 1
 179 60 l 1
 204 30 227 18 261 18 c 0
 336 18 380 87 380 203 c 0
 380 267 369 311 340 366 c 1
158 92 m 1
 317 396 l 1
 290 422 268 432 237 432 c 0
 166 432 119 370 119 276 c 0
 119 207 131 149 158 92 c 1
EndSplineSet
EndChar
StartChar: oe
Encoding: 250 339 148
Width: 722
Flags: W
HStem: -10 26<227 255> 277 30<419 674> 431 29<221 242 498 514>
VStem: 30 90<218 271> 343 76<199 307>
Fore
679 145 m 1
 690 139 l 1
 638 31 589 -10 511 -10 c 0
 449 -10 413 17 383 85 c 1
 345 17 304 -10 236 -10 c 0
 115 -10 30 85 30 218 c 0
 30 294 59 368 105 412 c 0
 139 443 182 460 232 460 c 0
 294 460 334 440 384 384 c 1
 425 440 460 460 514 460 c 0
 564 460 612 437 640 398 c 0
 663 367 671 338 674 277 c 1
 420 277 l 1
 424 190 433 153 459 107 c 0
 477 77 512 57 549 57 c 0
 597 57 632 81 679 145 c 1
229 431 m 0
 200 431 176 420 154 398 c 0
 134 377 120 323 120 271 c 0
 120 102 161 16 240 16 c 0
 308 16 343 79 343 199 c 0
 343 348 302 431 229 431 c 0
419 307 m 1
 579 307 l 1
 579 334 l 2
 579 390 546 431 500 431 c 0
 447 431 420 390 419 307 c 1
EndSplineSet
EndChar
StartChar: germandbls
Encoding: 251 223 149
Width: 500
Flags: W
HStem: -9 29<289 310> 0 15<12 24.5> 656 27<235 253>
VStem: 12 145<0 549> 73 84<62 549> 334 87<515 536> 374 94<150 186>
Fore
73 84 m 2x68
 73 454 l 2
 73 524 82 569 103 606 c 0
 132 657 183 683 251 683 c 0
 355 683 421 623 421 531 c 0x6c
 421 459 391 426 284 377 c 1
 345 365 374 354 406 326 c 0
 446 292 468 242 468 186 c 0
 468 77 389 -9 289 -9 c 0
 232 -9 192 21 192 64 c 0
 192 91 211 112 237 112 c 0
 259 112 277 95 279 72 c 2
 281 50 l 2
 283 28 291 20 310 20 c 0
 352 20 374 65 374 150 c 0xa2
 374 285 330 354 242 357 c 0
 219 358 210 363 210 374 c 0
 210 383 218 387 239 389 c 0
 304 396 334 437 334 517 c 0
 334 604 300 656 243 656 c 0
 191 656 157 614 157 549 c 2
 157 0 l 1
 12 0 l 1
 12 15 l 1x74
 62 19 73 31 73 84 c 2x68
EndSplineSet
EndChar
StartChar: Adieresis
Encoding: 256 196 150
Width: 722
Flags: W
HStem: 0 19<15 39 213 213 451 473.279 451 504 691 706> 216 41<216 461> 654 20G<347 367> 735 99<245.892 258 454 463>
VStem: 207 99<782 787> 406 99<782 787>
DStem: 331 532 367 674 447 257 616 106 347 674 331 532 139 183 216 257 347 674 199 216 139 183 153 99 461 216 367 674 502 120 616 106
Fore
255 834 m 0
 283 834 306 811 306 784 c 0
 306 757 283 735 255 735 c 0
 228 735 207 757 207 785 c 0
 207 811 230 834 255 834 c 0
454 834 m 0
 482 834 505 811 505 784 c 0
 505 757 482 735 454 735 c 0
 427 735 406 757 406 785 c 0
 406 811 429 834 454 834 c 0
706 19 m 1
 706 0 l 1
 451 0 l 1
 451 19 l 1
 504 20 521 28 521 53 c 0
 521 67 514 93 502 120 c 2
 461 216 l 1
 199 216 l 1
 153 99 l 2
 148 86 145 72 145 60 c 0
 145 32 165 19 213 19 c 1
 213 0 l 1
 15 0 l 1
 15 19 l 1
 63 21 75 37 139 183 c 1
 347 674 l 1
 367 674 l 1
 616 106 l 1
 651 32 661 22 706 19 c 1
216 257 m 1
 447 257 l 1
 331 532 l 1
 216 257 l 1
EndSplineSet
KernsSLIF: 121 -83 0 0 119 -73 0 0 118 -81 0 0 117 -28 0 0 116 -20 0 0 39 -116 0 0 186 -91 0 0 113 -21 0 0 46 -10 0 0 111 -40 0 0 45 -23 0 0 172 -74 0 0 171 -64 0 0 103 -20 0 0 100 -28 0 0 44 -3 0 0 99 -29 0 0 98 -20 0 0 97 -6 0 0 89 -81 0 0 87 -113 0 0 86 -131 0 0 85 -62 0 0 84 -54 0 0 81 -60 0 0 79 -60 0 0 71 -57 0 0 67 -51 0 0
Ligature: 0 0 'liga' A uni0308
EndChar
StartChar: Aacute
Encoding: 257 193 151
Width: 722
Flags: W
HStem: 0 19<15 39 213 213 451 473.279 451 504 691 706> 216 41<216 461> 654 20G<347 367>
DStem: 331 532 367 674 447 257 616 106 347 674 331 532 139 183 216 257 347 674 199 216 139 183 153 99 461 216 367 674 502 120 616 106
Fore
323 719 m 1
 283 719 l 1
 430 867 l 2
 448 885 457 890 472 890 c 0
 494 890 507 878 507 858 c 0
 507 842 498 829 477 816 c 2
 323 719 l 1
706 19 m 1
 706 0 l 1
 451 0 l 1
 451 19 l 1
 504 20 521 28 521 53 c 0
 521 67 514 93 502 120 c 2
 461 216 l 1
 199 216 l 1
 153 99 l 2
 148 86 145 72 145 60 c 0
 145 32 165 19 213 19 c 1
 213 0 l 1
 15 0 l 1
 15 19 l 1
 63 21 75 37 139 183 c 1
 347 674 l 1
 367 674 l 1
 616 106 l 1
 651 32 661 22 706 19 c 1
216 257 m 1
 447 257 l 1
 331 532 l 1
 216 257 l 1
EndSplineSet
KernsSLIF: 121 -83 0 0 119 -73 0 0 118 -81 0 0 117 -28 0 0 116 -20 0 0 39 -116 0 0 113 -21 0 0 46 -10 0 0 111 -40 0 0 45 -23 0 0 172 -74 0 0 171 -64 0 0 103 -20 0 0 101 -27 0 0 100 -28 0 0 44 -3 0 0 99 -29 0 0 98 -20 0 0 97 -6 0 0 89 -81 0 0 87 -113 0 0 86 -131 0 0 85 -62 0 0 84 -54 0 0 81 -60 0 0 79 -60 0 0 71 -57 0 0 67 -51 0 0
Ligature: 0 0 'liga' A acutecomb
EndChar
StartChar: Agrave
Encoding: 258 192 152
Width: 722
Flags: W
HStem: 0 19<15 39 213 213 451 473.279 451 504 691 706> 216 41<216 461> 654 20G<347 367>
DStem: 331 532 367 674 447 257 616 106 347 674 331 532 139 183 216 257 347 674 199 216 139 183 153 99 461 216 367 674 502 120 616 106
Fore
437 720 m 1
 397 720 l 1
 243 817 l 2
 225 829 214 844 214 860 c 0
 214 879 227 891 248 891 c 0
 263 891 272 886 290 868 c 2
 437 720 l 1
706 19 m 1
 706 0 l 1
 451 0 l 1
 451 19 l 1
 504 20 521 28 521 53 c 0
 521 67 514 93 502 120 c 2
 461 216 l 1
 199 216 l 1
 153 99 l 2
 148 86 145 72 145 60 c 0
 145 32 165 19 213 19 c 1
 213 0 l 1
 15 0 l 1
 15 19 l 1
 63 21 75 37 139 183 c 1
 347 674 l 1
 367 674 l 1
 616 106 l 1
 651 32 661 22 706 19 c 1
216 257 m 1
 447 257 l 1
 331 532 l 1
 216 257 l 1
EndSplineSet
KernsSLIF: 46 -10 0 0 44 -3 0 0 89 -81 0 0 87 -113 0 0 86 -131 0 0 85 -62 0 0 84 -54 0 0 81 -60 0 0 79 -60 0 0 71 -57 0 0 67 -51 0 0
Ligature: 0 0 'liga' A gravecomb
EndChar
StartChar: Acircumflex
Encoding: 259 194 153
Width: 722
Flags: W
HStem: 0 19<15 39 213 213 451 473.279 451 504 691 706> 216 41<216 461> 654 20G<347 367>
DStem: 331 532 367 674 447 257 616 106 347 674 331 532 139 183 216 257 347 674 199 216 139 183 153 99 461 216 367 674 502 120 616 106
Fore
512 721 m 1
 478 721 l 1
 356 824 l 1
 235 721 l 1
 201 721 l 1
 325 888 l 1
 387 888 l 1
 512 721 l 1
706 19 m 1
 706 0 l 1
 451 0 l 1
 451 19 l 1
 504 20 521 28 521 53 c 0
 521 67 514 93 502 120 c 2
 461 216 l 1
 199 216 l 1
 153 99 l 2
 148 86 145 72 145 60 c 0
 145 32 165 19 213 19 c 1
 213 0 l 1
 15 0 l 1
 15 19 l 1
 63 21 75 37 139 183 c 1
 347 674 l 1
 367 674 l 1
 616 106 l 1
 651 32 661 22 706 19 c 1
216 257 m 1
 447 257 l 1
 331 532 l 1
 216 257 l 1
EndSplineSet
KernsSLIF: 46 -10 0 0 44 -3 0 0 89 -81 0 0 87 -113 0 0 86 -131 0 0 85 -62 0 0 84 -54 0 0 81 -60 0 0 79 -60 0 0 71 -57 0 0 67 -51 0 0
Ligature: 0 0 'liga' A uni0302
EndChar
StartChar: Abreve
Encoding: 260 258 154
Width: 722
Flags: W
HStem: 0 19<15 39 213 213 451 473.279 451 504 691 706> 216 41<216 461> 654 20G<347 367> 719 60<345 369>
DStem: 331 532 367 674 447 257 616 106 347 674 331 532 139 183 216 257 347 674 199 216 139 183 153 99 461 216 367 674 502 120 616 106
Fore
473 876 m 1
 502 876 l 1
 490 770 444 719 360 719 c 0
 313 719 273 738 248 773 c 0
 229 801 222 825 221 876 c 1
 250 876 l 1
 264 809 298 779 362 779 c 0
 420 779 445 800 473 876 c 1
706 19 m 1
 706 0 l 1
 451 0 l 1
 451 19 l 1
 504 20 521 28 521 53 c 0
 521 67 514 93 502 120 c 2
 461 216 l 1
 199 216 l 1
 153 99 l 2
 148 86 145 72 145 60 c 0
 145 32 165 19 213 19 c 1
 213 0 l 1
 15 0 l 1
 15 19 l 1
 63 21 75 37 139 183 c 1
 347 674 l 1
 367 674 l 1
 616 106 l 1
 651 32 661 22 706 19 c 1
216 257 m 1
 447 257 l 1
 331 532 l 1
 216 257 l 1
EndSplineSet
Ligature: 0 0 'liga' A uni0306
EndChar
StartChar: Atilde
Encoding: 261 195 155
Width: 722
Flags: W
HStem: 0 19<15 39 213 213 451 473.279 451 504 691 706> 216 41<216 461> 654 20G<347 367> 744 56<420 443> 790 55<275 296>
DStem: 331 532 367 674 447 257 616 106 347 674 331 532 139 183 216 257 347 674 199 216 139 183 153 99 461 216 367 674 502 120 616 106
Fore
496 850 m 1xf0
 525 850 l 1
 504 774 475 744 420 744 c 0xf0
 395 744 380 748 339 768 c 2
 316 779 l 2
 301 786 287 790 275 790 c 0xe8
 252 790 235 775 224 744 c 1
 195 744 l 1xf0
 210 809 246 845 296 845 c 0xe8
 318 845 343 839 366 827 c 2
 390 815 l 2
 409 806 428 800 443 800 c 0
 466 800 479 812 496 850 c 1xf0
706 19 m 1
 706 0 l 1
 451 0 l 1
 451 19 l 1
 504 20 521 28 521 53 c 0
 521 67 514 93 502 120 c 2
 461 216 l 1
 199 216 l 1
 153 99 l 2
 148 86 145 72 145 60 c 0
 145 32 165 19 213 19 c 1
 213 0 l 1
 15 0 l 1
 15 19 l 1
 63 21 75 37 139 183 c 1
 347 674 l 1
 367 674 l 1
 616 106 l 1
 651 32 661 22 706 19 c 1
216 257 m 1
 447 257 l 1
 331 532 l 1
 216 257 l 1
EndSplineSet
KernsSLIF: 46 -10 0 0 44 -3 0 0 89 -81 0 0 87 -113 0 0 86 -131 0 0 85 -62 0 0 84 -54 0 0 81 -60 0 0 79 -60 0 0 71 -57 0 0 67 -51 0 0
Ligature: 0 0 'liga' A tildecomb
EndChar
StartChar: Aring
Encoding: 262 197 156
Width: 722
Flags: W
HStem: 0 19<15 39 213 213 451 473.279 451 504 691 706> 216 41<216 461> 654 20G<347 367> 716 34<345 355> 881 34<345 354>
VStem: 252 34<816 818> 417 34<803.712 818>
DStem: 331 532 367 674 447 257 616 106 347 674 331 532 139 183 216 257 347 674 199 216 139 183 153 99 461 216 367 674 502 120 616 106
Fore
351 915 m 0
 406 915 451 870 451 815 c 0
 451 760 406 716 351 716 c 0
 295 716 252 760 252 816 c 0
 252 870 297 915 351 915 c 0
352 881 m 0
 316 881 286 852 286 816 c 0
 286 780 315 750 350 750 c 0
 387 750 417 779 417 815 c 0
 417 851 387 881 352 881 c 0
706 19 m 1
 706 0 l 1
 451 0 l 1
 451 19 l 1
 504 20 521 28 521 53 c 0
 521 67 514 93 502 120 c 2
 461 216 l 1
 199 216 l 1
 153 99 l 2
 148 86 145 72 145 60 c 0
 145 32 165 19 213 19 c 1
 213 0 l 1
 15 0 l 1
 15 19 l 1
 63 21 75 37 139 183 c 1
 347 674 l 1
 367 674 l 1
 616 106 l 1
 651 32 661 22 706 19 c 1
216 257 m 1
 447 257 l 1
 331 532 l 1
 216 257 l 1
EndSplineSet
KernsSLIF: 121 -83 0 0 119 -73 0 0 118 -81 0 0 117 -28 0 0 116 -20 0 0 39 -116 0 0 186 -91 0 0 113 -21 0 0 46 -10 0 0 111 -40 0 0 45 -23 0 0 172 -74 0 0 171 -64 0 0 103 -20 0 0 101 -27 0 0 100 -28 0 0 44 -3 0 0 99 -29 0 0 98 -20 0 0 97 -6 0 0 89 -81 0 0 87 -113 0 0 86 -131 0 0 85 -62 0 0 84 -54 0 0 81 -60 0 0 79 -60 0 0 71 -57 0 0 67 -51 0 0
Ligature: 0 0 'liga' A uni030A
EndChar
StartChar: Aogonek
Encoding: 263 260 157
Width: 722
Flags: W
HStem: -165 56<674 695> 0 19<15 39 213 213 451 473.279 451 504> 216 41<216 461> 654 20G<347 367>
VStem: 601 56<-89 -69>
DStem: 331 532 367 674 447 257 616 106 347 674 331 532 139 183 216 257 347 674 199 216 139 183 153 99 461 216 367 674 502 120 616 106
Fore
706 19 m 1
 706 0 l 1
 684 -5 657 -44 657 -69 c 0
 657 -92 673 -109 695 -109 c 0
 716 -109 735 -99 766 -73 c 1
 786 -89 l 1
 749 -142 715 -165 674 -165 c 0
 633 -165 601 -132 601 -89 c 0
 601 -56 616 -32 655 0 c 1
 451 0 l 1
 451 19 l 1
 504 20 521 28 521 53 c 0
 521 67 514 93 502 120 c 2
 461 216 l 1
 199 216 l 1
 153 99 l 2
 148 86 145 72 145 60 c 0
 145 32 165 19 213 19 c 1
 213 0 l 1
 15 0 l 1
 15 19 l 1
 63 21 75 37 139 183 c 1
 347 674 l 1
 367 674 l 1
 616 106 l 1
 651 32 661 22 706 19 c 1
216 257 m 1
 447 257 l 1
 331 532 l 1
 216 257 l 1
EndSplineSet
Ligature: 0 0 'liga' A uni0328
EndChar
StartChar: Ccedilla
Encoding: 264 199 158
Width: 667
Flags: W
HStem: -215 35<283 305> -100 38<300 342> -14 44<360 392> 450 21G<597 620> 636 40<359 392>
VStem: 28 116<312 346> 353 75<-138 -129>
DStem: 302 -10 336 -13 265 -99 316 -65
Fore
336 -13 m 1
 316 -65 l 1
 326 -63 332 -62 342 -62 c 0
 396 -62 428 -88 428 -131 c 0
 428 -183 380 -215 303 -215 c 0
 271 -215 248 -211 219 -199 c 1
 233 -168 l 1
 261 -177 277 -180 298 -180 c 0
 332 -180 353 -163 353 -136 c 0
 353 -110 338 -100 300 -100 c 0
 289 -100 280 -101 272 -104 c 1
 265 -99 l 1
 302 -10 l 1
 135 14 28 144 28 325 c 0
 28 435 66 528 136 590 c 0
 198 645 281 676 363 676 c 0
 410 676 460 668 509 652 c 0
 524 646 539 643 548 643 c 0
 568 643 584 655 590 676 c 1
 611 676 l 1
 620 450 l 1
 597 450 l 1
 578 515 563 543 531 575 c 0
 491 615 439 636 382 636 c 0
 237 636 144 519 144 338 c 0
 144 227 175 137 230 88 c 0
 273 50 329 30 392 30 c 0
 475 30 541 60 615 131 c 1
 633 113 l 1
 573 32 473 -14 360 -14 c 0
 352 -14 345 -14 336 -13 c 1
EndSplineSet
KernsSLIF: 65 -27 0 0
Ligature: 0 0 'liga' C uni0327
EndChar
StartChar: Cacute
Encoding: 265 262 159
Width: 667
Flags: W
HStem: -14 44<360 392> 450 21G<597 620> 636 40<359 392>
VStem: 28 116<305 355>
Fore
360 719 m 1
 320 719 l 1
 467 867 l 2
 485 885 494 890 509 890 c 0
 531 890 544 878 544 858 c 0
 544 842 535 829 514 816 c 2
 360 719 l 1
620 450 m 1
 597 450 l 1
 578 515 563 543 531 575 c 0
 491 615 439 636 382 636 c 0
 237 636 144 519 144 338 c 0
 144 227 175 137 230 88 c 0
 273 50 329 30 392 30 c 0
 475 30 541 60 615 131 c 1
 633 113 l 1
 572 32 473 -14 360 -14 c 0
 261 -14 169 24 109 89 c 0
 58 146 28 232 28 325 c 0
 28 435 66 528 136 590 c 0
 198 645 281 676 363 676 c 0
 410 676 460 668 509 652 c 0
 524 646 539 643 548 643 c 0
 568 643 584 655 590 676 c 1
 611 676 l 1
 620 450 l 1
EndSplineSet
Ligature: 0 0 'liga' C acutecomb
EndChar
StartChar: Ccaron
Encoding: 266 268 160
Width: 667
Flags: W
HStem: -14 44<360 392> 450 21G<597 620> 636 40<359 392>
VStem: 28 116<305 355>
Fore
519 886 m 1
 394 719 l 1
 332 719 l 1
 208 886 l 1
 242 886 l 1
 363 783 l 1
 485 886 l 1
 519 886 l 1
620 450 m 1
 597 450 l 1
 578 515 563 543 531 575 c 0
 491 615 439 636 382 636 c 0
 237 636 144 519 144 338 c 0
 144 227 175 137 230 88 c 0
 273 50 329 30 392 30 c 0
 475 30 541 60 615 131 c 1
 633 113 l 1
 572 32 473 -14 360 -14 c 0
 261 -14 169 24 109 89 c 0
 58 146 28 232 28 325 c 0
 28 435 66 528 136 590 c 0
 198 645 281 676 363 676 c 0
 410 676 460 668 509 652 c 0
 524 646 539 643 548 643 c 0
 568 643 584 655 590 676 c 1
 611 676 l 1
 620 450 l 1
EndSplineSet
Ligature: 0 0 'liga' C uni030C
EndChar
StartChar: Dcaron
Encoding: 267 270 161
Width: 722
Flags: W
HStem: 0 19<12 27.2> 0 37<235 296> 625 37<12 284> 643 19<12 23.2857>
VStem: 100 102<87 586> 572 109<319 353>
Fore
100 109 m 2x8c
 100 553 l 2
 100 627 91 636 12 643 c 1x9c
 12 662 l 1
 282 662 l 2
 419 662 528 626 596 557 c 0
 651 502 681 424 681 334 c 0
 681 237 644 148 579 89 c 0
 517 33 412 0 296 0 c 2x6c
 12 0 l 1
 12 19 l 1
 88 24 100 37 100 109 c 2x8c
202 586 m 2
 202 78 l 2
 202 46 214 37 254 37 c 0
 341 37 399 49 450 78 c 0
 531 125 572 209 572 327 c 0
 572 435 531 521 453 575 c 0
 405 609 340 625 254 625 c 0x6c
 213 625 202 617 202 586 c 2
514 886 m 1
 389 719 l 1
 327 719 l 1
 203 886 l 1
 237 886 l 1
 358 783 l 1
 480 886 l 1
 514 886 l 1
EndSplineSet
Ligature: 0 0 'liga' D uni030C
EndChar
StartChar: Edieresis
Encoding: 268 203 162
Width: 611
Flags: W
HStem: 0 19<12 26.6> 0 37<283 552> 327 41<201 381> 443 20G<465 488> 519 143<12 546> 624 38<12 405> 643 19<12 24.3333> 735 99<204 210 403 413>
VStem: 99 102<95 327 109 590> 156 99<782 787> 355 99<782 787>
Fore
204 834 m 0x3160
 232 834 255 811 255 784 c 0
 255 757 232 735 204 735 c 0
 177 735 156 757 156 785 c 0
 156 811 179 834 204 834 c 0x3160
403 834 m 0
 431 834 454 811 454 784 c 0
 454 757 431 735 403 735 c 0
 376 735 355 757 355 785 c 0
 355 811 378 834 403 834 c 0
597 169 m 1
 552 0 l 1x75a0
 12 0 l 1
 12 19 l 1
 85 24 99 39 99 109 c 2
 99 553 l 2
 99 623 86 637 12 643 c 1xb3a0
 12 662 l 1
 543 662 l 1
 546 519 l 1
 521 519 l 1x39a0
 504 609 482 624 369 624 c 2
 234 624 l 2
 207 624 201 618 201 590 c 2
 201 368 l 1
 355 368 l 2
 402 368 430 376 443 393 c 0
 454 407 458 422 465 463 c 1
 488 463 l 1
 488 231 l 1
 465 231 l 1
 452 314 437 327 355 327 c 2
 201 327 l 1
 201 80 l 2
 201 63 203 52 208 49 c 1
 215 42 257 37 306 37 c 2
 333 37 l 2x75a0
 476 37 519 61 569 169 c 1
 597 169 l 1
EndSplineSet
Ligature: 0 0 'liga' E uni0308
EndChar
StartChar: Eacute
Encoding: 269 201 163
Width: 611
Flags: W
HStem: 0 19<12 26.6> 0 37<270 552> 327 41<201 381> 443 20G<465 488> 519 143<12 546> 624 38<12 397> 643 19<12 24.3333>
VStem: 99 102<95 327 109 590>
Fore
272 719 m 1x31
 232 719 l 1
 379 867 l 2
 397 885 406 890 421 890 c 0
 443 890 456 878 456 858 c 0
 456 842 447 829 426 816 c 2
 272 719 l 1x31
597 169 m 1
 552 0 l 1x75
 12 0 l 1
 12 19 l 1
 85 24 99 39 99 109 c 2
 99 553 l 2
 99 623 86 637 12 643 c 1xb3
 12 662 l 1
 543 662 l 1
 546 519 l 1
 521 519 l 1x39
 504 609 482 624 369 624 c 2
 234 624 l 2
 207 624 201 618 201 590 c 2
 201 368 l 1
 355 368 l 2
 402 368 430 376 443 393 c 0
 454 407 458 422 465 463 c 1
 488 463 l 1
 488 231 l 1
 465 231 l 1
 452 314 437 327 355 327 c 2
 201 327 l 1
 201 80 l 2
 201 63 203 52 208 49 c 1
 215 42 257 37 306 37 c 2
 333 37 l 2x75
 476 37 519 61 569 169 c 1
 597 169 l 1
EndSplineSet
Ligature: 0 0 'liga' E acutecomb
EndChar
StartChar: Egrave
Encoding: 270 200 164
Width: 611
Flags: W
HStem: 0 19<12 26.6> 0 37<283 552> 327 41<201 381> 443 20G<465 488> 519 143<12 546> 624 38<12 397> 643 19<12 24.3333>
VStem: 99 102<95 327 109 590>
Fore
381 719 m 1x31
 341 719 l 1
 187 816 l 2
 169 828 158 843 158 859 c 0
 158 878 171 890 192 890 c 0
 207 890 216 885 234 867 c 2
 381 719 l 1x31
597 169 m 1
 552 0 l 1x75
 12 0 l 1
 12 19 l 1
 85 24 99 39 99 109 c 2
 99 553 l 2
 99 623 86 637 12 643 c 1xb3
 12 662 l 1
 543 662 l 1
 546 519 l 1
 521 519 l 1x39
 504 609 482 624 369 624 c 2
 234 624 l 2
 207 624 201 618 201 590 c 2
 201 368 l 1
 355 368 l 2
 402 368 430 376 443 393 c 0
 454 407 458 422 465 463 c 1
 488 463 l 1
 488 231 l 1
 465 231 l 1
 452 314 437 327 355 327 c 2
 201 327 l 1
 201 80 l 2
 201 63 203 52 208 49 c 1
 215 42 257 37 306 37 c 2
 333 37 l 2x75
 476 37 519 61 569 169 c 1
 597 169 l 1
EndSplineSet
Ligature: 0 0 'liga' E gravecomb
EndChar
StartChar: Ecircumflex
Encoding: 271 202 165
Width: 611
Flags: W
HStem: 0 19<12 26.6> 0 37<273 552> 327 41<201 381> 443 20G<465 488> 519 143<12 546> 624 38<12 397> 643 19<12 24.3333>
VStem: 99 102<95 327 109 590>
Fore
462 719 m 1x31
 428 719 l 1
 306 822 l 1
 185 719 l 1
 151 719 l 1
 275 886 l 1
 337 886 l 1
 462 719 l 1x31
597 169 m 1
 552 0 l 1x75
 12 0 l 1
 12 19 l 1
 85 24 99 39 99 109 c 2
 99 553 l 2
 99 623 86 637 12 643 c 1xb3
 12 662 l 1
 543 662 l 1
 546 519 l 1
 521 519 l 1x39
 504 609 482 624 369 624 c 2
 234 624 l 2
 207 624 201 618 201 590 c 2
 201 368 l 1
 355 368 l 2
 402 368 430 376 443 393 c 0
 454 407 458 422 465 463 c 1
 488 463 l 1
 488 231 l 1
 465 231 l 1
 452 314 437 327 355 327 c 2
 201 327 l 1
 201 80 l 2
 201 63 203 52 208 49 c 1
 215 42 257 37 306 37 c 2
 333 37 l 2x75
 476 37 519 61 569 169 c 1
 597 169 l 1
EndSplineSet
Ligature: 0 0 'liga' E uni0302
EndChar
StartChar: Ecaron
Encoding: 272 282 166
Width: 611
Flags: W
HStem: 0 19<12 26.6> 0 37<272 552> 327 41<201 381> 443 20G<465 488> 519 143<12 546> 624 38<12 397> 643 19<12 24.3333>
VStem: 99 102<95 327 109 590>
Fore
461 886 m 1x31
 336 719 l 1
 274 719 l 1
 150 886 l 1
 184 886 l 1
 305 783 l 1
 427 886 l 1
 461 886 l 1x31
597 169 m 1
 552 0 l 1x75
 12 0 l 1
 12 19 l 1
 85 24 99 39 99 109 c 2
 99 553 l 2
 99 623 86 637 12 643 c 1xb3
 12 662 l 1
 543 662 l 1
 546 519 l 1
 521 519 l 1x39
 504 609 482 624 369 624 c 2
 234 624 l 2
 207 624 201 618 201 590 c 2
 201 368 l 1
 355 368 l 2
 402 368 430 376 443 393 c 0
 454 407 458 422 465 463 c 1
 488 463 l 1
 488 231 l 1
 465 231 l 1
 452 314 437 327 355 327 c 2
 201 327 l 1
 201 80 l 2
 201 63 203 52 208 49 c 1
 215 42 257 37 306 37 c 2
 333 37 l 2x75
 476 37 519 61 569 169 c 1
 597 169 l 1
EndSplineSet
Ligature: 0 0 'liga' E uni030C
EndChar
StartChar: Edotaccent
Encoding: 273 278 167
Width: 611
Flags: W
HStem: 0 19<12 26.6> 0 37<283 552> 327 41<201 381> 443 20G<465 488> 519 143<12 546> 624 38<12 397> 643 19<12 24.3333> 735 99<305 309>
VStem: 99 102<95 327 109 590> 257 99<782 787>
Fore
305 834 m 0x31c0
 333 834 356 811 356 784 c 0
 356 757 333 735 305 735 c 0
 278 735 257 757 257 785 c 0
 257 811 280 834 305 834 c 0x31c0
597 169 m 1
 552 0 l 1x75c0
 12 0 l 1
 12 19 l 1
 85 24 99 39 99 109 c 2
 99 553 l 2
 99 623 86 637 12 643 c 1xb3c0
 12 662 l 1
 543 662 l 1
 546 519 l 1
 521 519 l 1x39c0
 504 609 482 624 369 624 c 2
 234 624 l 2
 207 624 201 618 201 590 c 2
 201 368 l 1
 355 368 l 2
 402 368 430 376 443 393 c 0
 454 407 458 422 465 463 c 1
 488 463 l 1
 488 231 l 1
 465 231 l 1
 452 314 437 327 355 327 c 2
 201 327 l 1
 201 80 l 2
 201 63 203 52 208 49 c 1
 215 42 257 37 306 37 c 2
 333 37 l 2x75c0
 476 37 519 61 569 169 c 1
 597 169 l 1
EndSplineSet
Ligature: 0 0 'liga' E uni0307
EndChar
StartChar: Eogonek
Encoding: 274 280 168
Width: 611
Flags: W
HStem: -165 56<499 520> 0 19<12 26.6> 0 37<283 480> 327 41<201 381> 443 20G<465 488> 519 143<12 546> 624 38<12 397> 643 19<12 24.3333>
VStem: 99 102<81 327 109 590> 426 56<-89 -69>
Fore
552 0 m 1xbac0
 546 0 l 2
 516 0 482 -37 482 -69 c 0
 482 -92 498 -109 520 -109 c 0
 541 -109 560 -99 591 -73 c 1
 611 -89 l 1
 574 -142 540 -165 499 -165 c 0
 458 -165 426 -132 426 -89 c 0
 426 -56 441 -31 480 0 c 1xbac0
 12 0 l 1
 12 19 l 1
 85 24 99 38 99 109 c 2
 99 553 l 2
 99 623 86 637 12 643 c 1xd9c0
 12 662 l 1
 543 662 l 1
 546 519 l 1
 521 519 l 1x9cc0
 504 609 482 624 369 624 c 2
 234 624 l 2
 207 624 201 618 201 590 c 2
 201 368 l 1
 355 368 l 2
 402 368 430 376 443 393 c 0
 454 407 458 422 465 463 c 1
 488 463 l 1
 488 231 l 1
 465 231 l 1
 452 314 437 327 355 327 c 2
 201 327 l 1
 201 80 l 2
 201 63 203 52 208 49 c 1
 215 42 257 37 306 37 c 2
 333 37 l 2
 476 37 519 61 569 169 c 1
 597 169 l 1
 552 0 l 1xbac0
EndSplineSet
Ligature: 0 0 'liga' E uni0328
EndChar
StartChar: Gbreve
Encoding: 275 286 169
Width: 722
Flags: W
HStem: -14 40<383 411> 336 18<454 468.333 697.4 709> 465 21G<607 630> 636 40<373 401> 719 60<351 377>
VStem: 32 114<305 354> 542 97<81 261>
Fore
473 876 m 1
 502 876 l 1
 490 770 444 719 360 719 c 0
 313 719 273 738 248 773 c 0
 229 801 222 825 221 876 c 1
 250 876 l 1
 264 809 298 779 362 779 c 0
 420 779 445 800 473 876 c 1
709 354 m 1
 709 336 l 1
 651 331 639 318 639 259 c 2
 639 56 l 1
 599 21 474 -14 388 -14 c 0
 278 -14 182 24 115 93 c 0
 59 152 32 227 32 325 c 0
 32 529 175 676 375 676 c 0
 420 676 466 668 511 653 c 0
 529 646 545 643 555 643 c 0
 576 643 594 657 600 676 c 1
 622 676 l 1
 630 465 l 1
 607 465 l 1
 582 526 566 553 536 581 c 0
 497 617 448 636 392 636 c 0
 324 636 262 609 218 560 c 0
 174 511 146 420 146 326 c 0
 146 140 246 26 409 26 c 0
 481 26 542 53 542 85 c 2
 542 247 l 2
 542 290 536 313 521 322 c 0
 509 330 497 333 454 336 c 1
 454 354 l 1
 709 354 l 1
EndSplineSet
Ligature: 0 0 'liga' G uni0306
EndChar
StartChar: Idieresis
Encoding: 276 207 170
Width: 333
Flags: W
HStem: 0 19<12 40 281.667 309> 643 19<12 29 288 309> 735 99<50.8918 63 259 269>
VStem: 12 99<782 787> 109 102<109 577> 211 99<782 787>
Fore
109 109 m 2xec
 109 553 l 2xec
 109 627 97 638 12 643 c 1
 12 662 l 1xf4
 309 662 l 1
 309 643 l 1
 225 639 211 626 211 553 c 2
 211 109 l 2xec
 211 36 227 22 309 19 c 1
 309 0 l 1
 12 0 l 1
 12 19 l 1xf4
 96 22 109 34 109 109 c 2xec
60 834 m 0
 88 834 111 811 111 784 c 0
 111 757 88 735 60 735 c 0
 33 735 12 757 12 785 c 0xf4
 12 811 35 834 60 834 c 0
259 834 m 0
 287 834 310 811 310 784 c 0
 310 757 287 735 259 735 c 0
 232 735 211 757 211 785 c 0
 211 811 234 834 259 834 c 0
EndSplineSet
Ligature: 0 0 'liga' I uni0308
EndChar
StartChar: Iacute
Encoding: 277 205 171
Width: 333
Flags: W
HStem: 0 19<12 40 281.667 309> 643 19<12 29 288 309>
VStem: 109 102<109 577>
Fore
109 109 m 2
 109 553 l 2
 109 627 97 638 12 643 c 1
 12 662 l 1
 309 662 l 1
 309 643 l 1
 225 639 211 626 211 553 c 2
 211 109 l 2
 211 36 227 22 309 19 c 1
 309 0 l 1
 12 0 l 1
 12 19 l 1
 96 22 109 34 109 109 c 2
126 719 m 1
 86 719 l 1
 233 867 l 2
 251 885 260 890 275 890 c 0
 297 890 310 878 310 858 c 0
 310 842 301 829 280 816 c 2
 126 719 l 1
EndSplineSet
Ligature: 0 0 'liga' I acutecomb
EndChar
StartChar: Igrave
Encoding: 278 204 172
Width: 333
Flags: W
HStem: 0 19<12 40 281.667 309> 643 19<12 29 288 309>
VStem: 109 102<109 577>
Fore
109 109 m 2
 109 553 l 2
 109 627 97 638 12 643 c 1
 12 662 l 1
 309 662 l 1
 309 643 l 1
 225 639 211 626 211 553 c 2
 211 109 l 2
 211 36 227 22 309 19 c 1
 309 0 l 1
 12 0 l 1
 12 19 l 1
 96 22 109 34 109 109 c 2
236 720 m 1
 196 720 l 1
 42 817 l 2
 24 829 13 844 13 860 c 0
 13 879 26 891 47 891 c 0
 62 891 71 886 89 868 c 2
 236 720 l 1
EndSplineSet
Ligature: 0 0 'liga' I gravecomb
EndChar
StartChar: Icircumflex
Encoding: 279 206 173
Width: 333
Flags: W
HStem: 0 19<12 40 281.667 309> 643 19<12 29 288 309>
VStem: 109 102<109 577>
Fore
109 109 m 2
 109 553 l 2
 109 627 97 638 12 643 c 1
 12 662 l 1
 309 662 l 1
 309 643 l 1
 225 639 211 626 211 553 c 2
 211 109 l 2
 211 36 227 22 309 19 c 1
 309 0 l 1
 12 0 l 1
 12 19 l 1
 96 22 109 34 109 109 c 2
316 719 m 1
 282 719 l 1
 160 822 l 1
 39 719 l 1
 5 719 l 1
 129 886 l 1
 191 886 l 1
 316 719 l 1
EndSplineSet
Ligature: 0 0 'liga' I uni0302
EndChar
StartChar: Idotaccent
Encoding: 280 304 174
Width: 333
Flags: W
HStem: 0 19<12 40 281.667 309> 643 19<12 29 288 309> 735 99<160 162>
VStem: 109 102<109 577>
Fore
109 109 m 2
 109 553 l 2
 109 627 97 638 12 643 c 1
 12 662 l 1
 309 662 l 1
 309 643 l 1
 225 639 211 626 211 553 c 2
 211 109 l 2
 211 36 227 22 309 19 c 1
 309 0 l 1
 12 0 l 1
 12 19 l 1
 96 22 109 34 109 109 c 2
160 834 m 0
 188 834 211 811 211 784 c 0
 211 757 188 735 160 735 c 0
 133 735 112 757 112 785 c 0
 112 811 135 834 160 834 c 0
EndSplineSet
Ligature: 0 0 'liga' I uni0307
EndChar
StartChar: Lacute
Encoding: 281 313 175
Width: 611
Flags: W
HStem: 0 19<12 26.6> 0 39<251 550> 643 19<12 24.3333 278.2 294>
VStem: 99 102<94 577>
Fore
271 719 m 1x30
 231 719 l 1
 378 867 l 2
 396 885 405 890 420 890 c 0
 442 890 455 878 455 858 c 0
 455 842 446 829 425 816 c 2
 271 719 l 1x30
573 174 m 1
 598 174 l 1
 550 0 l 1x70
 12 0 l 1
 12 19 l 1xb0
 85 24 99 39 99 109 c 2
 99 553 l 2
 99 623 86 637 12 643 c 1
 12 662 l 1
 294 662 l 1
 294 643 l 1
 215 638 201 624 201 553 c 2
 201 80 l 2
 201 45 214 39 287 39 c 2
 354 39 l 2x70
 437 39 492 57 527 96 c 0
 542 113 556 136 573 174 c 1
EndSplineSet
Ligature: 0 0 'liga' L acutecomb
EndChar
StartChar: Lcaron
Encoding: 282 317 176
Width: 611
Flags: W
HStem: 0 19<12 26.6> 0 39<251 550> 568 108<435 445> 643 19<12 24.3333 278.2 294>
VStem: 99 102<94 577> 376 139<587 619> 476 39<558 587>
Fore
403 433 m 1x2c
 394 452 l 1
 448 489 476 526 476 558 c 0x2a
 476 566 470 572 462 572 c 0
 461 572 461 572 454 570 c 0
 448 569 441 568 435 568 c 0
 399 568 376 587 376 619 c 0
 376 653 400 676 435 676 c 0
 480 676 515 637 515 587 c 0
 515 527 470 466 403 433 c 1x2c
573 174 m 1
 598 174 l 1
 550 0 l 1x58
 12 0 l 1
 12 19 l 1x88
 85 24 99 39 99 109 c 2
 99 553 l 2
 99 623 86 637 12 643 c 1
 12 662 l 1
 294 662 l 1
 294 643 l 1
 215 638 201 624 201 553 c 2
 201 80 l 2
 201 45 214 39 287 39 c 2
 354 39 l 2x58
 437 39 492 57 527 96 c 0
 542 113 556 136 573 174 c 1
EndSplineSet
Ligature: 0 0 'liga' L uni030C
EndChar
StartChar: Nacute
Encoding: 283 323 177
Width: 722
Flags: W
HStem: 0 19<12 25.8333 227.75 247> 643 19<12 33.0487 472 484.667 697.5 707>
VStem: 109 44<147 539> 568 44<178 541>
DStem: 153 539 183 662 595 -11 568 178
Fore
328 719 m 1
 288 719 l 1
 435 867 l 2
 453 885 462 890 477 890 c 0
 499 890 512 878 512 858 c 0
 512 842 503 829 482 816 c 2
 328 719 l 1
612 -11 m 1
 595 -11 l 1
 153 539 l 1
 153 147 l 2
 153 46 170 23 247 19 c 1
 247 0 l 1
 12 0 l 1
 12 19 l 1
 95 25 109 44 109 147 c 2
 109 588 l 1
 69 635 55 643 12 643 c 1
 12 662 l 1
 183 662 l 1
 568 178 l 1
 568 515 l 2
 568 577 559 613 539 627 c 0
 524 636 510 640 472 643 c 1
 472 662 l 1
 707 662 l 1
 707 643 l 1
 669 639 655 635 641 625 c 0
 622 612 612 575 612 515 c 2
 612 -11 l 1
EndSplineSet
Ligature: 0 0 'liga' N acutecomb
EndChar
StartChar: Ncaron
Encoding: 284 327 178
Width: 722
Flags: W
HStem: 0 19<12 25.8333 227.75 247> 643 19<12 33.0487 472 484.667 697.5 707>
VStem: 109 44<147 539> 568 44<178 541>
DStem: 153 539 183 662 595 -11 568 178
Fore
517 886 m 1
 392 719 l 1
 330 719 l 1
 206 886 l 1
 240 886 l 1
 361 783 l 1
 483 886 l 1
 517 886 l 1
612 -11 m 1
 595 -11 l 1
 153 539 l 1
 153 147 l 2
 153 46 170 23 247 19 c 1
 247 0 l 1
 12 0 l 1
 12 19 l 1
 95 25 109 44 109 147 c 2
 109 588 l 1
 69 635 55 643 12 643 c 1
 12 662 l 1
 183 662 l 1
 568 178 l 1
 568 515 l 2
 568 577 559 613 539 627 c 0
 524 636 510 640 472 643 c 1
 472 662 l 1
 707 662 l 1
 707 643 l 1
 669 639 655 635 641 625 c 0
 622 612 612 575 612 515 c 2
 612 -11 l 1
EndSplineSet
Ligature: 0 0 'liga' N uni030C
EndChar
StartChar: Ntilde
Encoding: 285 209 179
Width: 722
Flags: W
HStem: 0 19<12 25.8333 227.75 247> 643 19<12 33.0487 472 484.667 697.5 707> 744 56<421 444> 790 55<276 297>
VStem: 109 44<147 539> 568 44<178 541>
DStem: 153 539 183 662 595 -11 568 178
Fore
497 850 m 1xec
 526 850 l 1
 505 774 476 744 421 744 c 0xec
 396 744 381 748 340 768 c 2
 317 779 l 2
 302 786 288 790 276 790 c 0xdc
 253 790 236 775 225 744 c 1
 196 744 l 1xec
 211 809 247 845 297 845 c 0xdc
 319 845 344 839 367 827 c 2
 391 815 l 2
 410 806 429 800 444 800 c 0
 467 800 480 812 497 850 c 1xec
612 -11 m 1
 595 -11 l 1
 153 539 l 1
 153 147 l 2
 153 46 170 23 247 19 c 1
 247 0 l 1
 12 0 l 1
 12 19 l 1
 95 25 109 44 109 147 c 2
 109 588 l 1
 69 635 55 643 12 643 c 1
 12 662 l 1
 183 662 l 1
 568 178 l 1
 568 515 l 2
 568 577 559 613 539 627 c 0
 524 636 510 640 472 643 c 1
 472 662 l 1
 707 662 l 1
 707 643 l 1
 669 639 655 635 641 625 c 0
 622 612 612 575 612 515 c 2
 612 -11 l 1
EndSplineSet
Ligature: 0 0 'liga' N tildecomb
EndChar
StartChar: Odieresis
Encoding: 286 214 180
Width: 722
Flags: W
HStem: -14 36<353 371> 640 36<361 371> 735 99<261 263 450.892 467>
VStem: 34 114<305 355> 213 99<782 787> 412 99<782 787> 574 114<305 355>
Fore
261 834 m 0
 289 834 312 811 312 784 c 0
 312 757 289 735 261 735 c 0
 234 735 213 757 213 785 c 0
 213 811 236 834 261 834 c 0
460 834 m 0
 488 834 511 811 511 784 c 0
 511 757 488 735 460 735 c 0
 433 735 412 757 412 785 c 0
 412 811 435 834 460 834 c 0
361 676 m 0
 457 676 541 640 604 571 c 0
 659 511 688 426 688 327 c 0
 688 126 552 -14 355 -14 c 0
 267 -14 178 25 120 88 c 0
 66 146 34 237 34 331 c 0
 34 532 170 676 361 676 c 0
361 640 m 0
 306 640 257 618 218 575 c 0
 176 528 148 431 148 329 c 0
 148 218 181 117 233 71 c 0
 268 40 313 22 359 22 c 0
 412 22 457 40 492 75 c 0
 515 98 532 123 541 148 c 0
 561 200 574 269 574 328 c 0
 574 447 543 541 489 590 c 0
 453 622 407 640 361 640 c 0
EndSplineSet
KernsSLIF: 89 -72 0 0 88 -55 0 0 87 -54 0 0 86 -69 0 0 84 -9 0 0 65 -58 0 0
Ligature: 0 0 'liga' O uni0308
EndChar
StartChar: Oacute
Encoding: 287 211 181
Width: 722
Flags: W
HStem: -14 36<353 371> 640 36<361 371>
VStem: 34 114<305 355> 574 114<305 355>
Fore
328 719 m 1
 288 719 l 1
 435 867 l 2
 453 885 462 890 477 890 c 0
 499 890 512 878 512 858 c 0
 512 842 503 829 482 816 c 2
 328 719 l 1
361 676 m 0
 457 676 541 640 604 571 c 0
 659 511 688 426 688 327 c 0
 688 126 552 -14 355 -14 c 0
 267 -14 178 25 120 88 c 0
 66 146 34 237 34 331 c 0
 34 532 170 676 361 676 c 0
361 640 m 0
 306 640 257 618 218 575 c 0
 176 528 148 431 148 329 c 0
 148 218 181 117 233 71 c 0
 268 40 313 22 359 22 c 0
 412 22 457 40 492 75 c 0
 515 98 532 123 541 148 c 0
 561 200 574 269 574 328 c 0
 574 447 543 541 489 590 c 0
 453 622 407 640 361 640 c 0
EndSplineSet
KernsSLIF: 89 -72 0 0 87 -54 0 0 86 -69 0 0 84 -9 0 0 65 -58 0 0
Ligature: 0 0 'liga' O acutecomb
EndChar
StartChar: Ograve
Encoding: 288 210 182
Width: 722
Flags: W
HStem: -14 36<353 371> 640 36<361 371>
VStem: 34 114<305 355> 574 114<305 355>
Fore
437 719 m 1
 397 719 l 1
 243 816 l 2
 225 828 214 843 214 859 c 0
 214 878 227 890 248 890 c 0
 263 890 272 885 290 867 c 2
 437 719 l 1
361 676 m 0
 457 676 541 640 604 571 c 0
 659 511 688 426 688 327 c 0
 688 126 552 -14 355 -14 c 0
 267 -14 178 25 120 88 c 0
 66 146 34 237 34 331 c 0
 34 532 170 676 361 676 c 0
361 640 m 0
 306 640 257 618 218 575 c 0
 176 528 148 431 148 329 c 0
 148 218 181 117 233 71 c 0
 268 40 313 22 359 22 c 0
 412 22 457 40 492 75 c 0
 515 98 532 123 541 148 c 0
 561 200 574 269 574 328 c 0
 574 447 543 541 489 590 c 0
 453 622 407 640 361 640 c 0
EndSplineSet
KernsSLIF: 89 -72 0 0 86 -69 0 0 84 -9 0 0
Ligature: 0 0 'liga' O gravecomb
EndChar
StartChar: Ocircumflex
Encoding: 289 212 183
Width: 722
Flags: W
HStem: -14 36<353 371> 640 36<361 371>
VStem: 34 114<305 355> 574 114<305 355>
Fore
517 719 m 1
 483 719 l 1
 361 822 l 1
 240 719 l 1
 206 719 l 1
 330 886 l 1
 392 886 l 1
 517 719 l 1
361 676 m 0
 457 676 541 640 604 571 c 0
 659 511 688 426 688 327 c 0
 688 126 552 -14 355 -14 c 0
 267 -14 178 25 120 88 c 0
 66 146 34 237 34 331 c 0
 34 532 170 676 361 676 c 0
361 640 m 0
 306 640 257 618 218 575 c 0
 176 528 148 431 148 329 c 0
 148 218 181 117 233 71 c 0
 268 40 313 22 359 22 c 0
 412 22 457 40 492 75 c 0
 515 98 532 123 541 148 c 0
 561 200 574 269 574 328 c 0
 574 447 543 541 489 590 c 0
 453 622 407 640 361 640 c 0
EndSplineSet
KernsSLIF: 89 -72 0 0 86 -69 0 0 84 -9 0 0
Ligature: 0 0 'liga' O uni0302
EndChar
StartChar: Otilde
Encoding: 290 213 184
Width: 722
Flags: W
HStem: -14 36<340 371> 640 36<361 371> 712 56<421 444> 758 55<276 297>
VStem: 34 114<305 355> 574 114<305 355>
Fore
497 818 m 1xec
 526 818 l 1
 505 742 476 712 421 712 c 0xec
 396 712 381 716 340 736 c 2
 317 747 l 2
 302 754 288 758 276 758 c 0xdc
 253 758 236 743 225 712 c 1
 196 712 l 1xec
 211 777 247 813 297 813 c 0xdc
 319 813 344 807 367 795 c 2
 391 783 l 2
 410 774 429 768 444 768 c 0
 467 768 480 780 497 818 c 1xec
361 676 m 0
 457 676 541 640 604 571 c 0
 659 511 688 426 688 327 c 0
 688 126 552 -14 355 -14 c 0
 267 -14 178 25 120 88 c 0
 66 146 34 237 34 331 c 0
 34 532 170 676 361 676 c 0
361 640 m 0
 306 640 257 618 218 575 c 0
 176 528 148 431 148 329 c 0
 148 218 181 117 233 71 c 0
 268 40 313 22 359 22 c 0
 412 22 457 40 492 75 c 0
 515 98 532 123 541 148 c 0
 561 200 574 269 574 328 c 0
 574 447 543 541 489 590 c 0
 453 622 407 640 361 640 c 0
EndSplineSet
KernsSLIF: 89 -72 0 0 86 -69 0 0 84 -9 0 0
Ligature: 0 0 'liga' O tildecomb
EndChar
StartChar: Ohungarumlaut
Encoding: 291 336 185
Width: 722
Flags: W
HStem: -14 36<353 371> 640 36<361 371>
VStem: 34 114<305 355> 574 114<305 355>
Fore
367 712 m 1
 327 712 l 1
 474 860 l 2
 492 878 501 883 516 883 c 0
 538 883 551 871 551 851 c 0
 551 835 542 822 521 809 c 2
 367 712 l 1
211 712 m 1
 171 712 l 1
 318 860 l 2
 336 878 345 883 360 883 c 0
 382 883 395 871 395 851 c 0
 395 835 386 822 365 809 c 2
 211 712 l 1
361 676 m 0
 457 676 541 640 604 571 c 0
 659 511 688 426 688 327 c 0
 688 126 552 -14 355 -14 c 0
 267 -14 178 25 120 88 c 0
 66 146 34 237 34 331 c 0
 34 532 170 676 361 676 c 0
361 640 m 0
 306 640 257 618 218 575 c 0
 176 528 148 431 148 329 c 0
 148 218 181 117 233 71 c 0
 268 40 313 22 359 22 c 0
 412 22 457 40 492 75 c 0
 515 98 532 123 541 148 c 0
 561 200 574 269 574 328 c 0
 574 447 543 541 489 590 c 0
 453 622 407 640 361 640 c 0
EndSplineSet
Ligature: 0 0 'liga' O uni030B
EndChar
StartChar: Racute
Encoding: 292 340 186
Width: 667
Flags: W
HStem: 0 19<12 24.5 273.6 289 641.333 654> 625 37<12 269> 643 19<12 21.375>
VStem: 97 102<95 307 120 589> 433 109<479 497>
Fore
654 19 m 1xb8
 654 0 l 1
 493 0 l 1
 255 308 l 1
 199 306 l 1
 199 109 l 2
 199 37 212 24 289 19 c 1
 289 0 l 1
 12 0 l 1
 12 19 l 1
 87 25 97 37 97 120 c 2
 97 553 l 2
 97 624 87 635 12 643 c 1xb8
 12 662 l 1xd8
 288 662 l 2
 382 662 465 636 503 595 c 0
 529 566 542 529 542 486 c 0
 542 439 523 397 491 371 c 0
 458 344 428 332 361 319 c 1
 567 66 l 1
 596 32 616 22 654 19 c 1xb8
199 589 m 2
 199 343 l 1
 295 345 330 351 376 377 c 0
 412 396 433 438 433 488 c 0
 433 582 375 625 250 625 c 0xd8
 210 625 199 617 199 589 c 2
261 712 m 1
 221 712 l 1
 368 860 l 2
 386 878 395 883 410 883 c 0
 432 883 445 871 445 851 c 0
 445 835 436 822 415 809 c 2
 261 712 l 1
EndSplineSet
Ligature: 0 0 'liga' R acutecomb
EndChar
StartChar: Rcaron
Encoding: 293 344 187
Width: 667
Flags: W
HStem: 0 19<12 24.5 273.6 289 641.333 654> 625 37<12 269> 643 19<12 21.375>
VStem: 97 102<95 307 120 589> 433 109<479 497>
Fore
654 19 m 1xb8
 654 0 l 1
 493 0 l 1
 255 308 l 1
 199 306 l 1
 199 109 l 2
 199 37 212 24 289 19 c 1
 289 0 l 1
 12 0 l 1
 12 19 l 1
 87 25 97 37 97 120 c 2
 97 553 l 2
 97 624 87 635 12 643 c 1xb8
 12 662 l 1xd8
 288 662 l 2
 382 662 465 636 503 595 c 0
 529 566 542 529 542 486 c 0
 542 439 523 397 491 371 c 0
 458 344 428 332 361 319 c 1
 567 66 l 1
 596 32 616 22 654 19 c 1xb8
199 589 m 2
 199 343 l 1
 295 345 330 351 376 377 c 0
 412 396 433 438 433 488 c 0
 433 582 375 625 250 625 c 0xd8
 210 625 199 617 199 589 c 2
489 879 m 1
 364 712 l 1
 302 712 l 1
 178 879 l 1
 212 879 l 1
 333 776 l 1
 455 879 l 1
 489 879 l 1
EndSplineSet
Ligature: 0 0 'liga' R uni030C
EndChar
StartChar: Sacute
Encoding: 294 346 188
Width: 556
Flags: W
HStem: -14 36<262 287> 463 21G<444 469> 635 41<243 263>
VStem: 71 86<505 542> 390 101<135 168>
Fore
194 712 m 1
 154 712 l 1
 301 860 l 2
 319 878 328 883 343 883 c 0
 365 883 378 871 378 851 c 0
 378 835 369 822 348 809 c 2
 194 712 l 1
447 676 m 1
 469 463 l 1
 444 463 l 1
 428 522 414 548 383 580 c 0
 348 616 306 635 261 635 c 0
 199 635 157 597 157 542 c 0
 157 488 199 444 304 386 c 0
 436 315 491 250 491 168 c 0
 491 65 402 -14 287 -14 c 0
 247 -14 207 -6 169 9 c 0
 150 16 133 20 122 20 c 0
 107 20 95 6 94 -13 c 1
 72 -13 l 1
 42 199 l 1
 65 199 l 1
 115 77 178 22 267 22 c 0
 340 22 390 68 390 135 c 0
 390 159 385 180 376 193 c 0
 351 231 299 272 227 310 c 0
 115 369 71 425 71 505 c 0
 71 557 89 599 124 630 c 0
 157 659 201 676 244 676 c 0
 276 676 313 668 350 654 c 1
 367 646 384 642 394 642 c 0
 411 642 422 653 426 676 c 1
 447 676 l 1
EndSplineSet
Ligature: 0 0 'liga' S acutecomb
EndChar
StartChar: Scaron
Encoding: 295 352 189
Width: 556
Flags: W
HStem: -14 36<262 287> 463 21G<444 469> 635 41<243 263>
VStem: 71 86<505 542> 390 101<135 168>
Fore
422 879 m 1
 297 712 l 1
 235 712 l 1
 111 879 l 1
 145 879 l 1
 266 776 l 1
 388 879 l 1
 422 879 l 1
447 676 m 1
 469 463 l 1
 444 463 l 1
 428 522 414 548 383 580 c 0
 348 616 306 635 261 635 c 0
 199 635 157 597 157 542 c 0
 157 488 199 444 304 386 c 0
 436 315 491 250 491 168 c 0
 491 65 402 -14 287 -14 c 0
 247 -14 207 -6 169 9 c 0
 150 16 133 20 122 20 c 0
 107 20 95 6 94 -13 c 1
 72 -13 l 1
 42 199 l 1
 65 199 l 1
 115 77 178 22 267 22 c 0
 340 22 390 68 390 135 c 0
 390 159 385 180 376 193 c 0
 351 231 299 272 227 310 c 0
 115 369 71 425 71 505 c 0
 71 557 89 599 124 630 c 0
 157 659 201 676 244 676 c 0
 276 676 313 668 350 654 c 1
 367 646 384 642 394 642 c 0
 411 642 422 653 426 676 c 1
 447 676 l 1
EndSplineSet
Ligature: 0 0 'liga' S uni030C
EndChar
StartChar: Scedilla
Encoding: 296 350 190
Width: 556
Flags: W
HStem: -215 35<225 250> -100 122<245 267> -14 36<267 289> 463 21G<444 469> 635 41<243 263>
VStem: 71 86<505 542> 298 75<-138 -129> 390 101<135 168>
DStem: 246 -11 280 -14 210 -99 261 -65
Fore
280 -14 m 1xbf
 261 -65 l 1
 270 -63 277 -62 287 -62 c 0
 341 -62 373 -88 373 -131 c 0
 373 -183 325 -215 248 -215 c 0
 216 -215 193 -211 164 -199 c 1
 178 -168 l 1
 205 -177 222 -180 243 -180 c 0
 277 -180 298 -163 298 -136 c 0
 298 -110 283 -100 245 -100 c 0
 233 -100 225 -101 217 -104 c 1
 210 -99 l 1
 246 -11 l 1
 218 -7 195 -2 169 9 c 0
 150 16 133 20 122 20 c 0
 107 20 95 6 94 -13 c 1
 72 -13 l 1
 42 199 l 1
 65 199 l 1
 115 77 178 22 267 22 c 0xdf
 340 22 390 68 390 135 c 0
 390 159 385 180 376 193 c 0
 351 231 299 272 227 310 c 0
 115 369 71 425 71 505 c 0
 71 557 89 599 124 630 c 0
 157 659 201 676 244 676 c 0
 276 676 313 668 350 654 c 1
 367 646 384 642 394 642 c 0
 411 642 422 653 426 676 c 1
 447 676 l 1
 469 463 l 1
 444 463 l 1
 428 522 414 548 383 580 c 0
 348 616 306 635 261 635 c 0
 199 635 157 597 157 542 c 0
 157 488 199 444 304 386 c 0
 436 315 491 250 491 168 c 0
 491 66 403 -14 289 -14 c 2
 280 -14 l 1xbf
EndSplineSet
Ligature: 0 0 'liga' S uni0327
EndChar
StartChar: Tcaron
Encoding: 297 356 191
Width: 611
Flags: W
HStem: 0 19<160 176.6 431.5 452> 620 42<23 254 23 434>
VStem: 254 102<95 620>
Fore
460 886 m 1
 335 719 l 1
 273 719 l 1
 149 886 l 1
 183 886 l 1
 304 783 l 1
 426 886 l 1
 460 886 l 1
254 620 m 1
 200 620 l 2
 88 620 65 601 41 492 c 1
 17 492 l 1
 23 662 l 1
 587 662 l 1
 593 492 l 1
 569 492 l 1
 546 602 524 620 410 620 c 2
 356 620 l 1
 356 109 l 2
 356 36 370 23 452 19 c 1
 452 0 l 1
 160 0 l 1
 160 19 l 1
 243 24 254 35 254 120 c 2
 254 620 l 1
EndSplineSet
Ligature: 0 0 'liga' T uni030C
EndChar
StartChar: Udieresis
Encoding: 298 220 192
Width: 722
Flags: W
HStem: -14 44<353 383> 643 19<14 27.1667 285.571 297 473 486 696.8 705> 735 99<276 287 475 479>
VStem: 104 102<209 579> 228 99<782 787> 427 99<782 787> 567 44<225 547>
Fore
276 834 m 0
 304 834 327 811 327 784 c 0
 327 757 304 735 276 735 c 0
 249 735 228 757 228 785 c 0
 228 811 251 834 276 834 c 0
475 834 m 0
 503 834 526 811 526 784 c 0
 526 757 503 735 475 735 c 0
 448 735 427 757 427 785 c 0
 427 811 450 834 475 834 c 0
611 515 m 2
 611 254 l 2
 611 177 602 131 578 89 c 0
 539 21 464 -14 355 -14 c 0
 185 -14 104 68 104 241 c 2
 104 553 l 2
 104 626 93 637 14 643 c 1
 14 662 l 1
 297 662 l 1
 297 643 l 1
 217 636 206 625 206 553 c 2
 206 233 l 2
 206 170 213 133 231 101 c 0
 258 54 307 30 378 30 c 0
 453 30 517 61 544 109 c 0
 560 139 567 177 567 245 c 2
 567 515 l 2
 567 615 551 637 473 643 c 1
 473 662 l 1
 705 662 l 1
 705 643 l 1
 623 633 611 617 611 515 c 2
EndSplineSet
KernsSLIF: 114 -27 0 0 46 -37 0 0 112 -28 0 0 110 -31 0 0 109 -33 0 0 44 -31 0 0 98 21 0 0 65 -65 0 0
Ligature: 0 0 'liga' U uni0308
EndChar
StartChar: Uacute
Encoding: 299 218 193
Width: 722
Flags: W
HStem: -14 44<353 383> 643 19<14 27.1667 285.571 297 473 486 696.8 705>
VStem: 104 102<209 579> 567 44<225 547>
Fore
352 719 m 1
 312 719 l 1
 459 867 l 2
 477 885 486 890 501 890 c 0
 523 890 536 878 536 858 c 0
 536 842 527 829 506 816 c 2
 352 719 l 1
611 515 m 2
 611 254 l 2
 611 177 602 131 578 89 c 0
 539 21 464 -14 355 -14 c 0
 185 -14 104 68 104 241 c 2
 104 553 l 2
 104 626 93 637 14 643 c 1
 14 662 l 1
 297 662 l 1
 297 643 l 1
 217 636 206 625 206 553 c 2
 206 233 l 2
 206 170 213 133 231 101 c 0
 258 54 307 30 378 30 c 0
 453 30 517 61 544 109 c 0
 560 139 567 177 567 245 c 2
 567 515 l 2
 567 615 551 637 473 643 c 1
 473 662 l 1
 705 662 l 1
 705 643 l 1
 623 633 611 617 611 515 c 2
EndSplineSet
KernsSLIF: 114 -27 0 0 46 -37 0 0 112 -28 0 0 110 -31 0 0 109 -33 0 0 44 -31 0 0 65 -65 0 0
Ligature: 0 0 'liga' U acutecomb
EndChar
StartChar: Ugrave
Encoding: 300 217 194
Width: 722
Flags: W
HStem: -14 44<353 383> 643 19<14 27.1667 285.571 297 473 486 696.8 705>
VStem: 104 102<209 579> 567 44<225 547>
Fore
454 719 m 1
 414 719 l 1
 260 816 l 2
 242 828 231 843 231 859 c 0
 231 878 244 890 265 890 c 0
 280 890 289 885 307 867 c 2
 454 719 l 1
611 515 m 2
 611 254 l 2
 611 177 602 131 578 89 c 0
 539 21 464 -14 355 -14 c 0
 185 -14 104 68 104 241 c 2
 104 553 l 2
 104 626 93 637 14 643 c 1
 14 662 l 1
 297 662 l 1
 297 643 l 1
 217 636 206 625 206 553 c 2
 206 233 l 2
 206 170 213 133 231 101 c 0
 258 54 307 30 378 30 c 0
 453 30 517 61 544 109 c 0
 560 139 567 177 567 245 c 2
 567 515 l 2
 567 615 551 637 473 643 c 1
 473 662 l 1
 705 662 l 1
 705 643 l 1
 623 633 611 617 611 515 c 2
EndSplineSet
KernsSLIF: 65 -65 0 0
Ligature: 0 0 'liga' U gravecomb
EndChar
StartChar: Ucircumflex
Encoding: 301 219 195
Width: 722
Flags: W
HStem: -14 44<353 382> 643 19<14 27.1667 285.571 297 473 486 696.8 705>
VStem: 104 102<209 579> 567 44<225 547>
Fore
536 719 m 1
 502 719 l 1
 380 822 l 1
 259 719 l 1
 225 719 l 1
 349 886 l 1
 411 886 l 1
 536 719 l 1
611 515 m 2
 611 254 l 2
 611 177 602 131 578 89 c 0
 539 21 464 -14 355 -14 c 0
 185 -14 104 68 104 241 c 2
 104 553 l 2
 104 626 93 637 14 643 c 1
 14 662 l 1
 297 662 l 1
 297 643 l 1
 217 636 206 625 206 553 c 2
 206 233 l 2
 206 170 213 133 231 101 c 0
 258 54 307 30 378 30 c 0
 453 30 517 61 544 109 c 0
 560 139 567 177 567 245 c 2
 567 515 l 2
 567 615 551 637 473 643 c 1
 473 662 l 1
 705 662 l 1
 705 643 l 1
 623 633 611 617 611 515 c 2
EndSplineSet
KernsSLIF: 65 -65 0 0
Ligature: 0 0 'liga' U uni0302
EndChar
StartChar: Uring
Encoding: 302 366 196
Width: 722
Flags: W
HStem: -14 44<353 382> 643 19<14 27.1667 285.571 297 473 486 696.8 705> 724 34<366.976 383> 889 34<376 382>
VStem: 104 102<209 579> 280 34<824 835> 445 34<823 835> 567 44<225 547>
Fore
379 923 m 0
 434 923 479 878 479 823 c 0
 479 768 434 724 379 724 c 0
 323 724 280 768 280 824 c 0
 280 878 325 923 379 923 c 0
380 889 m 0
 344 889 314 860 314 824 c 0
 314 788 343 758 378 758 c 0
 415 758 445 787 445 823 c 0
 445 859 415 889 380 889 c 0
611 515 m 2
 611 254 l 2
 611 177 602 131 578 89 c 0
 539 21 464 -14 355 -14 c 0
 185 -14 104 68 104 241 c 2
 104 553 l 2
 104 626 93 637 14 643 c 1
 14 662 l 1
 297 662 l 1
 297 643 l 1
 217 636 206 625 206 553 c 2
 206 233 l 2
 206 170 213 133 231 101 c 0
 258 54 307 30 378 30 c 0
 453 30 517 61 544 109 c 0
 560 139 567 177 567 245 c 2
 567 515 l 2
 567 615 551 637 473 643 c 1
 473 662 l 1
 705 662 l 1
 705 643 l 1
 623 633 611 617 611 515 c 2
EndSplineSet
Ligature: 0 0 'liga' U uni030A
EndChar
StartChar: Uhungarumlaut
Encoding: 303 368 197
Width: 722
Flags: W
HStem: -14 44<353 382> 643 19<14 27.1667 285.571 297 473 486 696.8 705>
VStem: 104 102<209 579> 567 44<225 547>
Fore
428 721 m 1
 388 721 l 1
 535 869 l 2
 553 887 562 892 577 892 c 0
 599 892 612 880 612 860 c 0
 612 844 603 831 582 818 c 2
 428 721 l 1
272 721 m 1
 232 721 l 1
 379 869 l 2
 397 887 406 892 421 892 c 0
 443 892 456 880 456 860 c 0
 456 844 447 831 426 818 c 2
 272 721 l 1
611 515 m 2
 611 254 l 2
 611 177 602 131 578 89 c 0
 539 21 464 -14 355 -14 c 0
 185 -14 104 68 104 241 c 2
 104 553 l 2
 104 626 93 637 14 643 c 1
 14 662 l 1
 297 662 l 1
 297 643 l 1
 217 636 206 625 206 553 c 2
 206 233 l 2
 206 170 213 133 231 101 c 0
 258 54 307 30 378 30 c 0
 453 30 517 61 544 109 c 0
 560 139 567 177 567 245 c 2
 567 515 l 2
 567 615 551 637 473 643 c 1
 473 662 l 1
 705 662 l 1
 705 643 l 1
 623 633 611 617 611 515 c 2
EndSplineSet
Ligature: 0 0 'liga' U uni030B
EndChar
StartChar: Yacute
Encoding: 304 221 198
Width: 722
Flags: W
HStem: 0 19<214 236.75 475.5 520 520 520> 642 20<22 301.985 484 505.892>
VStem: 315 102<95 294>
DStem: 184 486 248 569 315 294 396 347 539 573 565 529 396 347 417 303
Fore
360 719 m 1
 320 719 l 1
 467 867 l 2
 485 885 494 890 509 890 c 0
 531 890 544 878 544 858 c 0
 544 842 535 829 514 816 c 2
 360 719 l 1
703 662 m 1
 703 643 l 1
 652 639 626 617 565 529 c 1
 417 303 l 1
 417 109 l 2
 417 33 431 21 520 19 c 1
 520 0 l 1
 214 0 l 1
 214 19 l 1
 305 23 315 33 315 120 c 2
 315 294 l 1
 184 486 l 1
 84 627 70 641 22 643 c 1
 22 662 l 1
 302 662 l 1
 302 643 l 1
 291 642 281 642 277 642 c 0
 245 640 231 631 231 613 c 0
 231 602 237 585 248 569 c 2
 396 347 l 1
 539 573 l 2
 548 588 553 600 553 610 c 0
 553 634 536 642 484 643 c 1
 484 662 l 1
 703 662 l 1
EndSplineSet
Ligature: 0 0 'liga' Y acutecomb
EndChar
StartChar: Zacute
Encoding: 305 377 199
Width: 611
Flags: W
HStem: 0 38<145 573> 624 38<51 446>
DStem: 446 624 577 647 9 15 145 38
Fore
272 719 m 1
 232 719 l 1
 379 867 l 2
 397 885 406 890 421 890 c 0
 443 890 456 878 456 858 c 0
 456 842 447 829 426 816 c 2
 272 719 l 1
574 176 m 1
 597 176 l 1
 573 0 l 1
 9 0 l 1
 9 15 l 1
 446 624 l 1
 225 624 l 2
 159 624 114 610 91 581 c 0
 74 560 66 540 57 491 c 1
 31 491 l 1
 51 662 l 1
 577 662 l 1
 577 647 l 1
 145 38 l 1
 402 38 l 2
 459 38 503 52 527 77 c 0
 547 99 557 120 574 176 c 1
EndSplineSet
Ligature: 0 0 'liga' Z acutecomb
EndChar
StartChar: Zcaron
Encoding: 306 381 200
Width: 611
Flags: W
HStem: 0 38<145 573> 624 38<51 446>
DStem: 446 624 577 647 9 15 145 38
Fore
462 886 m 1
 337 719 l 1
 275 719 l 1
 151 886 l 1
 185 886 l 1
 306 783 l 1
 428 886 l 1
 462 886 l 1
574 176 m 1
 597 176 l 1
 573 0 l 1
 9 0 l 1
 9 15 l 1
 446 624 l 1
 225 624 l 2
 159 624 114 610 91 581 c 0
 74 560 66 540 57 491 c 1
 31 491 l 1
 51 662 l 1
 577 662 l 1
 577 647 l 1
 145 38 l 1
 402 38 l 2
 459 38 503 52 527 77 c 0
 547 99 557 120 574 176 c 1
EndSplineSet
Ligature: 0 0 'liga' Z uni030C
EndChar
StartChar: Zdotaccent
Encoding: 307 379 201
Width: 611
Flags: W
HStem: 0 38<145 573> 624 38<51 446> 735 99<305 314>
VStem: 257 99<782 787>
DStem: 446 624 577 647 9 15 145 38
Fore
305 834 m 0
 333 834 356 811 356 784 c 0
 356 757 333 735 305 735 c 0
 278 735 257 757 257 785 c 0
 257 811 280 834 305 834 c 0
574 176 m 1
 597 176 l 1
 573 0 l 1
 9 0 l 1
 9 15 l 1
 446 624 l 1
 225 624 l 2
 159 624 114 610 91 581 c 0
 74 560 66 540 57 491 c 1
 31 491 l 1
 51 662 l 1
 577 662 l 1
 577 647 l 1
 145 38 l 1
 402 38 l 2
 459 38 503 52 527 77 c 0
 547 99 557 120 574 176 c 1
EndSplineSet
Ligature: 0 0 'liga' Z uni0307
EndChar
StartChar: Amacron
Encoding: 308 256 202
Width: 722
Flags: W
HStem: 0 19<15 39 213 213 451 473.279 451 504 691 706> 216 41<216 461> 654 20G<347 367> 759 54<205 516>
DStem: 331 532 367 674 447 257 616 106 347 674 331 532 139 183 216 257 347 674 199 216 139 183 153 99 461 216 367 674 502 120 616 106
Fore
205 813 m 1
 516 813 l 1
 516 759 l 1
 205 759 l 1
 205 813 l 1
706 19 m 1
 706 0 l 1
 451 0 l 1
 451 19 l 1
 504 20 521 28 521 53 c 0
 521 67 514 93 502 120 c 2
 461 216 l 1
 199 216 l 1
 153 99 l 2
 148 86 145 72 145 60 c 0
 145 32 165 19 213 19 c 1
 213 0 l 1
 15 0 l 1
 15 19 l 1
 63 21 75 37 139 183 c 1
 347 674 l 1
 367 674 l 1
 616 106 l 1
 651 32 661 22 706 19 c 1
216 257 m 1
 447 257 l 1
 331 532 l 1
 216 257 l 1
EndSplineSet
Ligature: 0 0 'liga' A uni0304
EndChar
StartChar: Tcommaaccent
Encoding: 309 354 203
Width: 611
Flags: W
HStem: -146 108<294 306> 0 19<160 176.6 431.5 452> 620 42<23 253 23 434>
VStem: 254 102<86 620> 335 39<-156 -127>
Fore
262 -281 m 1xe8
 253 -262 l 1
 307 -225 335 -188 335 -156 c 0
 335 -148 329 -142 321 -142 c 0
 320 -142 320 -142 313 -144 c 0
 307 -145 300 -146 294 -146 c 0
 258 -146 235 -127 235 -95 c 0
 235 -61 259 -38 294 -38 c 0
 339 -38 374 -77 374 -127 c 0
 374 -187 329 -248 262 -281 c 1xe8
254 620 m 1xf0
 200 620 l 2
 88 620 65 601 41 492 c 1
 17 492 l 1
 23 662 l 1
 587 662 l 1
 593 492 l 1
 569 492 l 1
 546 602 524 620 410 620 c 2
 356 620 l 1
 356 109 l 2
 356 36 370 23 452 19 c 1
 452 0 l 1
 160 0 l 1
 160 19 l 1
 243 24 254 35 254 120 c 2
 254 620 l 1xf0
EndSplineSet
Ligature: 0 0 'liga' T uni0327
EndChar
StartChar: Ydieresis
Encoding: 310 376 204
Width: 722
Flags: W
HStem: 0 19<214 236.75 475.5 520 520 520> 642 20<22 301.985 484 505.892> 735 99<266.892 279 475 486>
VStem: 228 99<782 787> 315 102<95 294> 427 99<782 787>
DStem: 184 486 248 569 315 294 396 347 539 573 565 529 396 347 417 303
Fore
276 834 m 0xf4
 304 834 327 811 327 784 c 0
 327 757 304 735 276 735 c 0
 249 735 228 757 228 785 c 0
 228 811 251 834 276 834 c 0xf4
475 834 m 0
 503 834 526 811 526 784 c 0
 526 757 503 735 475 735 c 0
 448 735 427 757 427 785 c 0
 427 811 450 834 475 834 c 0
703 662 m 1
 703 643 l 1
 652 639 626 617 565 529 c 1
 417 303 l 1
 417 109 l 2
 417 33 431 21 520 19 c 1
 520 0 l 1
 214 0 l 1
 214 19 l 1
 305 23 315 33 315 120 c 2
 315 294 l 1xec
 184 486 l 1
 84 627 70 641 22 643 c 1
 22 662 l 1
 302 662 l 1
 302 643 l 1
 291 642 281 642 277 642 c 0
 245 640 231 631 231 613 c 0
 231 602 237 585 248 569 c 2
 396 347 l 1
 539 573 l 2
 548 588 553 600 553 610 c 0
 553 634 536 642 484 643 c 1
 484 662 l 1
 703 662 l 1
EndSplineSet
Ligature: 0 0 'liga' Y uni0308
EndChar
StartChar: Emacron
Encoding: 311 274 205
Width: 611
Flags: W
HStem: 0 19<12 26.6> 0 37<283 552> 327 41<201 381> 443 20G<465 488> 519 143<12 546> 624 38<12 397> 643 19<12 24.3333> 759 54<150 461>
VStem: 99 102<95 327 109 590>
Fore
150 813 m 1x3180
 461 813 l 1
 461 759 l 1
 150 759 l 1
 150 813 l 1x3180
597 169 m 1
 552 0 l 1x7580
 12 0 l 1
 12 19 l 1
 85 24 99 39 99 109 c 2
 99 553 l 2
 99 623 86 637 12 643 c 1xb380
 12 662 l 1
 543 662 l 1
 546 519 l 1
 521 519 l 1x3980
 504 609 482 624 369 624 c 2
 234 624 l 2
 207 624 201 618 201 590 c 2
 201 368 l 1
 355 368 l 2
 402 368 430 376 443 393 c 0
 454 407 458 422 465 463 c 1
 488 463 l 1
 488 231 l 1
 465 231 l 1
 452 314 437 327 355 327 c 2
 201 327 l 1
 201 80 l 2
 201 63 203 52 208 49 c 1
 215 42 257 37 306 37 c 2
 333 37 l 2x7580
 476 37 519 61 569 169 c 1
 597 169 l 1
EndSplineSet
Ligature: 0 0 'liga' E uni0304
EndChar
StartChar: Imacron
Encoding: 312 298 206
Width: 333
Flags: W
HStem: 0 19<12 40 281.667 309> 643 19<12 29 288 309> 760 54<5 316>
VStem: 109 102<109 577>
Fore
109 109 m 2
 109 553 l 2
 109 627 97 638 12 643 c 1
 12 662 l 1
 309 662 l 1
 309 643 l 1
 225 639 211 626 211 553 c 2
 211 109 l 2
 211 36 227 22 309 19 c 1
 309 0 l 1
 12 0 l 1
 12 19 l 1
 96 22 109 34 109 109 c 2
5 814 m 1
 316 814 l 1
 316 760 l 1
 5 760 l 1
 5 814 l 1
EndSplineSet
Ligature: 0 0 'liga' I uni0304
EndChar
StartChar: Iogonek
Encoding: 313 302 207
Width: 333
Flags: W
HStem: -165 56<285 306> 0 19<18 46> 643 19<18 35 294 315>
VStem: 115 102<109 572> 212 56<-89 -70>
Fore
315 19 m 1xf0
 315 0 l 1
 310 -1 307 -4 296 -13 c 1
 278 -32 268 -51 268 -70 c 0
 268 -92 284 -109 306 -109 c 0
 327 -109 346 -99 377 -73 c 1
 397 -89 l 1
 360 -142 326 -165 285 -165 c 0
 244 -165 212 -132 212 -89 c 0xe8
 212 -56 227 -31 266 0 c 1
 18 0 l 1
 18 19 l 1
 102 22 115 34 115 109 c 2
 115 553 l 2
 115 627 103 638 18 643 c 1
 18 662 l 1
 315 662 l 1
 315 643 l 1
 231 639 217 626 217 553 c 2
 217 109 l 2
 217 36 233 22 315 19 c 1xf0
EndSplineSet
Ligature: 0 0 'liga' I uni0328
EndChar
StartChar: Kcommaaccent
Encoding: 314 310 208
Width: 722
Flags: W
HStem: -22 20G<164.5 169> 0 19<12 27.8 278.4 294 396 408 649 701> 642 20<391 417>
VStem: 102 102<91 296 120 580> 179 39<-16 13>
Fore
391 643 m 1xf0
 391 662 l 1
 653 662 l 1
 653 643 l 1
 585 638 569 630 501 565 c 1
 311 377 l 1
 544 127 l 2
 635 30 649 20 701 19 c 1
 701 0 l 1
 396 0 l 1
 396 19 l 1
 408 20 419 20 424 20 c 0
 452 21 466 28 466 42 c 0
 466 66 412 137 336 212 c 2
 230 317 l 1
 204 296 l 1
 204 109 l 2
 204 36 216 24 294 19 c 1
 294 0 l 1
 12 0 l 1
 12 19 l 1
 91 24 102 37 102 120 c 2
 102 553 l 2
 102 624 90 637 12 643 c 1
 12 662 l 1
 296 662 l 1
 296 643 l 1
 215 637 204 626 204 553 c 2
 204 348 l 1
 381 509 l 2
 436 560 459 590 459 612 c 0
 459 632 447 640 417 642 c 0
 413 642 403 642 391 643 c 1xf0
106 -141 m 1
 97 -122 l 1
 151 -85 179 -48 179 -16 c 0
 179 -8 173 -2 165 -2 c 0
 164 -2 164 -2 157 -4 c 0
 151 -5 144 -6 138 -6 c 0
 102 -6 79 13 79 45 c 0
 79 79 103 102 138 102 c 0
 183 102 218 63 218 13 c 0xe8
 218 -47 173 -108 106 -141 c 1
EndSplineSet
Ligature: 0 0 'liga' K uni0327
EndChar
StartChar: Lcommaaccent
Encoding: 315 315 209
Width: 611
Flags: W
HStem: -146 108<295 301> 0 19<12 26.6> 0 39<251 550> 643 19<12 24.3333 278.2 294>
VStem: 99 102<86 568> 236 139<-127 -95> 336 39<-156 -127>
Fore
263 -281 m 1x9c
 254 -262 l 1
 308 -225 336 -188 336 -156 c 0x9a
 336 -148 330 -142 322 -142 c 0
 321 -142 321 -142 314 -144 c 0
 308 -145 301 -146 295 -146 c 0
 259 -146 236 -127 236 -95 c 0
 236 -61 260 -38 295 -38 c 0
 340 -38 375 -77 375 -127 c 0
 375 -187 330 -248 263 -281 c 1x9c
573 174 m 1
 598 174 l 1
 550 0 l 1xb8
 12 0 l 1
 12 19 l 1xd8
 85 24 99 39 99 109 c 2
 99 553 l 2
 99 623 86 637 12 643 c 1
 12 662 l 1
 294 662 l 1
 294 643 l 1
 215 638 201 624 201 553 c 2
 201 80 l 2
 201 45 214 39 287 39 c 2
 354 39 l 2xb8
 437 39 492 57 527 96 c 0
 542 113 556 136 573 174 c 1
EndSplineSet
Ligature: 0 0 'liga' L uni0327
EndChar
StartChar: Ncommaaccent
Encoding: 316 325 210
Width: 722
Flags: W
HStem: -146 108<350 352> 0 19<12 25.8333 227.75 247> 643 19<12 33.0487 472 484.667 697.5 707>
VStem: 109 44<147 539> 291 139<-127 -95> 391 39<-156 -127> 568 44<178 541>
DStem: 153 539 183 662 595 -11 568 178
Fore
318 -281 m 1xfa
 309 -262 l 1
 363 -225 391 -188 391 -156 c 0xf6
 391 -148 385 -142 377 -142 c 0
 376 -142 376 -142 369 -144 c 0
 363 -145 356 -146 350 -146 c 0
 314 -146 291 -127 291 -95 c 0
 291 -61 315 -38 350 -38 c 0
 395 -38 430 -77 430 -127 c 0
 430 -187 385 -248 318 -281 c 1xfa
612 -11 m 1
 595 -11 l 1
 153 539 l 1
 153 147 l 2
 153 46 170 23 247 19 c 1
 247 0 l 1
 12 0 l 1
 12 19 l 1
 95 25 109 44 109 147 c 2
 109 588 l 1
 69 635 55 643 12 643 c 1
 12 662 l 1
 183 662 l 1
 568 178 l 1
 568 515 l 2
 568 577 559 613 539 627 c 0
 524 636 510 640 472 643 c 1
 472 662 l 1
 707 662 l 1
 707 643 l 1
 669 639 655 635 641 625 c 0
 622 612 612 575 612 515 c 2
 612 -11 l 1
EndSplineSet
Ligature: 0 0 'liga' N uni0327
EndChar
StartChar: Omacron
Encoding: 317 332 211
Width: 722
Flags: W
HStem: -14 36<353 371> 640 36<361 371> 759 54<206 517>
VStem: 34 114<305 355> 574 114<305 355>
Fore
206 813 m 1
 517 813 l 1
 517 759 l 1
 206 759 l 1
 206 813 l 1
361 676 m 0
 457 676 541 640 604 571 c 0
 659 511 688 426 688 327 c 0
 688 126 552 -14 355 -14 c 0
 267 -14 178 25 120 88 c 0
 66 146 34 237 34 331 c 0
 34 532 170 676 361 676 c 0
361 640 m 0
 306 640 257 618 218 575 c 0
 176 528 148 431 148 329 c 0
 148 218 181 117 233 71 c 0
 268 40 313 22 359 22 c 0
 412 22 457 40 492 75 c 0
 515 98 532 123 541 148 c 0
 561 200 574 269 574 328 c 0
 574 447 543 541 489 590 c 0
 453 622 407 640 361 640 c 0
EndSplineSet
Ligature: 0 0 'liga' O uni0304
EndChar
StartChar: Rcommaaccent
Encoding: 318 342 212
Width: 667
Flags: W
HStem: -22 20G<164.5 169> 0 19<12 24.5 273.6 289 641.333 654> 625 37<12 269> 643 19<12 21.375>
VStem: 97 102<86 306 120 589> 179 39<-16 13> 433 109<482 500>
Fore
654 19 m 1xda
 654 0 l 1
 493 0 l 1
 255 308 l 1
 199 306 l 1
 199 109 l 2
 199 37 212 24 289 19 c 1
 289 0 l 1
 12 0 l 1
 12 19 l 1
 87 25 97 37 97 120 c 2
 97 553 l 2
 97 624 87 635 12 643 c 1xda
 12 662 l 1xea
 288 662 l 2
 382 662 465 636 503 595 c 0
 529 566 542 529 542 486 c 0
 542 439 523 397 491 371 c 0
 458 344 428 332 361 319 c 1
 567 66 l 1
 596 32 616 22 654 19 c 1xda
199 589 m 2
 199 343 l 1
 295 345 330 351 376 377 c 0
 412 396 433 438 433 488 c 0
 433 582 375 625 250 625 c 0xea
 210 625 199 617 199 589 c 2
106 -141 m 1
 97 -122 l 1xca
 151 -85 179 -48 179 -16 c 0
 179 -8 173 -2 165 -2 c 0
 164 -2 164 -2 157 -4 c 0
 151 -5 144 -6 138 -6 c 0
 102 -6 79 13 79 45 c 0
 79 79 103 102 138 102 c 0
 183 102 218 63 218 13 c 0xc6
 218 -47 173 -108 106 -141 c 1
EndSplineSet
Ligature: 0 0 'liga' R uni0327
EndChar
StartChar: Gcommaaccent
Encoding: 319 290 213
Width: 722
Flags: W
HStem: -146 108<337.729 353> -14 40<383 411> 336 18<454 468.333 697.4 709> 465 21G<607 630> 636 40<369 401>
VStem: 32 114<294 354> 291 139<-127 -95> 391 39<-156 -127> 542 97<83 264>
Fore
318 -281 m 1xfe80
 309 -262 l 1
 363 -225 391 -188 391 -156 c 0xfd80
 391 -148 385 -142 377 -142 c 0
 376 -142 376 -142 369 -144 c 0
 363 -145 356 -146 350 -146 c 0
 314 -146 291 -127 291 -95 c 0
 291 -61 315 -38 350 -38 c 0
 395 -38 430 -77 430 -127 c 0
 430 -187 385 -248 318 -281 c 1xfe80
709 354 m 1
 709 336 l 1
 651 331 639 318 639 259 c 2
 639 56 l 1
 599 21 474 -14 388 -14 c 0
 278 -14 182 24 115 93 c 0
 59 152 32 227 32 325 c 0
 32 529 175 676 375 676 c 0
 420 676 466 668 511 653 c 0
 529 646 545 643 555 643 c 0
 576 643 594 657 600 676 c 1
 622 676 l 1
 630 465 l 1
 607 465 l 1
 582 526 566 553 536 581 c 0
 497 617 448 636 392 636 c 0
 324 636 262 609 218 560 c 0
 174 511 146 420 146 326 c 0
 146 140 246 26 409 26 c 0
 481 26 542 53 542 85 c 2
 542 247 l 2
 542 290 536 313 521 322 c 0
 509 330 497 333 454 336 c 1
 454 354 l 1
 709 354 l 1
EndSplineSet
Ligature: 0 0 'liga' G uni0327
EndChar
StartChar: Umacron
Encoding: 320 362 214
Width: 722
Flags: W
HStem: -14 44<353 383> 643 19<14 27.1667 285.571 297 473 486 696.8 705> 759 54<226 537>
VStem: 104 102<209 579> 567 44<225 547>
Fore
226 813 m 1
 537 813 l 1
 537 759 l 1
 226 759 l 1
 226 813 l 1
611 515 m 2
 611 254 l 2
 611 177 602 131 578 89 c 0
 539 21 464 -14 355 -14 c 0
 185 -14 104 68 104 241 c 2
 104 553 l 2
 104 626 93 637 14 643 c 1
 14 662 l 1
 297 662 l 1
 297 643 l 1
 217 636 206 625 206 553 c 2
 206 233 l 2
 206 170 213 133 231 101 c 0
 258 54 307 30 378 30 c 0
 453 30 517 61 544 109 c 0
 560 139 567 177 567 245 c 2
 567 515 l 2
 567 615 551 637 473 643 c 1
 473 662 l 1
 705 662 l 1
 705 643 l 1
 623 633 611 617 611 515 c 2
EndSplineSet
Ligature: 0 0 'liga' U uni0304
EndChar
StartChar: Uogonek
Encoding: 321 370 215
Width: 722
Flags: W
HStem: -165 56<471 492> -14 44<353 380> 643 19<14 27.1667 285.571 297 473 486 696.8 705>
VStem: 104 102<218 572> 398 56<-89 -71> 567 44<218 540>
Fore
564 -73 m 1
 584 -89 l 1
 546 -142 513 -165 471 -165 c 0
 430 -165 398 -132 398 -89 c 0
 398 -58 414 -31 449 -3 c 1
 416 -10 387 -14 353 -14 c 0
 185 -14 104 69 104 241 c 2
 104 553 l 2
 104 626 93 637 14 643 c 1
 14 662 l 1
 297 662 l 1
 297 643 l 1
 217 636 206 625 206 553 c 2
 206 233 l 2
 206 170 213 133 231 101 c 0
 258 54 307 30 378 30 c 0
 453 30 517 61 544 109 c 0
 560 139 567 177 567 245 c 2
 567 515 l 2
 567 615 551 637 473 643 c 1
 473 662 l 1
 705 662 l 1
 705 643 l 1
 623 633 611 617 611 515 c 2
 611 254 l 2
 611 132 592 88 514 23 c 0
 472 -12 454 -40 454 -71 c 0
 454 -93 471 -109 492 -109 c 0
 514 -109 533 -99 564 -73 c 1
EndSplineSet
Ligature: 0 0 'liga' U uni0328
EndChar
StartChar: adieresis
Encoding: 322 228 216
Width: 444
Flags: W
HStem: -10 58<142 188> 436 24<209 226> 523 99<121 127 310.892 326>
VStem: 37 88<97 125> 56 88<341 355> 73 99<565 575> 287 81<104 327>
Fore
121 622 m 0xe6
 149 622 172 599 172 572 c 0
 172 545 149 523 121 523 c 0
 94 523 73 545 73 573 c 0
 73 599 96 622 121 622 c 0xe6
320 622 m 0
 348 622 371 599 371 572 c 0
 371 545 348 523 320 523 c 0
 293 523 272 545 272 573 c 0
 272 599 295 622 320 622 c 0
442 66 m 1
 442 40 l 1
 407 2 386 -10 352 -10 c 0
 311 -10 293 11 288 63 c 1
 227 11 186 -10 142 -10 c 0
 81 -10 37 34 37 97 c 0xf2
 37 130 51 164 73 184 c 0xe6
 116 222 133 230 287 292 c 1
 287 353 l 2
 287 407 260 436 211 436 c 0
 171 436 139 414 139 387 c 0
 139 380 140 372 142 363 c 0
 143 356 144 351 144 347 c 0
 144 325 123 305 99 305 c 0
 76 305 56 325 56 348 c 0xea
 56 411 130 460 224 460 c 0
 283 460 326 441 348 405 c 0
 363 381 368 352 368 300 c 2
 368 105 l 2
 368 61 375 47 398 47 c 0
 413 47 425 52 442 66 c 1
287 123 m 2
 287 268 l 1
 166 224 125 188 125 129 c 2
 125 125 l 2
 125 82 153 48 188 48 c 0
 209 48 237 57 261 71 c 0
 282 83 287 92 287 123 c 2
EndSplineSet
KernsSLIF: 121 -32 0 0 119 -31 0 0 118 -30 0 0
Ligature: 0 0 'liga' a uni0308
EndChar
StartChar: aacute
Encoding: 323 225 217
Width: 444
Flags: W
HStem: -10 58<142 188> 436 24<209 226> 658 20G<330.5 349>
VStem: 37 88<97 125> 56 88<341 355> 287 81<104 327>
Fore
189 507 m 1xe4
 149 507 l 1
 296 655 l 2
 314 673 323 678 338 678 c 0
 360 678 373 666 373 646 c 0
 373 630 364 617 343 604 c 2
 189 507 l 1xe4
442 66 m 1
 442 40 l 1
 407 2 386 -10 352 -10 c 0
 311 -10 293 11 288 63 c 1
 227 11 186 -10 142 -10 c 0
 81 -10 37 34 37 97 c 0xf4
 37 130 51 164 73 184 c 0
 116 222 133 230 287 292 c 1
 287 353 l 2
 287 407 260 436 211 436 c 0
 171 436 139 414 139 387 c 0
 139 380 140 372 142 363 c 0
 143 356 144 351 144 347 c 0
 144 325 123 305 99 305 c 0
 76 305 56 325 56 348 c 0xec
 56 411 130 460 224 460 c 0
 283 460 326 441 348 405 c 0
 363 381 368 352 368 300 c 2
 368 105 l 2
 368 61 375 47 398 47 c 0
 413 47 425 52 442 66 c 1
287 123 m 2
 287 268 l 1
 166 224 125 188 125 129 c 2
 125 125 l 2
 125 82 153 48 188 48 c 0
 209 48 237 57 261 71 c 0
 282 83 287 92 287 123 c 2
EndSplineSet
KernsSLIF: 121 -32 0 0 119 -31 0 0 118 -30 0 0
Ligature: 0 0 'liga' a acutecomb
EndChar
StartChar: agrave
Encoding: 324 224 218
Width: 444
Flags: W
HStem: -10 58<142 188> 436 24<209 226> 658 20G<97.5 115.5>
VStem: 37 88<97 125> 56 88<341 355> 287 81<104 327>
Fore
297 507 m 1xe4
 257 507 l 1
 103 604 l 2
 85 616 74 631 74 647 c 0
 74 666 87 678 108 678 c 0
 123 678 132 673 150 655 c 2
 297 507 l 1xe4
442 66 m 1
 442 40 l 1
 407 2 386 -10 352 -10 c 0
 311 -10 293 11 288 63 c 1
 227 11 186 -10 142 -10 c 0
 81 -10 37 34 37 97 c 0xf4
 37 130 51 164 73 184 c 0
 116 222 133 230 287 292 c 1
 287 353 l 2
 287 407 260 436 211 436 c 0
 171 436 139 414 139 387 c 0
 139 380 140 372 142 363 c 0
 143 356 144 351 144 347 c 0
 144 325 123 305 99 305 c 0
 76 305 56 325 56 348 c 0xec
 56 411 130 460 224 460 c 0
 283 460 326 441 348 405 c 0
 363 381 368 352 368 300 c 2
 368 105 l 2
 368 61 375 47 398 47 c 0
 413 47 425 52 442 66 c 1
287 123 m 2
 287 268 l 1
 166 224 125 188 125 129 c 2
 125 125 l 2
 125 82 153 48 188 48 c 0
 209 48 237 57 261 71 c 0
 282 83 287 92 287 123 c 2
EndSplineSet
KernsSLIF: 121 -32 0 0 119 -31 0 0 118 -30 0 0
Ligature: 0 0 'liga' a gravecomb
EndChar
StartChar: acircumflex
Encoding: 325 226 219
Width: 444
Flags: W
HStem: -10 58<142 188> 436 24<209 226> 654 20G<191 253>
VStem: 37 88<97 125> 56 88<341 355> 287 81<104 327>
Fore
378 507 m 1xe4
 344 507 l 1
 222 610 l 1
 101 507 l 1
 67 507 l 1
 191 674 l 1
 253 674 l 1
 378 507 l 1xe4
442 66 m 1
 442 40 l 1
 407 2 386 -10 352 -10 c 0
 311 -10 293 11 288 63 c 1
 227 11 186 -10 142 -10 c 0
 81 -10 37 34 37 97 c 0xf4
 37 130 51 164 73 184 c 0
 116 222 133 230 287 292 c 1
 287 353 l 2
 287 407 260 436 211 436 c 0
 171 436 139 414 139 387 c 0
 139 380 140 372 142 363 c 0
 143 356 144 351 144 347 c 0
 144 325 123 305 99 305 c 0
 76 305 56 325 56 348 c 0xec
 56 411 130 460 224 460 c 0
 283 460 326 441 348 405 c 0
 363 381 368 352 368 300 c 2
 368 105 l 2
 368 61 375 47 398 47 c 0
 413 47 425 52 442 66 c 1
287 123 m 2
 287 268 l 1
 166 224 125 188 125 129 c 2
 125 125 l 2
 125 82 153 48 188 48 c 0
 209 48 237 57 261 71 c 0
 282 83 287 92 287 123 c 2
EndSplineSet
Ligature: 0 0 'liga' a uni0302
EndChar
StartChar: abreve
Encoding: 326 259 220
Width: 444
Flags: W
HStem: -10 58<142 188> 436 24<209 226> 507 60<209 230> 644 20G<82 111 334 363>
VStem: 37 88<97 125> 56 88<341 355> 287 81<104 327>
Fore
334 664 m 1xf2
 363 664 l 1
 351 558 305 507 221 507 c 0
 174 507 134 526 109 561 c 0
 90 589 83 613 82 664 c 1
 111 664 l 1
 125 597 159 567 223 567 c 0
 281 567 306 588 334 664 c 1xf2
442 66 m 1
 442 40 l 1
 407 2 386 -10 352 -10 c 0
 311 -10 293 11 288 63 c 1
 227 11 186 -10 142 -10 c 0
 81 -10 37 34 37 97 c 0xfa
 37 130 51 164 73 184 c 0
 116 222 133 230 287 292 c 1
 287 353 l 2
 287 407 260 436 211 436 c 0
 171 436 139 414 139 387 c 0
 139 380 140 372 142 363 c 0
 143 356 144 351 144 347 c 0
 144 325 123 305 99 305 c 0
 76 305 56 325 56 348 c 0xf6
 56 411 130 460 224 460 c 0
 283 460 326 441 348 405 c 0
 363 381 368 352 368 300 c 2
 368 105 l 2
 368 61 375 47 398 47 c 0
 413 47 425 52 442 66 c 1
287 123 m 2
 287 268 l 1
 166 224 125 188 125 129 c 2
 125 125 l 2
 125 82 153 48 188 48 c 0
 209 48 237 57 261 71 c 0
 282 83 287 92 287 123 c 2
EndSplineSet
Ligature: 0 0 'liga' a uni0306
EndChar
StartChar: atilde
Encoding: 327 227 221
Width: 444
Flags: W
HStem: -10 58<142 188> 436 24<200 226> 532 56<282 305> 578 55<137 158>
VStem: 37 88<97 125> 56 88<341 355> 287 81<104 327>
Fore
358 638 m 1xe2
 387 638 l 1
 366 562 337 532 282 532 c 0xe2
 257 532 242 536 201 556 c 2
 178 567 l 2
 163 574 149 578 137 578 c 0xd2
 114 578 97 563 86 532 c 1
 57 532 l 1xe2
 72 597 108 633 158 633 c 0xd2
 180 633 205 627 228 615 c 2
 252 603 l 2
 271 594 290 588 305 588 c 0
 328 588 341 600 358 638 c 1xe2
442 66 m 1
 442 40 l 1
 407 2 386 -10 352 -10 c 0
 311 -10 293 11 288 63 c 1
 227 11 186 -10 142 -10 c 0
 81 -10 37 34 37 97 c 0xca
 37 130 51 164 73 184 c 0
 116 222 133 230 287 292 c 1
 287 353 l 2
 287 407 260 436 211 436 c 0
 171 436 139 414 139 387 c 0
 139 380 140 372 142 363 c 0
 143 356 144 351 144 347 c 0
 144 325 123 305 99 305 c 0
 76 305 56 325 56 348 c 0xc6
 56 411 130 460 224 460 c 0
 283 460 326 441 348 405 c 0
 363 381 368 352 368 300 c 2
 368 105 l 2
 368 61 375 47 398 47 c 0
 413 47 425 52 442 66 c 1
287 123 m 2
 287 268 l 1
 166 224 125 188 125 129 c 2
 125 125 l 2
 125 82 153 48 188 48 c 0
 209 48 237 57 261 71 c 0
 282 83 287 92 287 123 c 2
EndSplineSet
Ligature: 0 0 'liga' a tildecomb
EndChar
StartChar: aring
Encoding: 328 229 222
Width: 444
Flags: W
HStem: -10 58<142 188> 436 24<209 226> 522 34<209 230> 687 34<210 230>
VStem: 37 88<97 125> 56 88<341 355> 122 34<622 631> 287 34<621 631> 287 81<104 327>
Fore
221 721 m 0xf3
 276 721 321 676 321 621 c 0
 321 566 276 522 221 522 c 0
 165 522 122 566 122 622 c 0
 122 676 167 721 221 721 c 0xf3
222 687 m 0
 186 687 156 658 156 622 c 0
 156 586 185 556 220 556 c 0
 257 556 287 585 287 621 c 0
 287 657 257 687 222 687 c 0
442 66 m 1
 442 40 l 1
 407 2 386 -10 352 -10 c 0
 311 -10 293 11 288 63 c 1
 227 11 186 -10 142 -10 c 0
 81 -10 37 34 37 97 c 0xf880
 37 130 51 164 73 184 c 0
 116 222 133 230 287 292 c 1
 287 353 l 2
 287 407 260 436 211 436 c 0
 171 436 139 414 139 387 c 0
 139 380 140 372 142 363 c 0
 143 356 144 351 144 347 c 0
 144 325 123 305 99 305 c 0
 76 305 56 325 56 348 c 0
 56 411 130 460 224 460 c 0
 283 460 326 441 348 405 c 0
 363 381 368 352 368 300 c 2
 368 105 l 2xf480
 368 61 375 47 398 47 c 0
 413 47 425 52 442 66 c 1
287 123 m 2
 287 268 l 1
 166 224 125 188 125 129 c 2
 125 125 l 2
 125 82 153 48 188 48 c 0
 209 48 237 57 261 71 c 0
 282 83 287 92 287 123 c 2
EndSplineSet
KernsSLIF: 121 -32 0 0 119 -31 0 0 118 -30 0 0
Ligature: 0 0 'liga' a uni030A
EndChar
StartChar: aogonek
Encoding: 329 261 223
Width: 444
Flags: W
HStem: -165 56<332 353> -10 58<142 188> 436 24<209 226>
VStem: 37 88<97 125> 56 88<345 355> 259 56<-89 -66> 287 81<104 332>
Fore
442 66 m 1xea
 442 40 l 1
 407 2 396 -4 355 -11 c 0
 331 -16 315 -38 315 -66 c 0
 315 -92 330 -109 353 -109 c 0
 374 -109 393 -99 424 -73 c 1
 444 -89 l 1
 407 -142 373 -165 332 -165 c 0
 291 -165 259 -132 259 -89 c 0
 259 -57 275 -30 313 0 c 1
 297 15 291 30 288 63 c 1
 227 11 186 -10 142 -10 c 0
 81 -10 37 34 37 97 c 0xf4
 37 130 51 164 73 184 c 0
 116 222 133 230 287 292 c 1
 287 353 l 2
 287 407 260 436 211 436 c 0
 171 436 139 414 139 387 c 0
 139 380 140 372 142 363 c 0
 143 356 144 351 144 347 c 0
 144 325 123 305 99 305 c 0
 76 305 56 325 56 348 c 0
 56 411 130 460 224 460 c 0
 283 460 326 441 348 405 c 0
 363 381 368 352 368 300 c 2
 368 105 l 2
 368 61 375 47 398 47 c 0
 413 47 425 52 442 66 c 1xea
287 123 m 2xf2
 287 268 l 1
 166 224 125 188 125 129 c 2
 125 125 l 2
 125 82 153 48 188 48 c 0
 209 48 237 57 261 71 c 0
 282 83 287 92 287 123 c 2xf2
EndSplineSet
Ligature: 0 0 'liga' a uni0328
EndChar
StartChar: cacute
Encoding: 330 263 224
Width: 444
Flags: W
HStem: -10 72<215 257> 431 29<232 250> 658 20G<350.5 369>
VStem: 25 77<213 257>
Fore
209 507 m 1
 169 507 l 1
 316 655 l 2
 334 673 343 678 358 678 c 0
 380 678 393 666 393 646 c 0
 393 630 384 617 363 604 c 2
 209 507 l 1
398 156 m 1
 412 147 l 1
 382 88 363 61 336 37 c 0
 300 6 260 -10 215 -10 c 0
 104 -10 25 83 25 213 c 0
 25 292 53 360 103 404 c 0
 144 440 195 460 244 460 c 0
 328 460 398 413 398 357 c 0
 398 334 376 315 350 315 c 0
 329 315 311 333 303 361 c 2
 297 383 l 2
 287 420 274 431 238 431 c 0
 157 431 102 360 102 257 c 0
 102 142 166 62 257 62 c 0
 314 62 350 86 398 156 c 1
EndSplineSet
Ligature: 0 0 'liga' c acutecomb
EndChar
StartChar: ccaron
Encoding: 331 269 225
Width: 444
Flags: W
HStem: -10 72<215 257> 431 29<232 250> 654 20G<87 121 364 398>
VStem: 25 77<213 257>
Fore
398 674 m 1
 273 507 l 1
 211 507 l 1
 87 674 l 1
 121 674 l 1
 242 571 l 1
 364 674 l 1
 398 674 l 1
398 156 m 1
 412 147 l 1
 382 88 363 61 336 37 c 0
 300 6 260 -10 215 -10 c 0
 104 -10 25 83 25 213 c 0
 25 292 53 360 103 404 c 0
 144 440 195 460 244 460 c 0
 328 460 398 413 398 357 c 0
 398 334 376 315 350 315 c 0
 329 315 311 333 303 361 c 2
 297 383 l 2
 287 420 274 431 238 431 c 0
 157 431 102 360 102 257 c 0
 102 142 166 62 257 62 c 0
 314 62 350 86 398 156 c 1
EndSplineSet
Ligature: 0 0 'liga' c uni030C
EndChar
StartChar: ccedilla
Encoding: 332 231 226
Width: 444
Flags: W
HStem: -215 35<168 194> -100 38<189 231> 431 29<224 250>
VStem: 25 77<212 257> 242 75<-138 -129>
DStem: 192 -8 226 -10 154 -99 205 -65
Fore
226 -10 m 1
 205 -65 l 1
 215 -63 221 -62 231 -62 c 0
 285 -62 317 -88 317 -131 c 0
 317 -183 269 -215 192 -215 c 0
 160 -215 137 -211 108 -199 c 1
 122 -168 l 1
 149 -177 166 -180 187 -180 c 0
 221 -180 242 -163 242 -136 c 0
 242 -110 227 -100 189 -100 c 0
 178 -100 169 -101 161 -104 c 1
 154 -99 l 1
 192 -8 l 1
 91 5 25 93 25 212 c 0
 25 292 53 360 103 404 c 0
 144 440 195 460 244 460 c 0
 328 460 398 413 398 357 c 0
 398 334 376 315 351 315 c 0
 329 315 311 332 303 361 c 2
 297 383 l 2
 287 420 274 431 238 431 c 0
 157 431 102 360 102 257 c 0
 102 142 166 62 257 62 c 0
 314 62 350 86 398 156 c 1
 412 147 l 1
 360 42 307 -3 226 -10 c 1
EndSplineSet
Ligature: 0 0 'liga' c uni0327
EndChar
StartChar: dcaron
Encoding: 333 271 227
Width: 500
Flags: W
HStem: -10 52<212 251> 432 28<233 251> 568 108<519 524>
VStem: 27 86<205 245> 340 84<100 343 417 681> 460 139<587 619> 560 39<558 587>
Fore
487 433 m 1xfc
 478 452 l 1
 532 489 560 526 560 558 c 0xfa
 560 566 554 572 546 572 c 0
 545 572 545 572 538 570 c 0
 532 569 525 568 519 568 c 0
 483 568 460 587 460 619 c 0
 460 653 484 676 519 676 c 0
 564 676 599 637 599 587 c 0
 599 527 554 466 487 433 c 1xfc
344 -10 m 1
 340 -7 l 1
 340 57 l 1
 306 10 268 -10 212 -10 c 0
 102 -10 27 77 27 205 c 0
 27 347 120 460 235 460 c 0
 275 460 302 449 340 417 c 1
 340 573 l 2
 340 614 331 624 294 624 c 0
 286 624 280 624 272 623 c 1
 272 639 l 1
 336 656 371 666 419 683 c 1
 424 681 l 1
 424 114 l 2
 424 68 432 57 468 57 c 0
 471 57 473 57 491 58 c 1
 491 42 l 1
 344 -10 l 1
340 102 m 2
 340 332 l 2
 340 385 291 432 238 432 c 0
 162 432 113 358 113 245 c 0
 113 122 168 42 251 42 c 0
 280 42 305 52 323 72 c 0
 333 83 340 95 340 102 c 2
EndSplineSet
Ligature: 0 0 'liga' d uni030C
EndChar
StartChar: edieresis
Encoding: 334 235 228
Width: 444
Flags: W
HStem: -10 69<212 253> 277 32<99 405> 424 36<205 234> 523 99<111.892 126 320 330>
VStem: 73 99<565 575> 272 99<565 575>
Fore
121 622 m 0
 149 622 172 599 172 572 c 0
 172 545 149 523 121 523 c 0
 94 523 73 545 73 573 c 0
 73 599 96 622 121 622 c 0
320 622 m 0
 348 622 371 599 371 572 c 0
 371 545 348 523 320 523 c 0
 293 523 272 545 272 573 c 0
 272 599 295 622 320 622 c 0
408 164 m 1
 424 157 l 1
 382 49 307 -10 212 -10 c 0
 97 -10 25 76 25 214 c 0
 25 296 52 367 99 408 c 0
 137 442 184 460 234 460 c 0
 286 460 332 439 362 403 c 0
 387 371 397 342 405 277 c 1
 97 277 l 1
 99 216 106 183 124 145 c 0
 153 88 196 59 253 59 c 0
 317 59 360 88 408 164 c 1
99 309 m 1
 303 309 l 1
 290 396 266 424 205 424 c 0
 144 424 110 387 99 309 c 1
EndSplineSet
Ligature: 0 0 'liga' e uni0308
EndChar
StartChar: eacute
Encoding: 335 233 229
Width: 444
Flags: W
HStem: -10 69<212 253> 277 32<99 405> 424 36<205 234> 658 20G<330.5 349>
Fore
189 507 m 1
 149 507 l 1
 296 655 l 2
 314 673 323 678 338 678 c 0
 360 678 373 666 373 646 c 0
 373 630 364 617 343 604 c 2
 189 507 l 1
408 164 m 1
 424 157 l 1
 382 49 307 -10 212 -10 c 0
 97 -10 25 76 25 214 c 0
 25 296 52 367 99 408 c 0
 137 442 184 460 234 460 c 0
 286 460 332 439 362 403 c 0
 387 371 397 342 405 277 c 1
 97 277 l 1
 99 216 106 183 124 145 c 0
 153 88 196 59 253 59 c 0
 317 59 360 88 408 164 c 1
99 309 m 1
 303 309 l 1
 290 396 266 424 205 424 c 0
 144 424 110 387 99 309 c 1
EndSplineSet
KernsSLIF: 121 -30 0 0 119 -28 0 0 118 -27 0 0
Ligature: 0 0 'liga' e acutecomb
EndChar
StartChar: egrave
Encoding: 336 232 230
Width: 444
Flags: W
HStem: -10 69<212 253> 277 32<99 405> 424 36<205 234> 658 20G<97.5 115.5>
Fore
297 507 m 1
 257 507 l 1
 103 604 l 2
 85 616 74 631 74 647 c 0
 74 666 87 678 108 678 c 0
 123 678 132 673 150 655 c 2
 297 507 l 1
408 164 m 1
 424 157 l 1
 382 49 307 -10 212 -10 c 0
 97 -10 25 76 25 214 c 0
 25 296 52 367 99 408 c 0
 137 442 184 460 234 460 c 0
 286 460 332 439 362 403 c 0
 387 371 397 342 405 277 c 1
 97 277 l 1
 99 216 106 183 124 145 c 0
 153 88 196 59 253 59 c 0
 317 59 360 88 408 164 c 1
99 309 m 1
 303 309 l 1
 290 396 266 424 205 424 c 0
 144 424 110 387 99 309 c 1
EndSplineSet
Ligature: 0 0 'liga' e gravecomb
EndChar
StartChar: ecircumflex
Encoding: 337 234 231
Width: 444
Flags: W
HStem: -10 69<212 253> 277 32<99 405> 424 36<205 234> 654 20G<191 253>
Fore
378 507 m 1
 344 507 l 1
 222 610 l 1
 101 507 l 1
 67 507 l 1
 191 674 l 1
 253 674 l 1
 378 507 l 1
408 164 m 1
 424 157 l 1
 382 49 307 -10 212 -10 c 0
 97 -10 25 76 25 214 c 0
 25 296 52 367 99 408 c 0
 137 442 184 460 234 460 c 0
 286 460 332 439 362 403 c 0
 387 371 397 342 405 277 c 1
 97 277 l 1
 99 216 106 183 124 145 c 0
 153 88 196 59 253 59 c 0
 317 59 360 88 408 164 c 1
99 309 m 1
 303 309 l 1
 290 396 266 424 205 424 c 0
 144 424 110 387 99 309 c 1
EndSplineSet
KernsSLIF: 121 -30 0 0 119 -28 0 0 118 -27 0 0
Ligature: 0 0 'liga' e uni0302
EndChar
StartChar: ecaron
Encoding: 338 283 232
Width: 444
Flags: W
HStem: -10 69<212 253> 277 32<99 405> 424 36<205 234> 654 20G<67 101 344 378>
Fore
378 674 m 1
 253 507 l 1
 191 507 l 1
 67 674 l 1
 101 674 l 1
 222 571 l 1
 344 674 l 1
 378 674 l 1
408 164 m 1
 424 157 l 1
 382 49 307 -10 212 -10 c 0
 97 -10 25 76 25 214 c 0
 25 296 52 367 99 408 c 0
 137 442 184 460 234 460 c 0
 286 460 332 439 362 403 c 0
 387 371 397 342 405 277 c 1
 97 277 l 1
 99 216 106 183 124 145 c 0
 153 88 196 59 253 59 c 0
 317 59 360 88 408 164 c 1
99 309 m 1
 303 309 l 1
 290 396 266 424 205 424 c 0
 144 424 110 387 99 309 c 1
EndSplineSet
Ligature: 0 0 'liga' e uni030C
EndChar
StartChar: edotaccent
Encoding: 339 279 233
Width: 444
Flags: W
HStem: -10 69<212 253> 277 32<99 405> 424 36<205 234> 523 99<221 223>
VStem: 173 99<565 575>
Fore
221 622 m 0
 249 622 272 599 272 572 c 0
 272 545 249 523 221 523 c 0
 194 523 173 545 173 573 c 0
 173 599 196 622 221 622 c 0
408 164 m 1
 424 157 l 1
 382 49 307 -10 212 -10 c 0
 97 -10 25 76 25 214 c 0
 25 296 52 367 99 408 c 0
 137 442 184 460 234 460 c 0
 286 460 332 439 362 403 c 0
 387 371 397 342 405 277 c 1
 97 277 l 1
 99 216 106 183 124 145 c 0
 153 88 196 59 253 59 c 0
 317 59 360 88 408 164 c 1
99 309 m 1
 303 309 l 1
 290 396 266 424 205 424 c 0
 144 424 110 387 99 309 c 1
EndSplineSet
Ligature: 0 0 'liga' e uni0307
EndChar
StartChar: eogonek
Encoding: 340 281 234
Width: 444
Flags: W
HStem: -165 56<292 313> -10 69<213 253> 277 32<99 405> 424 36<205 234>
VStem: 219 56<-89 -70>
Fore
408 164 m 1
 424 157 l 1
 408 113 386 81 330 22 c 0
 288 -22 275 -44 275 -70 c 0
 275 -93 291 -109 313 -109 c 0
 335 -109 354 -99 385 -73 c 1
 405 -89 l 1
 367 -142 334 -165 292 -165 c 0
 251 -165 219 -132 219 -89 c 0
 219 -57 234 -31 272 -1 c 1
 249 -8 234 -10 213 -10 c 0
 97 -10 25 76 25 214 c 0
 25 296 52 367 99 408 c 0
 137 442 184 460 234 460 c 0
 286 460 332 439 362 403 c 0
 387 371 397 342 405 277 c 1
 97 277 l 1
 99 216 106 183 124 145 c 0
 153 88 196 59 253 59 c 0
 317 59 360 88 408 164 c 1
99 309 m 1
 303 309 l 1
 290 396 266 424 205 424 c 0
 144 424 110 387 99 309 c 1
EndSplineSet
Ligature: 0 0 'liga' e uni0328
EndChar
StartChar: gbreve
Encoding: 341 287 235
Width: 500
Flags: W
HStem: -218 57<201 244> -35 20G<284.5 354.5> 149 25<242 256> 388 39<387 470> 432 28<219 238> 507 60<234 269> 644 20G<110 139 362 391>
VStem: 28 70<-121 -88> 69 83<297 335> 329 77<265 304> 433 28<-65 -49>
Fore
362 664 m 1xfe60
 391 664 l 1
 379 558 333 507 249 507 c 0
 202 507 162 526 137 561 c 0
 118 589 111 613 110 664 c 1
 139 664 l 1
 153 597 187 567 251 567 c 0
 309 567 334 588 362 664 c 1xfe60
470 388 m 1
 387 388 l 1
 401 356 406 333 406 304 c 0
 406 254 391 219 358 191 c 0
 327 164 287 149 250 149 c 0
 244 149 231 150 212 152 c 0
 209 152 202 153 193 154 c 1
 166 146 133 111 133 91 c 0
 133 75 158 66 211 64 c 2
 340 58 l 2
 414 55 461 13 461 -49 c 0
 461 -87 444 -119 406 -150 c 0
 354 -192 276 -218 201 -218 c 0
 106 -218 28 -174 28 -121 c 0xff60
 28 -84 55 -51 126 1 c 1
 85 21 73 33 73 54 c 0
 73 74 86 94 119 123 c 0
 125 128 143 145 162 163 c 1
 96 196 69 234 69 297 c 0xfee0
 69 388 143 460 236 460 c 0
 262 460 289 455 316 445 c 2
 338 437 l 2
 358 430 373 427 393 427 c 2
 470 427 l 1
 470 388 l 1
147 -2 m 1
 105 -52 98 -65 98 -88 c 0
 98 -132 156 -161 244 -161 c 0
 357 -161 433 -122 433 -64 c 0
 433 -28 400 -15 309 -15 c 0
 260 -15 180 -9 147 -2 c 1
152 338 m 2xfee0
 152 335 l 2
 152 239 194 174 254 174 c 0
 300 174 329 209 329 265 c 0
 329 304 317 350 299 385 c 0
 283 415 257 432 226 432 c 0
 180 432 152 397 152 338 c 2xfee0
EndSplineSet
Ligature: 0 0 'liga' g uni0306
EndChar
StartChar: idieresis
Encoding: 342 239 236
Width: 278
Flags: W
HStem: 0 15<16 33.25 239.8 253> 523 99<49.8918 64 208.892 221>
VStem: 11 99<570 577> 95 84<102 353> 170 99<570 577>
DStem: 175 460 175 460 20 405 179 457
Fore
175 460 m 1xd0
 179 457 l 1
 179 102 l 2
 179 30 187 20 253 15 c 1
 253 0 l 1
 16 0 l 1
 16 15 l 1
 85 19 95 30 95 102 c 2
 95 334 l 2
 95 378 86 394 62 394 c 0
 53 394 40 393 28 391 c 2
 20 390 l 1
 20 405 l 1
 175 460 l 1xd0
218 622 m 0
 246 622 269 599 269 572 c 0
 269 545 246 523 218 523 c 0
 191 523 170 545 170 573 c 0xc8
 170 599 193 622 218 622 c 0
59 622 m 0
 87 622 110 599 110 572 c 0
 110 545 87 523 59 523 c 0
 32 523 11 545 11 573 c 0xe0
 11 599 34 622 59 622 c 0
EndSplineSet
Ligature: 0 0 'liga' i uni0308
EndChar
StartChar: iacute
Encoding: 343 237 237
Width: 278
Flags: W
HStem: 0 15<16 33.25 239.8 253> 658 20G<247.5 266>
VStem: 95 84<102 353>
DStem: 175 460 175 460 20 405 179 457
Fore
106 507 m 1
 66 507 l 1
 213 655 l 2
 231 673 240 678 255 678 c 0
 277 678 290 666 290 646 c 0
 290 630 281 617 260 604 c 2
 106 507 l 1
175 460 m 1
 179 457 l 1
 179 102 l 2
 179 30 187 20 253 15 c 1
 253 0 l 1
 16 0 l 1
 16 15 l 1
 85 19 95 30 95 102 c 2
 95 334 l 2
 95 378 86 394 62 394 c 0
 53 394 40 393 28 391 c 2
 20 390 l 1
 20 405 l 1
 175 460 l 1
EndSplineSet
Ligature: 0 0 'liga' i acutecomb
EndChar
StartChar: igrave
Encoding: 344 236 238
Width: 278
Flags: W
HStem: 0 15<16 33.25 239.8 253> 658 20G<16.5 34.5>
VStem: 95 84<102 353>
DStem: 175 460 175 460 20 405 179 457
Fore
216 507 m 1
 176 507 l 1
 22 604 l 2
 4 616 -7 631 -7 647 c 0
 -7 666 6 678 27 678 c 0
 42 678 51 673 69 655 c 2
 216 507 l 1
175 460 m 1
 179 457 l 1
 179 102 l 2
 179 30 187 20 253 15 c 1
 253 0 l 1
 16 0 l 1
 16 15 l 1
 85 19 95 30 95 102 c 2
 95 334 l 2
 95 378 86 394 62 394 c 0
 53 394 40 393 28 391 c 2
 20 390 l 1
 20 405 l 1
 175 460 l 1
EndSplineSet
Ligature: 0 0 'liga' i gravecomb
EndChar
StartChar: icircumflex
Encoding: 345 238 239
Width: 278
Flags: W
HStem: 0 15<16 33.25 239.8 253> 654 20G<108 170>
VStem: 95 84<102 353>
DStem: 175 460 175 460 20 405 179 457
Fore
295 507 m 1
 261 507 l 1
 139 610 l 1
 18 507 l 1
 -16 507 l 1
 108 674 l 1
 170 674 l 1
 295 507 l 1
175 460 m 1
 179 457 l 1
 179 102 l 2
 179 30 187 20 253 15 c 1
 253 0 l 1
 16 0 l 1
 16 15 l 1
 85 19 95 30 95 102 c 2
 95 334 l 2
 95 378 86 394 62 394 c 0
 53 394 40 393 28 391 c 2
 20 390 l 1
 20 405 l 1
 175 460 l 1
EndSplineSet
Ligature: 0 0 'liga' i uni0302
EndChar
StartChar: lacute
Encoding: 346 314 240
Width: 278
Flags: W
HStem: 0 15<21 33.6 241.25 257>
VStem: 98 84<79 577>
Fore
104 720 m 1
 64 720 l 1
 211 868 l 2
 229 886 238 891 253 891 c 0
 275 891 288 879 288 859 c 0
 288 843 279 830 258 817 c 2
 104 720 l 1
19 623 m 1
 19 639 l 1
 88 656 126 666 178 683 c 1
 182 681 l 1
 182 84 l 2
 182 29 194 19 257 15 c 1
 257 0 l 1
 21 0 l 1
 21 15 l 1
 84 20 98 33 98 87 c 2
 98 564 l 2
 98 611 88 625 56 625 c 0
 48 625 36 624 25 623 c 2
 19 623 l 1
EndSplineSet
Ligature: 0 0 'liga' l acutecomb
EndChar
StartChar: lcaron
Encoding: 347 318 241
Width: 278
Flags: W
HStem: 0 15<21 33.6 241.25 257> 568 108<268 276>
VStem: 98 84<79 577> 309 39<558 587>
Fore
236 433 m 1
 227 452 l 1
 281 489 309 526 309 558 c 0
 309 566 303 572 295 572 c 0
 294 572 294 572 287 570 c 0
 281 569 274 568 268 568 c 0
 232 568 209 587 209 619 c 0
 209 653 233 676 268 676 c 0
 313 676 348 637 348 587 c 0
 348 527 303 466 236 433 c 1
19 623 m 1
 19 639 l 1
 88 656 126 666 178 683 c 1
 182 681 l 1
 182 84 l 2
 182 29 194 19 257 15 c 1
 257 0 l 1
 21 0 l 1
 21 15 l 1
 84 20 98 33 98 87 c 2
 98 564 l 2
 98 611 88 625 56 625 c 0
 48 625 36 624 25 623 c 2
 19 623 l 1
EndSplineSet
Ligature: 0 0 'liga' l uni030C
EndChar
StartChar: nacute
Encoding: 348 324 242
Width: 500
Flags: W
HStem: 0 15<18 30.75 217.25 230 277 289.5 475.2 485> 405 55<267 306> 658 20G<357.5 376>
VStem: 80 84<65 348> 340 84<79 321>
Fore
216 507 m 1
 176 507 l 1
 323 655 l 2
 341 673 350 678 365 678 c 0
 387 678 400 666 400 646 c 0
 400 630 391 617 370 604 c 2
 216 507 l 1
16 398 m 1
 16 415 l 1
 71 431 105 442 154 460 c 1
 161 458 l 1
 161 379 l 1
 229 443 260 460 306 460 c 0
 380 460 424 404 424 310 c 2
 424 81 l 2
 424 32 436 20 485 15 c 1
 485 0 l 1
 277 0 l 1
 277 15 l 1
 327 19 340 36 340 99 c 2
 340 308 l 2
 340 374 316 405 267 405 c 0
 234 405 212 393 164 348 c 1
 164 67 l 2
 164 31 179 19 230 15 c 1
 230 0 l 1
 18 0 l 1
 18 15 l 1
 69 19 80 33 80 90 c 2
 80 338 l 2
 80 387 71 402 43 402 c 0
 32 402 22 401 16 398 c 1
EndSplineSet
Ligature: 0 0 'liga' n acutecomb
EndChar
StartChar: ncaron
Encoding: 349 328 243
Width: 500
Flags: W
HStem: 0 15<18 30.75 217.25 230 277 289.5 475.2 485> 405 55<267 306> 654 20G<95 129 372 406>
VStem: 80 84<65 348> 340 84<79 321>
Fore
406 674 m 1
 281 507 l 1
 219 507 l 1
 95 674 l 1
 129 674 l 1
 250 571 l 1
 372 674 l 1
 406 674 l 1
16 398 m 1
 16 415 l 1
 71 431 105 442 154 460 c 1
 161 458 l 1
 161 379 l 1
 229 443 260 460 306 460 c 0
 380 460 424 404 424 310 c 2
 424 81 l 2
 424 32 436 20 485 15 c 1
 485 0 l 1
 277 0 l 1
 277 15 l 1
 327 19 340 36 340 99 c 2
 340 308 l 2
 340 374 316 405 267 405 c 0
 234 405 212 393 164 348 c 1
 164 67 l 2
 164 31 179 19 230 15 c 1
 230 0 l 1
 18 0 l 1
 18 15 l 1
 69 19 80 33 80 90 c 2
 80 338 l 2
 80 387 71 402 43 402 c 0
 32 402 22 401 16 398 c 1
EndSplineSet
Ligature: 0 0 'liga' n uni030C
EndChar
StartChar: ntilde
Encoding: 350 241 244
Width: 500
Flags: W
HStem: 0 15<18 30.75 217.25 230 277 289.5 475.2 485> 405 55<267 306> 532 56<311 334> 578 55<166 187>
VStem: 80 84<65 348> 340 84<79 321>
Fore
387 638 m 1xec
 416 638 l 1
 395 562 366 532 311 532 c 0xec
 286 532 271 536 230 556 c 2
 207 567 l 2
 192 574 178 578 166 578 c 0xdc
 143 578 126 563 115 532 c 1
 86 532 l 1xec
 101 597 137 633 187 633 c 0xdc
 209 633 234 627 257 615 c 2
 281 603 l 2
 300 594 319 588 334 588 c 0
 357 588 370 600 387 638 c 1xec
16 398 m 1
 16 415 l 1
 71 431 105 442 154 460 c 1
 161 458 l 1
 161 379 l 1
 229 443 260 460 306 460 c 0
 380 460 424 404 424 310 c 2
 424 81 l 2
 424 32 436 20 485 15 c 1
 485 0 l 1
 277 0 l 1
 277 15 l 1
 327 19 340 36 340 99 c 2
 340 308 l 2
 340 374 316 405 267 405 c 0
 234 405 212 393 164 348 c 1
 164 67 l 2
 164 31 179 19 230 15 c 1
 230 0 l 1
 18 0 l 1
 18 15 l 1
 69 19 80 33 80 90 c 2
 80 338 l 2
 80 387 71 402 43 402 c 0
 32 402 22 401 16 398 c 1
EndSplineSet
Ligature: 0 0 'liga' n tildecomb
EndChar
StartChar: odieresis
Encoding: 351 246 245
Width: 500
Flags: W
HStem: -10 28<246 270> 432 28<235 252> 523 99<149 158 338.892 351>
VStem: 29 90<226 275> 101 99<565 575> 300 99<565 575> 380 90<199 234>
Fore
149 622 m 0xe8
 177 622 200 599 200 572 c 0
 200 545 177 523 149 523 c 0
 122 523 101 545 101 573 c 0
 101 599 124 622 149 622 c 0xe8
348 622 m 0
 376 622 399 599 399 572 c 0
 399 545 376 523 348 523 c 0
 321 523 300 545 300 573 c 0xe4
 300 599 323 622 348 622 c 0
250 460 m 0
 378 460 470 365 470 234 c 0
 470 96 374 -10 248 -10 c 0
 122 -10 29 91 29 226 c 0xf2
 29 364 120 460 250 460 c 0
237 432 m 0
 166 432 119 370 119 275 c 0
 119 204 135 134 163 82 c 0
 184 42 221 18 260 18 c 0
 335 18 380 86 380 199 c 0
 380 336 321 432 237 432 c 0
EndSplineSet
KernsSLIF: 121 -41 0 0 120 -36 0 0 119 -36 0 0 118 -36 0 0 116 -9 0 0
Ligature: 0 0 'liga' o uni0308
EndChar
StartChar: oacute
Encoding: 352 243 246
Width: 500
Flags: W
HStem: -10 28<246 270> 432 28<235 252> 658 20G<358.5 377>
VStem: 29 90<226 275> 380 90<199 234>
Fore
217 507 m 1
 177 507 l 1
 324 655 l 2
 342 673 351 678 366 678 c 0
 388 678 401 666 401 646 c 0
 401 630 392 617 371 604 c 2
 217 507 l 1
250 460 m 0
 378 460 470 365 470 234 c 0
 470 96 374 -10 248 -10 c 0
 122 -10 29 91 29 226 c 0
 29 364 120 460 250 460 c 0
237 432 m 0
 166 432 119 370 119 275 c 0
 119 204 135 134 163 82 c 0
 184 42 221 18 260 18 c 0
 335 18 380 86 380 199 c 0
 380 336 321 432 237 432 c 0
EndSplineSet
KernsSLIF: 121 -41 0 0 119 -36 0 0 118 -36 0 0
Ligature: 0 0 'liga' o acutecomb
EndChar
StartChar: ograve
Encoding: 353 242 247
Width: 500
Flags: W
HStem: -10 28<246 270> 432 28<235 252> 658 20G<125.5 143.5>
VStem: 29 90<226 275> 380 90<199 234>
Fore
325 507 m 1
 285 507 l 1
 131 604 l 2
 113 616 102 631 102 647 c 0
 102 666 115 678 136 678 c 0
 151 678 160 673 178 655 c 2
 325 507 l 1
250 460 m 0
 378 460 470 365 470 234 c 0
 470 96 374 -10 248 -10 c 0
 122 -10 29 91 29 226 c 0
 29 364 120 460 250 460 c 0
237 432 m 0
 166 432 119 370 119 275 c 0
 119 204 135 134 163 82 c 0
 184 42 221 18 260 18 c 0
 335 18 380 86 380 199 c 0
 380 336 321 432 237 432 c 0
EndSplineSet
KernsSLIF: 121 -41 0 0 119 -36 0 0 118 -36 0 0
Ligature: 0 0 'liga' o gravecomb
EndChar
StartChar: ocircumflex
Encoding: 354 244 248
Width: 500
Flags: W
HStem: -10 28<246 270> 432 28<235 252> 654 20G<219 281>
VStem: 29 90<226 275> 380 90<199 234>
Fore
406 507 m 1
 372 507 l 1
 250 610 l 1
 129 507 l 1
 95 507 l 1
 219 674 l 1
 281 674 l 1
 406 507 l 1
250 460 m 0
 378 460 470 365 470 234 c 0
 470 96 374 -10 248 -10 c 0
 122 -10 29 91 29 226 c 0
 29 364 120 460 250 460 c 0
237 432 m 0
 166 432 119 370 119 275 c 0
 119 204 135 134 163 82 c 0
 184 42 221 18 260 18 c 0
 335 18 380 86 380 199 c 0
 380 336 321 432 237 432 c 0
EndSplineSet
KernsSLIF: 116 -9 0 0
Ligature: 0 0 'liga' o uni0302
EndChar
StartChar: otilde
Encoding: 355 245 249
Width: 500
Flags: W
HStem: -10 28<246 270> 432 28<227 252> 532 56<310 333> 578 55<165 186>
VStem: 29 90<226 275> 380 90<199 234>
Fore
386 638 m 1xec
 415 638 l 1
 394 562 365 532 310 532 c 0xec
 285 532 270 536 229 556 c 2
 206 567 l 2
 191 574 177 578 165 578 c 0xdc
 142 578 125 563 114 532 c 1
 85 532 l 1xec
 100 597 136 633 186 633 c 0xdc
 208 633 233 627 256 615 c 2
 280 603 l 2
 299 594 318 588 333 588 c 0
 356 588 369 600 386 638 c 1xec
250 460 m 0
 378 460 470 365 470 234 c 0
 470 96 374 -10 248 -10 c 0
 122 -10 29 91 29 226 c 0
 29 364 120 460 250 460 c 0
237 432 m 0
 166 432 119 370 119 275 c 0
 119 204 135 134 163 82 c 0
 184 42 221 18 260 18 c 0
 335 18 380 86 380 199 c 0
 380 336 321 432 237 432 c 0
EndSplineSet
Ligature: 0 0 'liga' o tildecomb
EndChar
StartChar: ohungarumlaut
Encoding: 356 337 250
Width: 500
Flags: W
HStem: -10 28<246 270> 432 28<227 252> 658 20G<262.5 281 418.5 437>
VStem: 29 90<226 275> 380 90<199 234>
Fore
277 507 m 1
 237 507 l 1
 384 655 l 2
 402 673 411 678 426 678 c 0
 448 678 461 666 461 646 c 0
 461 630 452 617 431 604 c 2
 277 507 l 1
121 507 m 1
 81 507 l 1
 228 655 l 2
 246 673 255 678 270 678 c 0
 292 678 305 666 305 646 c 0
 305 630 296 617 275 604 c 2
 121 507 l 1
250 460 m 0
 378 460 470 365 470 234 c 0
 470 96 374 -10 248 -10 c 0
 122 -10 29 91 29 226 c 0
 29 364 120 460 250 460 c 0
237 432 m 0
 166 432 119 370 119 275 c 0
 119 204 135 134 163 82 c 0
 184 42 221 18 260 18 c 0
 335 18 380 86 380 199 c 0
 380 336 321 432 237 432 c 0
EndSplineSet
Ligature: 0 0 'liga' o uni030B
EndChar
StartChar: racute
Encoding: 357 341 251
Width: 333
Flags: W
HStem: 0 15<233.333 256> 362 98<291 307> 658 20G<285.5 304>
VStem: 87 84<79 321>
Fore
18 390 m 1
 18 406 l 1
 77 425 113 438 166 460 c 1
 171 458 l 1
 171 366 l 1
 220 437 249 460 291 460 c 0
 325 460 346 440 346 407 c 0
 346 379 331 362 307 362 c 0
 294 362 283 368 267 382 c 0
 256 392 247 397 241 397 c 0
 214 397 171 347 171 315 c 2
 171 90 l 2
 171 33 188 18 256 15 c 1
 256 0 l 1
 16 0 l 1
 16 15 l 1
 80 27 87 34 87 84 c 2
 87 334 l 2
 87 378 78 394 53 394 c 0
 41 394 32 393 18 390 c 1
144 507 m 1
 104 507 l 1
 251 655 l 2
 269 673 278 678 293 678 c 0
 315 678 328 666 328 646 c 0
 328 630 319 617 298 604 c 2
 144 507 l 1
EndSplineSet
Ligature: 0 0 'liga' r acutecomb
EndChar
StartChar: sacute
Encoding: 358 347 252
Width: 389
Flags: W
HStem: -10 22<188 212> 437 22<178 207> 658 20G<322.5 341>
VStem: 51 62<336 369> 278 70<84 118>
Fore
181 507 m 1
 141 507 l 1
 288 655 l 2
 306 673 315 678 330 678 c 0
 352 678 365 666 365 646 c 0
 365 630 356 617 335 604 c 2
 181 507 l 1
315 314 m 1
 300 314 l 1
 277 403 247 437 190 437 c 0
 144 437 113 409 113 369 c 0
 113 342 128 317 156 301 c 2
 264 237 l 2
 324 201 348 168 348 118 c 0
 348 48 284 -10 207 -10 c 0
 189 -10 162 -6 134 0 c 0
 111 6 97 8 88 8 c 0
 76 8 72 6 65 -4 c 1
 52 -4 l 1
 52 152 l 1
 68 152 l 1
 81 95 90 72 111 47 c 0
 130 25 161 12 195 12 c 0
 246 12 278 40 278 84 c 0
 278 115 261 139 226 159 c 2
 168 192 l 2
 83 240 51 280 51 336 c 0
 51 408 108 459 187 459 c 0
 213 459 235 455 257 447 c 0
 268 442 278 440 284 440 c 0
 288 440 289 441 298 448 c 2
 300 450 l 1
 311 450 l 1
 315 314 l 1
EndSplineSet
Ligature: 0 0 'liga' s acutecomb
EndChar
StartChar: scaron
Encoding: 359 353 253
Width: 389
Flags: W
HStem: -10 22<188 209> 437 22<182 207> 655 20G<39 73 316 350>
VStem: 51 62<336 369> 278 70<84 118>
Fore
350 675 m 1
 225 508 l 1
 163 508 l 1
 39 675 l 1
 73 675 l 1
 194 572 l 1
 316 675 l 1
 350 675 l 1
315 314 m 1
 300 314 l 1
 277 403 247 437 190 437 c 0
 144 437 113 409 113 369 c 0
 113 342 128 317 156 301 c 2
 264 237 l 2
 324 201 348 168 348 118 c 0
 348 48 284 -10 207 -10 c 0
 189 -10 162 -6 134 0 c 0
 111 6 97 8 88 8 c 0
 76 8 72 6 65 -4 c 1
 52 -4 l 1
 52 152 l 1
 68 152 l 1
 81 95 90 72 111 47 c 0
 130 25 161 12 195 12 c 0
 246 12 278 40 278 84 c 0
 278 115 261 139 226 159 c 2
 168 192 l 2
 83 240 51 280 51 336 c 0
 51 408 108 459 187 459 c 0
 213 459 235 455 257 447 c 0
 268 442 278 440 284 440 c 0
 288 440 289 441 298 448 c 2
 300 450 l 1
 311 450 l 1
 315 314 l 1
EndSplineSet
Ligature: 0 0 'liga' s uni030C
EndChar
StartChar: scommaaccent
Encoding: 360 537 254
Width: 389
Flags: W
HStem: -146 108<184 197> -10 22<188 211> 437 22<178 207>
VStem: 51 62<336 369> 225 39<-156 -127> 278 70<84 118>
Fore
152 -281 m 1
 143 -262 l 1
 197 -225 225 -188 225 -156 c 0
 225 -148 219 -142 211 -142 c 0
 210 -142 210 -142 203 -144 c 0
 197 -145 190 -146 184 -146 c 0
 148 -146 125 -127 125 -95 c 0
 125 -61 149 -38 184 -38 c 0
 229 -38 264 -77 264 -127 c 0
 264 -187 219 -248 152 -281 c 1
315 314 m 1
 300 314 l 1
 277 403 247 437 190 437 c 0
 144 437 113 409 113 369 c 0
 113 342 128 317 156 301 c 2
 264 237 l 2
 324 201 348 168 348 118 c 0
 348 48 284 -10 207 -10 c 0
 189 -10 162 -6 134 0 c 0
 111 6 97 8 88 8 c 0
 76 8 72 6 65 -4 c 1
 52 -4 l 1
 52 152 l 1
 68 152 l 1
 81 95 90 72 111 47 c 0
 130 25 161 12 195 12 c 0
 246 12 278 40 278 84 c 0
 278 115 261 139 226 159 c 2
 168 192 l 2
 83 240 51 280 51 336 c 0
 51 408 108 459 187 459 c 0
 213 459 235 455 257 447 c 0
 268 442 278 440 284 440 c 0
 288 440 289 441 298 448 c 2
 300 450 l 1
 311 450 l 1
 315 314 l 1
EndSplineSet
Ligature: 0 0 'liga' s uni0326
EndChar
StartChar: tcaron
Encoding: 361 357 255
Width: 278
Flags: W
HStem: -10 52<159 206> 418 32<154 255> 568 108<220 222>
VStem: 70 84<115 418> 261 39<558 587>
Fore
188 433 m 1
 179 452 l 1
 233 489 261 526 261 558 c 0
 261 566 255 572 247 572 c 0
 246 572 246 572 239 570 c 0
 233 569 226 568 220 568 c 0
 184 568 161 587 161 619 c 0
 161 653 185 676 220 676 c 0
 265 676 300 637 300 587 c 0
 300 527 255 466 188 433 c 1
255 450 m 1
 255 418 l 1
 154 418 l 1
 154 132 l 2
 154 69 169 42 206 42 c 0
 228 42 245 52 266 77 c 1
 279 66 l 1
 246 14 208 -10 159 -10 c 0
 100 -10 70 33 70 117 c 2
 70 418 l 1
 17 418 l 1
 14 420 13 422 13 425 c 0
 13 430 19 437 30 444 c 1
 46 448 89 496 127 551 c 0
 134 561 140 570 147 579 c 1
 153 579 154 576 154 566 c 2
 154 450 l 1
 255 450 l 1
EndSplineSet
Ligature: 0 0 'liga' t uni030C
EndChar
StartChar: udieresis
Encoding: 362 252 256
Width: 500
Flags: W
HStem: -10 58<192 226> 433 17<259 279.667> 523 99<130 138 319.892 340>
VStem: 71 84<117 391> 82 99<565 575> 281 99<565 575> 333 84<117 450>
Fore
130 622 m 0xe8
 158 622 181 599 181 572 c 0
 181 545 158 523 130 523 c 0
 103 523 82 545 82 573 c 0
 82 599 105 622 130 622 c 0xe8
329 622 m 0
 357 622 380 599 380 572 c 0
 380 545 357 523 329 523 c 0
 302 523 281 545 281 573 c 0xe4
 281 599 304 622 329 622 c 0
479 50 m 1
 479 36 l 1
 428 22 392 11 342 -9 c 1
 338 -7 l 1
 338 76 l 1
 295 33 l 2
 268 6 229 -10 192 -10 c 0
 119 -10 71 41 71 120 c 2
 71 372 l 2
 71 418 57 433 9 436 c 1
 9 450 l 1
 155 450 l 1
 155 124 l 2
 155 82 187 48 226 48 c 0
 256 48 287 60 314 82 c 0
 328 93 333 107 333 135 c 2
 333 370 l 2
 333 420 321 430 259 433 c 1
 259 450 l 1
 417 450 l 1
 417 107 l 2xf2
 417 61 428 50 474 50 c 2
 479 50 l 1
EndSplineSet
Ligature: 0 0 'liga' u uni0308
EndChar
StartChar: uacute
Encoding: 363 250 257
Width: 500
Flags: W
HStem: -10 58<192 226> 433 17<259 279.667> 658 20G<358.5 377>
VStem: 71 84<117 391> 333 84<117 450>
Fore
217 507 m 1
 177 507 l 1
 324 655 l 2
 342 673 351 678 366 678 c 0
 388 678 401 666 401 646 c 0
 401 630 392 617 371 604 c 2
 217 507 l 1
479 50 m 1
 479 36 l 1
 428 22 392 11 342 -9 c 1
 338 -7 l 1
 338 76 l 1
 295 33 l 2
 268 6 229 -10 192 -10 c 0
 119 -10 71 41 71 120 c 2
 71 372 l 2
 71 418 57 433 9 436 c 1
 9 450 l 1
 155 450 l 1
 155 124 l 2
 155 82 187 48 226 48 c 0
 256 48 287 60 314 82 c 0
 328 93 333 107 333 135 c 2
 333 370 l 2
 333 420 321 430 259 433 c 1
 259 450 l 1
 417 450 l 1
 417 107 l 2
 417 61 428 50 474 50 c 2
 479 50 l 1
EndSplineSet
Ligature: 0 0 'liga' u acutecomb
EndChar
StartChar: ugrave
Encoding: 364 249 258
Width: 500
Flags: W
HStem: -10 58<192 226> 433 17<259 279.667> 659 20G<104.5 122.5>
VStem: 71 84<117 391> 333 84<117 450>
Fore
304 508 m 1
 264 508 l 1
 110 605 l 2
 92 617 81 632 81 648 c 0
 81 667 94 679 115 679 c 0
 130 679 139 674 157 656 c 2
 304 508 l 1
479 50 m 1
 479 36 l 1
 428 22 392 11 342 -9 c 1
 338 -7 l 1
 338 76 l 1
 295 33 l 2
 268 6 229 -10 192 -10 c 0
 119 -10 71 41 71 120 c 2
 71 372 l 2
 71 418 57 433 9 436 c 1
 9 450 l 1
 155 450 l 1
 155 124 l 2
 155 82 187 48 226 48 c 0
 256 48 287 60 314 82 c 0
 328 93 333 107 333 135 c 2
 333 370 l 2
 333 420 321 430 259 433 c 1
 259 450 l 1
 417 450 l 1
 417 107 l 2
 417 61 428 50 474 50 c 2
 479 50 l 1
EndSplineSet
Ligature: 0 0 'liga' u gravecomb
EndChar
StartChar: ucircumflex
Encoding: 365 251 259
Width: 500
Flags: W
HStem: -10 58<192 226> 433 17<259 279.667> 654 20G<205 267>
VStem: 71 84<117 391> 333 84<117 450>
Fore
392 507 m 1
 358 507 l 1
 236 610 l 1
 115 507 l 1
 81 507 l 1
 205 674 l 1
 267 674 l 1
 392 507 l 1
479 50 m 1
 479 36 l 1
 428 22 392 11 342 -9 c 1
 338 -7 l 1
 338 76 l 1
 295 33 l 2
 268 6 229 -10 192 -10 c 0
 119 -10 71 41 71 120 c 2
 71 372 l 2
 71 418 57 433 9 436 c 1
 9 450 l 1
 155 450 l 1
 155 124 l 2
 155 82 187 48 226 48 c 0
 256 48 287 60 314 82 c 0
 328 93 333 107 333 135 c 2
 333 370 l 2
 333 420 321 430 259 433 c 1
 259 450 l 1
 417 450 l 1
 417 107 l 2
 417 61 428 50 474 50 c 2
 479 50 l 1
EndSplineSet
Ligature: 0 0 'liga' u uni0302
EndChar
StartChar: uring
Encoding: 366 367 260
Width: 500
Flags: W
HStem: -10 58<192 226> 433 17<259 279.667> 512 34<237.976 261> 677 34<247 261>
VStem: 71 84<117 391> 151 34<612 614> 316 34<599.712 614> 333 84<117 450>
Fore
250 711 m 0xf6
 305 711 350 666 350 611 c 0
 350 556 305 512 250 512 c 0
 194 512 151 556 151 612 c 0
 151 666 196 711 250 711 c 0xf6
251 677 m 0
 215 677 185 648 185 612 c 0
 185 576 214 546 249 546 c 0
 286 546 316 575 316 611 c 0
 316 647 286 677 251 677 c 0
479 50 m 1
 479 36 l 1
 428 22 392 11 342 -9 c 1
 338 -7 l 1
 338 76 l 1
 295 33 l 2
 268 6 229 -10 192 -10 c 0
 119 -10 71 41 71 120 c 2
 71 372 l 2
 71 418 57 433 9 436 c 1
 9 450 l 1
 155 450 l 1
 155 124 l 2
 155 82 187 48 226 48 c 0
 256 48 287 60 314 82 c 0
 328 93 333 107 333 135 c 2
 333 370 l 2
 333 420 321 430 259 433 c 1
 259 450 l 1
 417 450 l 1
 417 107 l 2xf9
 417 61 428 50 474 50 c 2
 479 50 l 1
EndSplineSet
Ligature: 0 0 'liga' u uni030A
EndChar
StartChar: uhungarumlaut
Encoding: 367 369 261
Width: 500
Flags: W
HStem: -10 58<192 226> 433 17<259 279.667> 658 20G<261.5 280 417.5 436>
VStem: 71 84<117 391> 333 84<117 450>
Fore
276 507 m 1
 236 507 l 1
 383 655 l 2
 401 673 410 678 425 678 c 0
 447 678 460 666 460 646 c 0
 460 630 451 617 430 604 c 2
 276 507 l 1
120 507 m 1
 80 507 l 1
 227 655 l 2
 245 673 254 678 269 678 c 0
 291 678 304 666 304 646 c 0
 304 630 295 617 274 604 c 2
 120 507 l 1
479 50 m 1
 479 36 l 1
 428 22 392 11 342 -9 c 1
 338 -7 l 1
 338 76 l 1
 295 33 l 2
 268 6 229 -10 192 -10 c 0
 119 -10 71 41 71 120 c 2
 71 372 l 2
 71 418 57 433 9 436 c 1
 9 450 l 1
 155 450 l 1
 155 124 l 2
 155 82 187 48 226 48 c 0
 256 48 287 60 314 82 c 0
 328 93 333 107 333 135 c 2
 333 370 l 2
 333 420 321 430 259 433 c 1
 259 450 l 1
 417 450 l 1
 417 107 l 2
 417 61 428 50 474 50 c 2
 479 50 l 1
EndSplineSet
Ligature: 0 0 'liga' u uni030B
EndChar
StartChar: yacute
Encoding: 368 253 262
Width: 500
Flags: W
HStem: -218 102<73 104> 435 15<198.5 220 340 356.823 467 475> 658 20G<357.5 376>
DStem: 65 404 172 370 179 158 287 117
Fore
216 507 m 1
 176 507 l 1
 323 655 l 2
 341 673 350 678 365 678 c 0
 387 678 400 666 400 646 c 0
 400 630 391 617 370 604 c 2
 216 507 l 1
475 450 m 1
 475 435 l 1
 451 432 440 422 427 390 c 1
 273 -18 l 2
 219 -162 171 -218 104 -218 c 0
 62 -218 30 -193 30 -160 c 0
 30 -136 50 -116 73 -116 c 0
 90 -116 107 -120 126 -127 c 0
 136 -132 145 -134 151 -134 c 0
 165 -134 187 -115 201 -89 c 0
 218 -59 241 4 241 19 c 0
 241 34 225 70 197 120 c 1
 182 150 l 1
 179 158 l 1
 65 404 l 2
 57 421 40 432 14 436 c 1
 14 450 l 1
 220 450 l 1
 220 435 l 1
 177 433 162 426 162 408 c 0
 162 397 166 384 172 370 c 2
 287 117 l 1
 384 393 l 1
 387 400 388 406 388 410 c 0
 388 426 372 435 340 435 c 1
 340 450 l 1
 475 450 l 1
EndSplineSet
Ligature: 0 0 'liga' y acutecomb
EndChar
StartChar: zacute
Encoding: 369 378 263
Width: 444
Flags: W
HStem: 0 30<134 404> 420 30<56 293> 658 20G<330.5 349>
DStem: 293 420 403 435 27 15 134 30
Fore
189 507 m 1
 149 507 l 1
 296 655 l 2
 314 673 323 678 338 678 c 0
 360 678 373 666 373 646 c 0
 373 630 364 617 343 604 c 2
 189 507 l 1
418 135 m 1
 404 0 l 1
 27 0 l 1
 27 15 l 1
 293 420 l 1
 155 420 l 2
 95 420 80 405 71 332 c 1
 53 332 l 1
 56 450 l 1
 403 450 l 1
 403 435 l 1
 134 30 l 1
 272 30 l 2
 323 30 357 39 371 56 c 0
 384 73 390 89 400 139 c 1
 418 135 l 1
EndSplineSet
Ligature: 0 0 'liga' z acutecomb
EndChar
StartChar: zcaron
Encoding: 370 382 264
Width: 444
Flags: W
HStem: 0 30<134 404> 420 30<56 293> 654 20G<67 101 344 378>
DStem: 293 420 403 435 27 15 134 30
Fore
378 674 m 1
 253 507 l 1
 191 507 l 1
 67 674 l 1
 101 674 l 1
 222 571 l 1
 344 674 l 1
 378 674 l 1
418 135 m 1
 404 0 l 1
 27 0 l 1
 27 15 l 1
 293 420 l 1
 155 420 l 2
 95 420 80 405 71 332 c 1
 53 332 l 1
 56 450 l 1
 403 450 l 1
 403 435 l 1
 134 30 l 1
 272 30 l 2
 323 30 357 39 371 56 c 0
 384 73 390 89 400 139 c 1
 418 135 l 1
EndSplineSet
Ligature: 0 0 'liga' z uni030C
EndChar
